<?xml version="1.0" standalone="no"?>
<?xml-stylesheet href="light.css" type="text/css"?>
<!DOCTYPE svg PUBLIC "-//W3C//DTD SVG 1.1//EN" "http://www.w3.org/Graphics/SVG/1.1/DTD/svg11.dtd">
<svg xmlns="http://www.w3.org/2000/svg" version="1.1" viewBox="0 0 1000 1000"><g transform="translate(324.7973111231716,69.56379652218794) scale(0.6529129224720938)"><path class="tree-link" d="M-182.87499999999997,180C-182.87499999999997,120 -277.87499999999994,131.5 -277.87499999999994,131.5" style="stroke-opacity: 1;"></path><path class="tree-link" d="M-277.87499999999994,240C-277.87499999999994,180 -372.87499999999994,191.5 -372.87499999999994,191.5" style="stroke-opacity: 1;"></path><path class="tree-link" d="M-467.8749999999999,300C-467.8749999999999,240 -467.8749999999999,251.5 -467.8749999999999,251.5" style="stroke-opacity: 1;"></path><path class="tree-link" d="M85.5,60C85.5,0 85.5,11.5 85.5,11.5" style="stroke-opacity: 1;"></path><path class="tree-link" d="M-277.87499999999994,120C-277.87499999999994,60 85.5,71.5 85.5,71.5" style="stroke-opacity: 1;"></path><path class="tree-link" d="M448.87499999999994,120C448.87499999999994,60 85.5,71.5 85.5,71.5" style="stroke-opacity: 1;"></path><path class="tree-link" d="M-372.87499999999994,180C-372.87499999999994,120 -277.87499999999994,131.5 -277.87499999999994,131.5" style="stroke-opacity: 1;"></path><path class="tree-link" d="M83.12500000000006,180C83.12500000000006,120 448.87499999999994,131.5 448.87499999999994,131.5" style="stroke-opacity: 1;"></path><path class="tree-link" d="M814.625,180C814.625,120 448.87499999999994,131.5 448.87499999999994,131.5" style="stroke-opacity: 1;"></path><path class="tree-link" d="M-467.8749999999999,240C-467.8749999999999,180 -372.87499999999994,191.5 -372.87499999999994,191.5" style="stroke-opacity: 1;"></path><path class="tree-link" d="M-11.874999999999943,240C-11.874999999999943,180 83.12500000000006,191.5 83.12500000000006,191.5" style="stroke-opacity: 1;"></path><path class="tree-link" d="M178.12500000000006,240C178.12500000000006,180 83.12500000000006,191.5 83.12500000000006,191.5" style="stroke-opacity: 1;"></path><path class="tree-link" d="M444.12500000000006,240C444.12500000000006,180 814.625,191.5 814.625,191.5" style="stroke-opacity: 1;"></path><path class="tree-link" d="M1185.125,240C1185.125,180 814.625,191.5 814.625,191.5" style="stroke-opacity: 1;"></path><path class="tree-link" d="M-106.87499999999994,300C-106.87499999999994,240 -11.874999999999943,251.5 -11.874999999999943,251.5" style="stroke-opacity: 1;"></path><path class="tree-link" d="M83.12500000000006,300C83.12500000000006,240 -11.874999999999943,251.5 -11.874999999999943,251.5" style="stroke-opacity: 1;"></path><path class="tree-link" d="M349.12500000000006,300C349.12500000000006,240 444.12500000000006,251.5 444.12500000000006,251.5" style="stroke-opacity: 1;"></path><path class="tree-link" d="M539.125,300C539.125,240 444.12500000000006,251.5 444.12500000000006,251.5" style="stroke-opacity: 1;"></path><path class="tree-link" d="M1090.125,300C1090.125,240 1185.125,251.5 1185.125,251.5" style="stroke-opacity: 1;"></path><path class="tree-link" d="M1280.125,300C1280.125,240 1185.125,251.5 1185.125,251.5" style="stroke-opacity: 1;"></path><path class="tree-link" d="M-106.87499999999994,360C-106.87499999999994,300 -106.87499999999994,311.5 -106.87499999999994,311.5" style="stroke-opacity: 1;"></path><path class="tree-link" d="M159.12500000000003,360C159.12500000000003,300 349.12500000000006,311.5 349.12500000000006,311.5" style="stroke-opacity: 1;"></path><path class="tree-link" d="M349.12500000000006,360C349.12500000000006,300 349.12500000000006,311.5 349.12500000000006,311.5" style="stroke-opacity: 1;"></path><path class="tree-link" d="M539.125,360C539.125,300 349.12500000000006,311.5 349.12500000000006,311.5" style="stroke-opacity: 1;"></path><path class="tree-link" d="M995.1249999999999,360C995.1249999999999,300 1090.125,311.5 1090.125,311.5" style="stroke-opacity: 1;"></path><path class="tree-link" d="M1185.125,360C1185.125,300 1090.125,311.5 1090.125,311.5" style="stroke-opacity: 1;"></path><path class="tree-link" d="M539.125,420C539.125,360 539.125,371.5 539.125,371.5" style="stroke-opacity: 1;"></path><path class="tree-link" d="M805.125,420C805.125,360 995.1249999999999,371.5 995.1249999999999,371.5" style="stroke-opacity: 1;"></path><path class="tree-link" d="M995.1249999999999,420C995.1249999999999,360 995.1249999999999,371.5 995.1249999999999,371.5" style="stroke-opacity: 1;"></path><path class="tree-link" d="M1185.125,420C1185.125,360 995.1249999999999,371.5 995.1249999999999,371.5" style="stroke-opacity: 1;"></path><path class="tree-link" d="M444.12500000000006,480C444.12500000000006,420 539.125,431.5 539.125,431.5" style="stroke-opacity: 1;"></path><path class="tree-link" d="M634.125,480C634.125,420 539.125,431.5 539.125,431.5" style="stroke-opacity: 1;"></path><path class="tree-link" d="M1185.125,480C1185.125,420 1185.125,431.5 1185.125,431.5" style="stroke-opacity: 1;"></path><path class="tree-link" d="M349.12500000000006,540C349.12500000000006,480 444.12500000000006,491.5 444.12500000000006,491.5" style="stroke-opacity: 1;"></path><path class="tree-link" d="M539.125,540C539.125,480 444.12500000000006,491.5 444.12500000000006,491.5" style="stroke-opacity: 1;"></path><path class="tree-link" d="M1090.125,540C1090.125,480 1185.125,491.5 1185.125,491.5" style="stroke-opacity: 1;"></path><path class="tree-link" d="M1280.125,540C1280.125,480 1185.125,491.5 1185.125,491.5" style="stroke-opacity: 1;"></path><path class="tree-link" d="M349.12500000000006,600C349.12500000000006,540 349.12500000000006,551.5 349.12500000000006,551.5" style="stroke-opacity: 1;"></path><path class="tree-link" d="M995.1249999999999,600C995.1249999999999,540 1090.125,551.5 1090.125,551.5" style="stroke-opacity: 1;"></path><path class="tree-link" d="M1185.125,600C1185.125,540 1090.125,551.5 1090.125,551.5" style="stroke-opacity: 1;"></path><path class="tree-link" d="M995.1249999999999,660C995.1249999999999,600 995.1249999999999,611.5 995.1249999999999,611.5" style="stroke-opacity: 1;"></path><g class="tree-node tree-root" transform="translate(0,0)" style="opacity: 1;"><rect width="171" height="23" rx="0" ry="0"></rect><text class="node-text" y="11.5" dy=".35em" x="51.296653747558594">programa</text><text class="token-range" x="0" y="11.5" dx="0" dy="-1.8em">⨳ 0-13</text><text class="token-value" x="0" y="11.5" dy="2.5em" dx="85.5"></text></g><g class="tree-node" transform="translate(0,60)" style="opacity: 1;"><rect width="171" height="23" rx="0" ry="0"></rect><text class="node-text" y="11.5" dy=".35em" x="38.86014938354492">instrucciones</text><text class="token-range" x="0" y="11.5" dx="0" dy="-1.8em">⨳ 0-13</text><text class="token-value" x="0" y="11.5" dy="2.5em" dx="85.5"></text></g><g class="tree-node" transform="translate(-363.37499999999994,120)" style="opacity: 1;"><rect width="171" height="23" rx="0" ry="0"></rect><text class="node-text" y="11.5" dy=".35em" x="47.300750732421875">instruccion</text><text class="token-range" x="0" y="11.5" dx="0" dy="-1.8em">⨳ 0-2</text><text class="token-value" x="0" y="11.5" dy="2.5em" dx="85.5"></text></g><g class="tree-node" transform="translate(363.37499999999994,120)" style="opacity: 1;"><rect width="171" height="23" rx="0" ry="0"></rect><text class="node-text" y="11.5" dy=".35em" x="38.86014938354492">instrucciones</text><text class="token-range" x="0" y="11.5" dx="0" dy="-1.8em">⨳ 3-13</text><text class="token-value" x="0" y="11.5" dy="2.5em" dx="85.5"></text></g><g class="tree-node" transform="translate(-458.37499999999994,180)" style="opacity: 1;"><rect width="171" height="23" rx="0" ry="0"></rect><text class="node-text" y="11.5" dy=".35em" x="44.62769317626953">declaracion</text><text class="token-range" x="0" y="11.5" dx="0" dy="-1.8em">⨳ 0-1</text><text class="token-value" x="0" y="11.5" dy="2.5em" dx="85.5"></text></g><g class="tree-node tree-leaf" transform="translate(-268.375, 180)" style="opacity: 1;"><rect width="171" height="23" rx="10" ry="10"></rect><text class="node-text" y="11.5" dy=".35em" x="69.06756019592285">PYC</text><text class="token-range" x="0" y="11.5" dx="0" dy="-1.8em">⨳ 2</text><text class="token-value" x="0" y="11.5" dy="2.5em" dx="81.10606002807617">;</text></g><g class="tree-node" transform="translate(-2.3749999999999494,180)" style="opacity: 1;"><rect width="171" height="23" rx="0" ry="0"></rect><text class="node-text" y="11.5" dy=".35em" x="47.300750732421875">instruccion</text><text class="token-range" x="0" y="11.5" dx="0" dy="-1.8em">⨳ 3-5</text><text class="token-value" x="0" y="11.5" dy="2.5em" dx="85.5"></text></g><g class="tree-node" transform="translate(729.125,180)" style="opacity: 1;"><rect width="171" height="23" rx="0" ry="0"></rect><text class="node-text" y="11.5" dy=".35em" x="38.86014938354492">instrucciones</text><text class="token-range" x="0" y="11.5" dx="0" dy="-1.8em">⨳ 6-13</text><text class="token-value" x="0" y="11.5" dy="2.5em" dx="85.5"></text></g><g class="tree-node" transform="translate(-553.3749999999999,240)" style="opacity: 1;"><rect width="171" height="23" rx="0" ry="0"></rect><text class="node-text" y="11.5" dy=".35em" x="57.06032371520996">tipodato</text><text class="token-range" x="0" y="11.5" dx="0" dy="-1.8em">⨳ 0</text><text class="token-value" x="0" y="11.5" dy="2.5em" dx="85.5"></text></g><g class="tree-node tree-leaf" transform="translate(-363.375, 240)" style="opacity: 1;"><rect width="171" height="23" rx="10" ry="10"></rect><text class="node-text" y="11.5" dy=".35em" x="77.50817441940308">ID</text><text class="token-range" x="0" y="11.5" dx="0" dy="-1.8em">⨳ 1</text><text class="token-value" x="0" y="11.5" dy="2.5em" dx="81.10606002807617">x</text></g><g class="tree-node" transform="translate(-97.37499999999994,240)" style="opacity: 1;"><rect width="171" height="23" rx="0" ry="0"></rect><text class="node-text" y="11.5" dy=".35em" x="44.62769317626953">declaracion</text><text class="token-range" x="0" y="11.5" dx="0" dy="-1.8em">⨳ 3-4</text><text class="token-value" x="0" y="11.5" dy="2.5em" dx="85.5"></text></g><g class="tree-node tree-leaf" transform="translate(92.62500000000006,240)" style="opacity: 1;"><rect width="171" height="23" rx="10" ry="10"></rect><text class="node-text" y="11.5" dy=".35em" x="69.06756019592285">PYC</text><text class="token-range" x="0" y="11.5" dx="0" dy="-1.8em">⨳ 5</text><text class="token-value" x="0" y="11.5" dy="2.5em" dx="81.10606002807617">;</text></g><g class="tree-node" transform="translate(358.62500000000006,240)" style="opacity: 1;"><rect width="171" height="23" rx="0" ry="0"></rect><text class="node-text" y="11.5" dy=".35em" x="47.300750732421875">instruccion</text><text class="token-range" x="0" y="11.5" dx="0" dy="-1.8em">⨳ 6-9</text><text class="token-value" x="0" y="11.5" dy="2.5em" dx="85.5"></text></g><g class="tree-node" transform="translate(1099.625,240)" style="opacity: 1;"><rect width="171" height="23" rx="0" ry="0"></rect><text class="node-text" y="11.5" dy=".35em" x="38.86014938354492">instrucciones</text><text class="token-range" x="0" y="11.5" dx="0" dy="-1.8em">⨳ 10-13</text><text class="token-value" x="0" y="11.5" dy="2.5em" dx="85.5"></text></g><g class="tree-node tree-leaf" transform="translate(-553.375, 300)" style="opacity: 1;"><rect width="171" height="23" rx="10" ry="10"></rect><text class="node-text" y="11.5" dy=".35em" x="72.62645053863525">INT</text><text class="token-range" x="0" y="11.5" dx="0" dy="-1.8em">⨳ 0</text><text class="token-value" x="0" y="11.5" dy="2.5em" dx="72.3181791305542">int</text></g><g class="tree-node" transform="translate(-192.37499999999994,300)" style="opacity: 1;"><rect width="171" height="23" rx="0" ry="0"></rect><text class="node-text" y="11.5" dy=".35em" x="57.06032371520996">tipodato</text><text class="token-range" x="0" y="11.5" dx="0" dy="-1.8em">⨳ 3</text><text class="token-value" x="0" y="11.5" dy="2.5em" dx="85.5"></text></g><g class="tree-node tree-leaf" transform="translate(-2.3749999999999494,300)" style="opacity: 1;"><rect width="171" height="23" rx="10" ry="10"></rect><text class="node-text" y="11.5" dy=".35em" x="77.50817441940308">ID</text><text class="token-range" x="0" y="11.5" dx="0" dy="-1.8em">⨳ 4</text><text class="token-value" x="0" y="11.5" dy="2.5em" dx="81.10606002807617">l</text></g><g class="tree-node" transform="translate(263.62500000000006,300)" style="opacity: 1;"><rect width="171" height="23" rx="0" ry="0"></rect><text class="node-text" y="11.5" dy=".35em" x="47.28903579711914">asignacion</text><text class="token-range" x="0" y="11.5" dx="0" dy="-1.8em">⨳ 6-8</text><text class="token-value" x="0" y="11.5" dy="2.5em" dx="85.5"></text></g><g class="tree-node tree-leaf" transform="translate(453.62500000000006,300)" style="opacity: 1;"><rect width="171" height="23" rx="10" ry="10"></rect><text class="node-text" y="11.5" dy=".35em" x="69.06756019592285">PYC</text><text class="token-range" x="0" y="11.5" dx="0" dy="-1.8em">⨳ 9</text><text class="token-value" x="0" y="11.5" dy="2.5em" dx="81.10606002807617">;</text></g><g class="tree-node" transform="translate(1004.6249999999999,300)" style="opacity: 1;"><rect width="171" height="23" rx="0" ry="0"></rect><text class="node-text" y="11.5" dy=".35em" x="47.300750732421875">instruccion</text><text class="token-range" x="0" y="11.5" dx="0" dy="-1.8em">⨳ 10-13</text><text class="token-value" x="0" y="11.5" dy="2.5em" dx="85.5"></text></g><g class="tree-node" transform="translate(1194.625,300)" style="opacity: 1;"><rect width="171" height="23" rx="0" ry="0"></rect><text class="node-text" y="11.5" dy=".35em" x="38.86014938354492">instrucciones</text><text class="token-range" x="0" y="11.5" dx="0" dy="-1.8em">⨳ --</text><text class="token-value" x="0" y="11.5" dy="2.5em" dx="85.5"></text></g><g class="tree-node tree-leaf" transform="translate(-192.37499999999994,360)" style="opacity: 1;"><rect width="171" height="23" rx="10" ry="10"></rect><text class="node-text" y="11.5" dy=".35em" x="72.62645053863525">INT</text><text class="token-range" x="0" y="11.5" dx="0" dy="-1.8em">⨳ 3</text><text class="token-value" x="0" y="11.5" dy="2.5em" dx="72.3181791305542">int</text></g><g class="tree-node tree-leaf" transform="translate(73.62500000000003,360)" style="opacity: 1;"><rect width="171" height="23" rx="10" ry="10"></rect><text class="node-text" y="11.5" dy=".35em" x="77.50817441940308">ID</text><text class="token-range" x="0" y="11.5" dx="0" dy="-1.8em">⨳ 6</text><text class="token-value" x="0" y="11.5" dy="2.5em" dx="81.10606002807617">x</text></g><g class="tree-node tree-leaf" transform="translate(263.62500000000006,360)" style="opacity: 1;"><rect width="171" height="23" rx="10" ry="10"></rect><text class="node-text" y="11.5" dy=".35em" x="60.63088035583496">ASIGN</text><text class="token-range" x="0" y="11.5" dx="0" dy="-1.8em">⨳ 7</text><text class="token-value" x="0" y="11.5" dy="2.5em" dx="81.10606002807617">=</text></g><g class="tree-node" transform="translate(453.62500000000006,360)" style="opacity: 1;"><rect width="171" height="23" rx="0" ry="0"></rect><text class="node-text" y="11.5" dy=".35em" x="70.3904390335083">opal</text><text class="token-range" x="0" y="11.5" dx="0" dy="-1.8em">⨳ 8</text><text class="token-value" x="0" y="11.5" dy="2.5em" dx="85.5"></text></g><g class="tree-node" transform="translate(909.6249999999999,360)" style="opacity: 1;"><rect width="171" height="23" rx="0" ry="0"></rect><text class="node-text" y="11.5" dy=".35em" x="47.28903579711914">asignacion</text><text class="token-range" x="0" y="11.5" dx="0" dy="-1.8em">⨳ 10-12</text><text class="token-value" x="0" y="11.5" dy="2.5em" dx="85.5"></text></g><g class="tree-node tree-leaf" transform="translate(1099.625,360)" style="opacity: 1;"><rect width="171" height="23" rx="10" ry="10"></rect><text class="node-text" y="11.5" dy=".35em" x="69.06756019592285">PYC</text><text class="token-range" x="0" y="11.5" dx="0" dy="-1.8em">⨳ 13</text><text class="token-value" x="0" y="11.5" dy="2.5em" dx="81.10606002807617">;</text></g><g class="tree-node" transform="translate(453.62500000000006,420)" style="opacity: 1;"><rect width="171" height="23" rx="0" ry="0"></rect><text class="node-text" y="11.5" dy=".35em" x="72.61472225189209">exp</text><text class="token-range" x="0" y="11.5" dx="0" dy="-1.8em">⨳ 8</text><text class="token-value" x="0" y="11.5" dy="2.5em" dx="85.5"></text></g><g class="tree-node tree-leaf" transform="translate(719.625,420)" style="opacity: 1;"><rect width="171" height="23" rx="10" ry="10"></rect><text class="node-text" y="11.5" dy=".35em" x="77.50817441940308">ID</text><text class="token-range" x="0" y="11.5" dx="0" dy="-1.8em">⨳ 10</text><text class="token-value" x="0" y="11.5" dy="2.5em" dx="81.10606002807617">l</text></g><g class="tree-node tree-leaf" transform="translate(909.6249999999999,420)" style="opacity: 1;"><rect width="171" height="23" rx="10" ry="10"></rect><text class="node-text" y="11.5" dy=".35em" x="60.63088035583496">ASIGN</text><text class="token-range" x="0" y="11.5" dx="0" dy="-1.8em">⨳ 11</text><text class="token-value" x="0" y="11.5" dy="2.5em" dx="81.10606002807617">=</text></g><g class="tree-node" transform="translate(1099.625,420)" style="opacity: 1;"><rect width="171" height="23" rx="0" ry="0"></rect><text class="node-text" y="11.5" dy=".35em" x="70.3904390335083">opal</text><text class="token-range" x="0" y="11.5" dx="0" dy="-1.8em">⨳ 12</text><text class="token-value" x="0" y="11.5" dy="2.5em" dx="85.5"></text></g><g class="tree-node" transform="translate(358.62500000000006,480)" style="opacity: 1;"><rect width="171" height="23" rx="0" ry="0"></rect><text class="node-text" y="11.5" dy=".35em" x="69.51633262634277">term</text><text class="token-range" x="0" y="11.5" dx="0" dy="-1.8em">⨳ 8</text><text class="token-value" x="0" y="11.5" dy="2.5em" dx="85.5"></text></g><g class="tree-node" transform="translate(548.625,480)" style="opacity: 1;"><rect width="171" height="23" rx="0" ry="0"></rect><text class="node-text" y="11.5" dy=".35em" x="81.05532169342041">e</text><text class="token-range" x="0" y="11.5" dx="0" dy="-1.8em">⨳ --</text><text class="token-value" x="0" y="11.5" dy="2.5em" dx="85.5"></text></g><g class="tree-node" transform="translate(1099.625,480)" style="opacity: 1;"><rect width="171" height="23" rx="0" ry="0"></rect><text class="node-text" y="11.5" dy=".35em" x="72.61472225189209">exp</text><text class="token-range" x="0" y="11.5" dx="0" dy="-1.8em">⨳ 12</text><text class="token-value" x="0" y="11.5" dy="2.5em" dx="85.5"></text></g><g class="tree-node" transform="translate(263.62500000000006,540)" style="opacity: 1;"><rect width="171" height="23" rx="0" ry="0"></rect><text class="node-text" y="11.5" dy=".35em" x="65.51261901855469">factor</text><text class="token-range" x="0" y="11.5" dx="0" dy="-1.8em">⨳ 8</text><text class="token-value" x="0" y="11.5" dy="2.5em" dx="85.5"></text></g><g class="tree-node" transform="translate(453.62500000000006,540)" style="opacity: 1;"><rect width="171" height="23" rx="0" ry="0"></rect><text class="node-text" y="11.5" dy=".35em" x="83.27962064743042">t</text><text class="token-range" x="0" y="11.5" dx="0" dy="-1.8em">⨳ --</text><text class="token-value" x="0" y="11.5" dy="2.5em" dx="85.5"></text></g><g class="tree-node" transform="translate(1004.6249999999999,540)" style="opacity: 1;"><rect width="171" height="23" rx="0" ry="0"></rect><text class="node-text" y="11.5" dy=".35em" x="69.51633262634277">term</text><text class="token-range" x="0" y="11.5" dx="0" dy="-1.8em">⨳ 12</text><text class="token-value" x="0" y="11.5" dy="2.5em" dx="85.5"></text></g><g class="tree-node" transform="translate(1194.625,540)" style="opacity: 1;"><rect width="171" height="23" rx="0" ry="0"></rect><text class="node-text" y="11.5" dy=".35em" x="81.05532169342041">e</text><text class="token-range" x="0" y="11.5" dx="0" dy="-1.8em">⨳ --</text><text class="token-value" x="0" y="11.5" dy="2.5em" dx="85.5"></text></g><g class="tree-node tree-leaf" transform="translate(263.62500000000006,600)" style="opacity: 1;"><rect width="171" height="23" rx="10" ry="10"></rect><text class="node-text" y="11.5" dy=".35em" x="52.198089599609375">ENTERO</text><text class="token-range" x="0" y="11.5" dx="0" dy="-1.8em">⨳ 8</text><text class="token-value" x="0" y="11.5" dy="2.5em" dx="81.10606002807617">3</text></g><g class="tree-node" transform="translate(909.6249999999999,600)" style="opacity: 1;"><rect width="171" height="23" rx="0" ry="0"></rect><text class="node-text" y="11.5" dy=".35em" x="65.51261901855469">factor</text><text class="token-range" x="0" y="11.5" dx="0" dy="-1.8em">⨳ 12</text><text class="token-value" x="0" y="11.5" dy="2.5em" dx="85.5"></text></g><g class="tree-node" transform="translate(1099.625,600)" style="opacity: 1;"><rect width="171" height="23" rx="0" ry="0"></rect><text class="node-text" y="11.5" dy=".35em" x="83.27962064743042">t</text><text class="token-range" x="0" y="11.5" dx="0" dy="-1.8em">⨳ --</text><text class="token-value" x="0" y="11.5" dy="2.5em" dx="85.5"></text></g><g class="tree-node tree-leaf" transform="translate(909.6249999999999,660)" style="opacity: 1;"><rect width="171" height="23" rx="10" ry="10"></rect><text class="node-text" y="11.5" dy=".35em" x="52.198089599609375">ENTERO</text><text class="token-range" x="0" y="11.5" dx="0" dy="-1.8em">⨳ 12</text><text class="token-value" x="0" y="11.5" dy="2.5em" dx="81.10606002807617">1</text></g></g></svg>