<?xml version="1.0" standalone="no"?>
<?xml-stylesheet href="light.css" type="text/css"?>
<!DOCTYPE svg PUBLIC "-//W3C//DTD SVG 1.1//EN" "http://www.w3.org/Graphics/SVG/1.1/DTD/svg11.dtd">
<svg xmlns="http://www.w3.org/2000/svg" version="1.1" viewBox="0 0 1000 1000"><g transform="translate(541.2850243461735,210.01486349514678) scale(0.3507333516767293)"><path class="tree-link" d="M-1030.75,300C-1030.75,240 -840.75,251.5 -840.75,251.5" style="stroke-opacity: 1;"></path><path class="tree-link" d="M-840.75,540C-840.75,480 -840.75,491.5 -840.75,491.5" style="stroke-opacity: 1;"></path><path class="tree-link" d="M85.5,60C85.5,0 85.5,11.5 85.5,11.5" style="stroke-opacity: 1;"></path><path class="tree-link" d="M-9.5,120C-9.5,60 85.5,71.5 85.5,71.5" style="stroke-opacity: 1;"></path><path class="tree-link" d="M180.5,120C180.5,60 85.5,71.5 85.5,71.5" style="stroke-opacity: 1;"></path><path class="tree-link" d="M-9.5,180C-9.5,120 -9.5,131.5 -9.5,131.5" style="stroke-opacity: 1;"></path><path class="tree-link" d="M-1676.75,240C-1676.75,180 -9.5,191.5 -9.5,191.5" style="stroke-opacity: 1;"></path><path class="tree-link" d="M-1486.75,240C-1486.75,180 -9.5,191.5 -9.5,191.5" style="stroke-opacity: 1;"></path><path class="tree-link" d="M-1296.75,240C-1296.75,180 -9.5,191.5 -9.5,191.5" style="stroke-opacity: 1;"></path><path class="tree-link" d="M-840.75,240C-840.75,180 -9.5,191.5 -9.5,191.5" style="stroke-opacity: 1;"></path><path class="tree-link" d="M-380,240C-380,180 -9.5,191.5 -9.5,191.5" style="stroke-opacity: 1;"></path><path class="tree-link" d="M80.75000000000023,240C80.75000000000023,180 -9.5,191.5 -9.5,191.5" style="stroke-opacity: 1;"></path><path class="tree-link" d="M584.25,240C584.25,180 -9.5,191.5 -9.5,191.5" style="stroke-opacity: 1;"></path><path class="tree-link" d="M1087.75,240C1087.75,180 -9.5,191.5 -9.5,191.5" style="stroke-opacity: 1;"></path><path class="tree-link" d="M1277.75,240C1277.75,180 -9.5,191.5 -9.5,191.5" style="stroke-opacity: 1;"></path><path class="tree-link" d="M1467.75,240C1467.75,180 -9.5,191.5 -9.5,191.5" style="stroke-opacity: 1;"></path><path class="tree-link" d="M1657.75,240C1657.75,180 -9.5,191.5 -9.5,191.5" style="stroke-opacity: 1;"></path><path class="tree-link" d="M-1296.75,300C-1296.75,240 -1296.75,251.5 -1296.75,251.5" style="stroke-opacity: 1;"></path><path class="tree-link" d="M-840.75,300C-840.75,240 -840.75,251.5 -840.75,251.5" style="stroke-opacity: 1;"></path><path class="tree-link" d="M-650.75,300C-650.75,240 -840.75,251.5 -840.75,251.5" style="stroke-opacity: 1;"></path><path class="tree-link" d="M80.75,300C80.75,240 80.75000000000023,251.5 80.75000000000023,251.5" style="stroke-opacity: 1;"></path><path class="tree-link" d="M1087.7500000000002,300C1087.7500000000002,240 1087.75,251.5 1087.75,251.5" style="stroke-opacity: 1;"></path><path class="tree-link" d="M-650.75,360C-650.75,300 -650.75,311.5 -650.75,311.5" style="stroke-opacity: 1;"></path><path class="tree-link" d="M-194.75,360C-194.75,300 80.75,311.5 80.75,311.5" style="stroke-opacity: 1;"></path><path class="tree-link" d="M356.25,360C356.25,300 80.75,311.5 80.75,311.5" style="stroke-opacity: 1;"></path><path class="tree-link" d="M907.2500000000002,360C907.2500000000002,300 1087.7500000000002,311.5 1087.7500000000002,311.5" style="stroke-opacity: 1;"></path><path class="tree-link" d="M1268.2500000000002,360C1268.2500000000002,300 1087.7500000000002,311.5 1087.7500000000002,311.5" style="stroke-opacity: 1;"></path><path class="tree-link" d="M-745.75,420C-745.75,360 -650.75,371.5 -650.75,371.5" style="stroke-opacity: 1;"></path><path class="tree-link" d="M-555.75,420C-555.75,360 -650.75,371.5 -650.75,371.5" style="stroke-opacity: 1;"></path><path class="tree-link" d="M-289.75,420C-289.75,360 -194.75,371.5 -194.75,371.5" style="stroke-opacity: 1;"></path><path class="tree-link" d="M-99.75,420C-99.75,360 -194.75,371.5 -194.75,371.5" style="stroke-opacity: 1;"></path><path class="tree-link" d="M166.25,420C166.25,360 356.25,371.5 356.25,371.5" style="stroke-opacity: 1;"></path><path class="tree-link" d="M356.25,420C356.25,360 356.25,371.5 356.25,371.5" style="stroke-opacity: 1;"></path><path class="tree-link" d="M546.25,420C546.25,360 356.25,371.5 356.25,371.5" style="stroke-opacity: 1;"></path><path class="tree-link" d="M812.2500000000002,420C812.2500000000002,360 907.2500000000002,371.5 907.2500000000002,371.5" style="stroke-opacity: 1;"></path><path class="tree-link" d="M1002.2500000000002,420C1002.2500000000002,360 907.2500000000002,371.5 907.2500000000002,371.5" style="stroke-opacity: 1;"></path><path class="tree-link" d="M1268.2500000000002,420C1268.2500000000002,360 1268.2500000000002,371.5 1268.2500000000002,371.5" style="stroke-opacity: 1;"></path><path class="tree-link" d="M-840.75,480C-840.75,420 -745.75,431.5 -745.75,431.5" style="stroke-opacity: 1;"></path><path class="tree-link" d="M-650.75,480C-650.75,420 -745.75,431.5 -745.75,431.5" style="stroke-opacity: 1;"></path><path class="tree-link" d="M-289.75,480C-289.75,420 -289.75,431.5 -289.75,431.5" style="stroke-opacity: 1;"></path><path class="tree-link" d="M261.25,480C261.25,420 356.25,431.5 356.25,431.5" style="stroke-opacity: 1;"></path><path class="tree-link" d="M451.25,480C451.25,420 356.25,431.5 356.25,431.5" style="stroke-opacity: 1;"></path><path class="tree-link" d="M812.2500000000002,480C812.2500000000002,420 812.2500000000002,431.5 812.2500000000002,431.5" style="stroke-opacity: 1;"></path><path class="tree-link" d="M261.25,540C261.25,480 261.25,491.5 261.25,491.5" style="stroke-opacity: 1;"></path><g class="tree-node tree-root" transform="translate(0,0)" style="opacity: 1;"><rect width="171" height="23" rx="0" ry="0"></rect><text class="node-text" y="11.5" dy=".35em" x="51.274383544921875">programa</text><text class="token-range" x="0" y="11.5" dx="0" dy="-1.8em">⨳ 0-13</text><text class="token-value" x="0" y="11.5" dy="2.5em" dx="85.5"></text></g><g class="tree-node" transform="translate(0, 60)" style="opacity: 1;"><rect width="171" height="23" rx="0" ry="0"></rect><text class="node-text" y="11.5" dy=".35em" x="38.829769134521484">instrucciones</text><text class="token-range" x="0" y="11.5" dx="0" dy="-1.8em">⨳ 0-13</text><text class="token-value" x="0" y="11.5" dy="2.5em" dx="85.5"></text></g><g class="tree-node" transform="translate(-95, 120)" style="opacity: 1;"><rect width="171" height="23" rx="0" ry="0"></rect><text class="node-text" y="11.5" dy=".35em" x="47.27586364746094">instruccion</text><text class="token-range" x="0" y="11.5" dx="0" dy="-1.8em">⨳ 0-13</text><text class="token-value" x="0" y="11.5" dy="2.5em" dx="85.5"></text></g><g class="tree-node" transform="translate(95, 120)" style="opacity: 1;"><rect width="171" height="23" rx="0" ry="0"></rect><text class="node-text" y="11.5" dy=".35em" x="38.829769134521484">instrucciones</text><text class="token-range" x="0" y="11.5" dx="0" dy="-1.8em">⨳ --</text><text class="token-value" x="0" y="11.5" dy="2.5em" dx="85.5"></text></g><g class="tree-node" transform="translate(-95, 180)" style="opacity: 1;"><rect width="171" height="23" rx="0" ry="0"></rect><text class="node-text" y="11.5" dy=".35em" x="60.16953086853027">ciclofor</text><text class="token-range" x="0" y="11.5" dx="0" dy="-1.8em">⨳ 0-13</text><text class="token-value" x="0" y="11.5" dy="2.5em" dx="85.5"></text></g><g class="tree-node tree-leaf" transform="translate(-1762.25, 240)" style="opacity: 1;"><rect width="171" height="23" rx="10" ry="10"></rect><text class="node-text" y="11.5" dy=".35em" x="68.61948776245117">FOR</text><text class="token-range" x="0" y="11.5" dx="0" dy="-1.8em">⨳ 0</text><text class="token-value" x="0" y="11.5" dy="2.5em" dx="72.30954360961914">for</text></g><g class="tree-node tree-leaf" transform="translate(-1572.25, 240)" style="opacity: 1;"><rect width="171" height="23" rx="10" ry="10"></rect><text class="node-text" y="11.5" dy=".35em" x="64.31640243530273">PARA</text><text class="token-range" x="0" y="11.5" dx="0" dy="-1.8em">⨳ 1</text><text class="token-value" x="0" y="11.5" dy="2.5em" dx="81.1031813621521">(</text></g><g class="tree-node" transform="translate(-1382.25, 240)" style="opacity: 1;"><rect width="171" height="23" rx="0" ry="0"></rect><text class="node-text" y="11.5" dy=".35em" x="57.04177665710449">tipodato</text><text class="token-range" x="0" y="11.5" dx="0" dy="-1.8em">⨳ 2</text><text class="token-value" x="0" y="11.5" dy="2.5em" dx="85.5"></text></g><g class="tree-node" transform="translate(-926.25, 240)" style="opacity: 1;"><rect width="171" height="23" rx="0" ry="0"></rect><text class="node-text" y="11.5" dy=".35em" x="47.26414489746094">asignacion</text><text class="token-range" x="0" y="11.5" dx="0" dy="-1.8em">⨳ 3-5</text><text class="token-value" x="0" y="11.5" dy="2.5em" dx="85.5"></text></g><g class="tree-node tree-leaf" transform="translate(-465.5, 240)" style="opacity: 1;"><rect width="171" height="23" rx="10" ry="10"></rect><text class="node-text" y="11.5" dy=".35em" x="69.05683517456055">PYC</text><text class="token-range" x="0" y="11.5" dx="0" dy="-1.8em">⨳ 6</text><text class="token-value" x="0" y="11.5" dy="2.5em" dx="81.1031813621521">;</text></g><g class="tree-node" transform="translate(-4.75, 240)" style="opacity: 1;"><rect width="171" height="23" rx="0" ry="0"></rect><text class="node-text" y="11.5" dy=".35em" x="70.38059520721436">opal</text><text class="token-range" x="0" y="11.5" dx="0" dy="-1.8em">⨳ 7-9</text><text class="token-value" x="0" y="11.5" dy="2.5em" dx="85.5"></text></g><g class="tree-node tree-leaf" transform="translate(498.75, 240)" style="opacity: 1;"><rect width="171" height="23" rx="10" ry="10"></rect><text class="node-text" y="11.5" dy=".35em" x="69.05683517456055">PYC</text><text class="token-range" x="0" y="11.5" dx="0" dy="-1.8em">⨳ 10</text><text class="token-value" x="0" y="11.5" dy="2.5em" dx="81.1031813621521">;</text></g><g class="tree-node" transform="translate(1002.25, 240)" style="opacity: 1;"><rect width="171" height="23" rx="0" ry="0"></rect><text class="node-text" y="11.5" dy=".35em" x="70.38059520721436">opal</text><text class="token-range" x="0" y="11.5" dx="0" dy="-1.8em">⨳ 11-12</text><text class="token-value" x="0" y="11.5" dy="2.5em" dx="85.5"></text></g><g class="tree-node" transform="translate(1192.25, 240)" style="opacity: 1;"><rect width="171" height="23" rx="0" ry="0"></rect><text class="node-text" y="11.5" dy=".35em" x="81.05242681503296">e</text><text class="token-range" x="0" y="11.5" dx="0" dy="-1.8em">⨳ --</text><text class="token-value" x="0" y="11.5" dy="2.5em" dx="85.5"></text></g><g class="tree-node tree-leaf" transform="translate(1382.25, 240)" style="opacity: 1;"><rect width="171" height="23" rx="10" ry="10"></rect><text class="node-text" y="11.5" dy=".35em" x="63.875152587890625">PARC</text><text class="token-range" x="0" y="11.5" dx="0" dy="-1.8em">⨳ 13</text><text class="token-value" x="0" y="11.5" dy="2.5em" dx="81.1031813621521">)</text></g><g class="tree-node" transform="translate(1572.25, 240)" style="opacity: 1;"><rect width="171" height="23" rx="0" ry="0"></rect><text class="node-text" y="11.5" dy=".35em" x="38.829769134521484">instrucciones</text><text class="token-range" x="0" y="11.5" dx="0" dy="-1.8em">⨳ --</text><text class="token-value" x="0" y="11.5" dy="2.5em" dx="85.5"></text></g><g class="tree-node tree-leaf" transform="translate(-1382.25, 300)" style="opacity: 1;"><rect width="171" height="23" rx="10" ry="10"></rect><text class="node-text" y="11.5" dy=".35em" x="72.61802291870117">INT</text><text class="token-range" x="0" y="11.5" dx="0" dy="-1.8em">⨳ 2</text><text class="token-value" x="0" y="11.5" dy="2.5em" dx="72.30954360961914">int</text></g><g class="tree-node tree-leaf" transform="translate(-1116.25, 300)" style="opacity: 1;"><rect width="171" height="23" rx="10" ry="10"></rect><text class="node-text" y="11.5" dy=".35em" x="68.17045021057129">MAS</text><text class="token-range" x="0" y="11.5" dx="0" dy="-1.8em">⨳ 3</text><text class="token-value" x="0" y="11.5" dy="2.5em" dx="81.1031813621521">i</text></g><g class="tree-node tree-leaf" transform="translate(-926.25, 300)" style="opacity: 1;"><rect width="171" height="23" rx="10" ry="10"></rect><text class="node-text" y="11.5" dy=".35em" x="60.6146297454834">ASIGN</text><text class="token-range" x="0" y="11.5" dx="0" dy="-1.8em">⨳ 4</text><text class="token-value" x="0" y="11.5" dy="2.5em" dx="81.1031813621521">=</text></g><g class="tree-node" transform="translate(-736.25, 300)" style="opacity: 1;"><rect width="171" height="23" rx="0" ry="0"></rect><text class="node-text" y="11.5" dy=".35em" x="70.38059520721436">opal</text><text class="token-range" x="0" y="11.5" dx="0" dy="-1.8em">⨳ 5</text><text class="token-value" x="0" y="11.5" dy="2.5em" dx="85.5"></text></g><g class="tree-node" transform="translate(-4.75, 300)" style="opacity: 1;"><rect width="171" height="23" rx="0" ry="0"></rect><text class="node-text" y="11.5" dy=".35em" x="72.60633182525635">exp</text><text class="token-range" x="0" y="11.5" dx="0" dy="-1.8em">⨳ 7-9</text><text class="token-value" x="0" y="11.5" dy="2.5em" dx="85.5"></text></g><g class="tree-node" transform="translate(1002.25, 300)" style="opacity: 1;"><rect width="171" height="23" rx="0" ry="0"></rect><text class="node-text" y="11.5" dy=".35em" x="72.60633182525635">exp</text><text class="token-range" x="0" y="11.5" dx="0" dy="-1.8em">⨳ 11-12</text><text class="token-value" x="0" y="11.5" dy="2.5em" dx="85.5"></text></g><g class="tree-node" transform="translate(-736.25, 360)" style="opacity: 1;"><rect width="171" height="23" rx="0" ry="0"></rect><text class="node-text" y="11.5" dy=".35em" x="72.60633182525635">exp</text><text class="token-range" x="0" y="11.5" dx="0" dy="-1.8em">⨳ 5</text><text class="token-value" x="0" y="11.5" dy="2.5em" dx="85.5"></text></g><g class="tree-node" transform="translate(-280.25, 360)" style="opacity: 1;"><rect width="171" height="23" rx="0" ry="0"></rect><text class="node-text" y="11.5" dy=".35em" x="69.50591278076172">term</text><text class="token-range" x="0" y="11.5" dx="0" dy="-1.8em">⨳ 7</text><text class="token-value" x="0" y="11.5" dy="2.5em" dx="85.5"></text></g><g class="tree-node" transform="translate(270.75, 360)" style="opacity: 1;"><rect width="171" height="23" rx="0" ry="0"></rect><text class="node-text" y="11.5" dy=".35em" x="81.05242681503296">e</text><text class="token-range" x="0" y="11.5" dx="0" dy="-1.8em">⨳ 8-9</text><text class="token-value" x="0" y="11.5" dy="2.5em" dx="85.5"></text></g><g class="tree-node" transform="translate(821.75, 360)" style="opacity: 1;"><rect width="171" height="23" rx="0" ry="0"></rect><text class="node-text" y="11.5" dy=".35em" x="69.50591278076172">term</text><text class="token-range" x="0" y="11.5" dx="0" dy="-1.8em">⨳ 11</text><text class="token-value" x="0" y="11.5" dy="2.5em" dx="85.5"></text></g><g class="tree-node" transform="translate(1182.75, 360)" style="opacity: 1;"><rect width="171" height="23" rx="0" ry="0"></rect><text class="node-text" y="11.5" dy=".35em" x="81.05242681503296">e</text><text class="token-range" x="0" y="11.5" dx="0" dy="-1.8em">⨳ 12</text><text class="token-value" x="0" y="11.5" dy="2.5em" dx="85.5"></text></g><g class="tree-node" transform="translate(-831.25, 420)" style="opacity: 1;"><rect width="171" height="23" rx="0" ry="0"></rect><text class="node-text" y="11.5" dy=".35em" x="69.50591278076172">term</text><text class="token-range" x="0" y="11.5" dx="0" dy="-1.8em">⨳ 5</text><text class="token-value" x="0" y="11.5" dy="2.5em" dx="85.5"></text></g><g class="tree-node" transform="translate(-641.25, 420)" style="opacity: 1;"><rect width="171" height="23" rx="0" ry="0"></rect><text class="node-text" y="11.5" dy=".35em" x="81.05242681503296">e</text><text class="token-range" x="0" y="11.5" dx="0" dy="-1.8em">⨳ --</text><text class="token-value" x="0" y="11.5" dy="2.5em" dx="85.5"></text></g><g class="tree-node" transform="translate(-375.25, 420)" style="opacity: 1;"><rect width="171" height="23" rx="0" ry="0"></rect><text class="node-text" y="11.5" dy=".35em" x="65.49958801269531">factor</text><text class="token-range" x="0" y="11.5" dx="0" dy="-1.8em">⨳ 7</text><text class="token-value" x="0" y="11.5" dy="2.5em" dx="85.5"></text></g><g class="tree-node" transform="translate(-185.25, 420)" style="opacity: 1;"><rect width="171" height="23" rx="0" ry="0"></rect><text class="node-text" y="11.5" dy=".35em" x="83.27816414833069">t</text><text class="token-range" x="0" y="11.5" dx="0" dy="-1.8em">⨳ --</text><text class="token-value" x="0" y="11.5" dy="2.5em" dx="85.5"></text></g><g class="tree-node tree-leaf" transform="translate(80.75, 420)" style="opacity: 1;"><rect width="171" height="23" rx="10" ry="10"></rect><text class="node-text" y="11.5" dy=".35em" x="67.72920036315918">MEN</text><text class="token-range" x="0" y="11.5" dx="0" dy="-1.8em">⨳ 8</text><text class="token-value" x="0" y="11.5" dy="2.5em" dx="81.1031813621521">&lt;</text></g><g class="tree-node" transform="translate(270.75, 420)" style="opacity: 1;"><rect width="171" height="23" rx="0" ry="0"></rect><text class="node-text" y="11.5" dy=".35em" x="69.50591278076172">term</text><text class="token-range" x="0" y="11.5" dx="0" dy="-1.8em">⨳ 9</text><text class="token-value" x="0" y="11.5" dy="2.5em" dx="85.5"></text></g><g class="tree-node" transform="translate(460.75, 420)" style="opacity: 1;"><rect width="171" height="23" rx="0" ry="0"></rect><text class="node-text" y="11.5" dy=".35em" x="81.05242681503296">e</text><text class="token-range" x="0" y="11.5" dx="0" dy="-1.8em">⨳ --</text><text class="token-value" x="0" y="11.5" dy="2.5em" dx="85.5"></text></g><g class="tree-node" transform="translate(726.75, 420)" style="opacity: 1;"><rect width="171" height="23" rx="0" ry="0"></rect><text class="node-text" y="11.5" dy=".35em" x="65.49958801269531">factor</text><text class="token-range" x="0" y="11.5" dx="0" dy="-1.8em">⨳ 11</text><text class="token-value" x="0" y="11.5" dy="2.5em" dx="85.5"></text></g><g class="tree-node" transform="translate(916.75, 420)" style="opacity: 1;"><rect width="171" height="23" rx="0" ry="0"></rect><text class="node-text" y="11.5" dy=".35em" x="83.27816414833069">t</text><text class="token-range" x="0" y="11.5" dx="0" dy="-1.8em">⨳ --</text><text class="token-value" x="0" y="11.5" dy="2.5em" dx="85.5"></text></g><g class="tree-node tree-leaf" transform="translate(1182.75, 420)" style="opacity: 1;"><rect width="171" height="23" rx="10" ry="10"></rect><text class="node-text" y="11.5" dy=".35em" x="65.9525032043457">INCR</text><text class="token-range" x="0" y="11.5" dx="0" dy="-1.8em">⨳ 12</text><text class="token-value" x="0" y="11.5" dy="2.5em" dx="76.7063627243042">++</text></g><g class="tree-node" transform="translate(-926.25, 480)" style="opacity: 1;"><rect width="171" height="23" rx="0" ry="0"></rect><text class="node-text" y="11.5" dy=".35em" x="65.49958801269531">factor</text><text class="token-range" x="0" y="11.5" dx="0" dy="-1.8em">⨳ 5</text><text class="token-value" x="0" y="11.5" dy="2.5em" dx="85.5"></text></g><g class="tree-node" transform="translate(-736.25, 480)" style="opacity: 1;"><rect width="171" height="23" rx="0" ry="0"></rect><text class="node-text" y="11.5" dy=".35em" x="83.27816414833069">t</text><text class="token-range" x="0" y="11.5" dx="0" dy="-1.8em">⨳ --</text><text class="token-value" x="0" y="11.5" dy="2.5em" dx="85.5"></text></g><g class="tree-node tree-leaf" transform="translate(-375.25, 480)" style="opacity: 1;"><rect width="171" height="23" rx="10" ry="10"></rect><text class="node-text" y="11.5" dy=".35em" x="77.50294351577759">ID</text><text class="token-range" x="0" y="11.5" dx="0" dy="-1.8em">⨳ 7</text><text class="token-value" x="0" y="11.5" dy="2.5em" dx="81.1031813621521">i</text></g><g class="tree-node" transform="translate(175.75, 480)" style="opacity: 1;"><rect width="171" height="23" rx="0" ry="0"></rect><text class="node-text" y="11.5" dy=".35em" x="65.49958801269531">factor</text><text class="token-range" x="0" y="11.5" dx="0" dy="-1.8em">⨳ 9</text><text class="token-value" x="0" y="11.5" dy="2.5em" dx="85.5"></text></g><g class="tree-node" transform="translate(365.75, 480)" style="opacity: 1;"><rect width="171" height="23" rx="0" ry="0"></rect><text class="node-text" y="11.5" dy=".35em" x="83.27816414833069">t</text><text class="token-range" x="0" y="11.5" dx="0" dy="-1.8em">⨳ --</text><text class="token-value" x="0" y="11.5" dy="2.5em" dx="85.5"></text></g><g class="tree-node tree-leaf" transform="translate(726.75, 480)" style="opacity: 1;"><rect width="171" height="23" rx="10" ry="10"></rect><text class="node-text" y="11.5" dy=".35em" x="77.50294351577759">ID</text><text class="token-range" x="0" y="11.5" dx="0" dy="-1.8em">⨳ 11</text><text class="token-value" x="0" y="11.5" dy="2.5em" dx="81.1031813621521">i</text></g><g class="tree-node tree-leaf" transform="translate(-926.25, 540)" style="opacity: 1;"><rect width="171" height="23" rx="10" ry="10"></rect><text class="node-text" y="11.5" dy=".35em" x="52.17632293701172">ENTERO</text><text class="token-range" x="0" y="11.5" dx="0" dy="-1.8em">⨳ 5</text><text class="token-value" x="0" y="11.5" dy="2.5em" dx="81.1031813621521">0</text></g><g class="tree-node tree-leaf" transform="translate(175.75, 540)" style="opacity: 1;"><rect width="171" height="23" rx="10" ry="10"></rect><text class="node-text" y="11.5" dy=".35em" x="52.17632293701172">ENTERO</text><text class="token-range" x="0" y="11.5" dx="0" dy="-1.8em">⨳ 9</text><text class="token-value" x="0" y="11.5" dy="2.5em" dx="76.7063627243042">20</text></g></g></svg>