<?xml version="1.0" standalone="no"?>
<?xml-stylesheet href="light.css" type="text/css"?>
<!DOCTYPE svg PUBLIC "-//W3C//DTD SVG 1.1//EN" "http://www.w3.org/Graphics/SVG/1.1/DTD/svg11.dtd">
<svg xmlns="http://www.w3.org/2000/svg" version="1.1" viewBox="0 0 1000 1000"><g transform="translate(188.54529351121255,277.3664565127249) scale(0.3507333516767293)"><path class="tree-link" d="M950,-341C845.5,-341 845.5,-281 845.5,-281" style="stroke-opacity: 1;"></path><path class="tree-link" d="M1710,-281C1605.5,-281 1605.5,-281 1605.5,-281" style="stroke-opacity: 1;"></path><path class="tree-link" d="M190,11.5C85.5,11.5 85.5,11.5 85.5,11.5" style="stroke-opacity: 1;"></path><path class="tree-link" d="M380,-18.5C275.5,-18.5 275.5,11.5 275.5,11.5" style="stroke-opacity: 1;"></path><path class="tree-link" d="M380,41.5C275.5,41.5 275.5,11.5 275.5,11.5" style="stroke-opacity: 1;"></path><path class="tree-link" d="M570,-18.5C465.5,-18.5 465.5,-18.5 465.5,-18.5" style="stroke-opacity: 1;"></path><path class="tree-link" d="M760,-545C655.5,-545 655.5,-18.5 655.5,-18.5" style="stroke-opacity: 1;"></path><path class="tree-link" d="M760,-485C655.5,-485 655.5,-18.5 655.5,-18.5" style="stroke-opacity: 1;"></path><path class="tree-link" d="M760,-425C655.5,-425 655.5,-18.5 655.5,-18.5" style="stroke-opacity: 1;"></path><path class="tree-link" d="M760,-281C655.5,-281 655.5,-18.5 655.5,-18.5" style="stroke-opacity: 1;"></path><path class="tree-link" d="M760,-135.5C655.5,-135.5 655.5,-18.5 655.5,-18.5" style="stroke-opacity: 1;"></path><path class="tree-link" d="M760,10.000000000000085C655.5,10.000000000000085 655.5,-18.5 655.5,-18.5" style="stroke-opacity: 1;"></path><path class="tree-link" d="M760,169C655.5,169 655.5,-18.5 655.5,-18.5" style="stroke-opacity: 1;"></path><path class="tree-link" d="M760,328C655.5,328 655.5,-18.5 655.5,-18.5" style="stroke-opacity: 1;"></path><path class="tree-link" d="M760,388C655.5,388 655.5,-18.5 655.5,-18.5" style="stroke-opacity: 1;"></path><path class="tree-link" d="M760,448C655.5,448 655.5,-18.5 655.5,-18.5" style="stroke-opacity: 1;"></path><path class="tree-link" d="M760,508C655.5,508 655.5,-18.5 655.5,-18.5" style="stroke-opacity: 1;"></path><path class="tree-link" d="M950,-425C845.5,-425 845.5,-425 845.5,-425" style="stroke-opacity: 1;"></path><path class="tree-link" d="M950,-281C845.5,-281 845.5,-281 845.5,-281" style="stroke-opacity: 1;"></path><path class="tree-link" d="M950,-221C845.5,-221 845.5,-281 845.5,-281" style="stroke-opacity: 1;"></path><path class="tree-link" d="M950,10C845.5,10.000000000000028 845.5,10.000000000000085 845.5,10.000000000000085" style="stroke-opacity: 1;"></path><path class="tree-link" d="M950,328.00000000000006C845.5,328.00000000000006 845.5,328 845.5,328" style="stroke-opacity: 1;"></path><path class="tree-link" d="M1140,-221C1035.5,-221 1035.5,-221 1035.5,-221" style="stroke-opacity: 1;"></path><path class="tree-link" d="M1140,-77C1035.5,-77 1035.5,10 1035.5,10" style="stroke-opacity: 1;"></path><path class="tree-link" d="M1140,97C1035.5,97 1035.5,10 1035.5,10" style="stroke-opacity: 1;"></path><path class="tree-link" d="M1140,271.00000000000006C1035.5,271.00000000000006 1035.5,328.00000000000006 1035.5,328.00000000000006" style="stroke-opacity: 1;"></path><path class="tree-link" d="M1140,385.0000000000001C1035.5,385.0000000000001 1035.5,328.00000000000006 1035.5,328.00000000000006" style="stroke-opacity: 1;"></path><path class="tree-link" d="M1330,-251C1225.5,-251 1225.5,-221 1225.5,-221" style="stroke-opacity: 1;"></path><path class="tree-link" d="M1330,-191C1225.5,-191 1225.5,-221 1225.5,-221" style="stroke-opacity: 1;"></path><path class="tree-link" d="M1330,-107C1225.5,-107 1225.5,-77 1225.5,-77" style="stroke-opacity: 1;"></path><path class="tree-link" d="M1330,-47C1225.5,-47 1225.5,-77 1225.5,-77" style="stroke-opacity: 1;"></path><path class="tree-link" d="M1330,37C1225.5,37 1225.5,97 1225.5,97" style="stroke-opacity: 1;"></path><path class="tree-link" d="M1330,97C1225.5,97 1225.5,97 1225.5,97" style="stroke-opacity: 1;"></path><path class="tree-link" d="M1330,157C1225.5,157.00000000000003 1225.5,97 1225.5,97" style="stroke-opacity: 1;"></path><path class="tree-link" d="M1330,241.00000000000006C1225.5,241.00000000000006 1225.5,271.00000000000006 1225.5,271.00000000000006" style="stroke-opacity: 1;"></path><path class="tree-link" d="M1330,301.00000000000006C1225.5,301.00000000000006 1225.5,271.00000000000006 1225.5,271.00000000000006" style="stroke-opacity: 1;"></path><path class="tree-link" d="M1330,385.0000000000001C1225.5,385.0000000000001 1225.5,385.0000000000001 1225.5,385.0000000000001" style="stroke-opacity: 1;"></path><path class="tree-link" d="M1520,-281C1415.5,-281 1415.5,-251 1415.5,-251" style="stroke-opacity: 1;"></path><path class="tree-link" d="M1520,-221C1415.5,-221 1415.5,-251 1415.5,-251" style="stroke-opacity: 1;"></path><path class="tree-link" d="M1520,-107C1415.5,-107 1415.5,-107 1415.5,-107" style="stroke-opacity: 1;"></path><path class="tree-link" d="M1520,67C1415.5,67 1415.5,97 1415.5,97" style="stroke-opacity: 1;"></path><path class="tree-link" d="M1520,127C1415.5,127 1415.5,97 1415.5,97" style="stroke-opacity: 1;"></path><path class="tree-link" d="M1520,241.00000000000006C1415.5,241.00000000000006 1415.5,241.00000000000006 1415.5,241.00000000000006" style="stroke-opacity: 1;"></path><path class="tree-link" d="M1710,67C1605.5,67 1605.5,67 1605.5,67" style="stroke-opacity: 1;"></path><g class="tree-node tree-root" transform="translate(0,0)" style="opacity: 1;"><rect width="171" height="23" rx="0" ry="0"></rect><text class="node-text" y="11.5" dy=".35em" x="51.30281066894531">programa</text><text class="token-range" x="0" y="11.5" dx="0" dy="-1.8em">⨳ 0-13</text><text class="token-value" x="0" y="11.5" dy="0.25em" dx="191"></text></g><g class="tree-node" transform="translate(190, 0)" style="opacity: 1;"><rect width="171" height="23" rx="0" ry="0"></rect><text class="node-text" y="11.5" dy=".35em" x="38.86856460571289">instrucciones</text><text class="token-range" x="0" y="11.5" dx="0" dy="-1.8em">⨳ 0-13</text><text class="token-value" x="0" y="11.5" dy="0.25em" dx="191"></text></g><g class="tree-node" transform="translate(380, -30)" style="opacity: 1;"><rect width="171" height="23" rx="0" ry="0"></rect><text class="node-text" y="11.5" dy=".35em" x="47.307640075683594">instruccion</text><text class="token-range" x="0" y="11.5" dx="0" dy="-1.8em">⨳ 0-13</text><text class="token-value" x="0" y="11.5" dy="0.25em" dx="191"></text></g><g class="tree-node" transform="translate(380, 30)" style="opacity: 1;"><rect width="171" height="23" rx="0" ry="0"></rect><text class="node-text" y="11.5" dy=".35em" x="38.86856460571289">instrucciones</text><text class="token-range" x="0" y="11.5" dx="0" dy="-1.8em">⨳ --</text><text class="token-value" x="0" y="11.5" dy="0.25em" dx="191"></text></g><g class="tree-node" transform="translate(570, -30)" style="opacity: 1;"><rect width="171" height="23" rx="0" ry="0"></rect><text class="node-text" y="11.5" dy=".35em" x="60.19059753417969">ciclofor</text><text class="token-range" x="0" y="11.5" dx="0" dy="-1.8em">⨳ 0-13</text><text class="token-value" x="0" y="11.5" dy="0.25em" dx="191"></text></g><g class="tree-node tree-leaf" transform="translate(760, -556.5)" style="opacity: 1;"><rect width="171" height="23" rx="10" ry="10"></rect><text class="node-text" y="11.5" dy=".35em" x="68.63349533081055">FOR</text><text class="token-range" x="0" y="11.5" dx="0" dy="-1.8em">⨳ 0</text><text class="token-value" x="0" y="11.5" dy="0.25em" dx="191">for</text></g><g class="tree-node tree-leaf" transform="translate(760, -496.5)" style="opacity: 1;"><rect width="171" height="23" rx="10" ry="10"></rect><text class="node-text" y="11.5" dy=".35em" x="64.33403778076172">PARA</text><text class="token-range" x="0" y="11.5" dx="0" dy="-1.8em">⨳ 1</text><text class="token-value" x="0" y="11.5" dy="0.25em" dx="191">(</text></g><g class="tree-node" transform="translate(760, -436.5)" style="opacity: 1;"><rect width="171" height="23" rx="0" ry="0"></rect><text class="node-text" y="11.5" dy=".35em" x="57.06541061401367">tipodato</text><text class="token-range" x="0" y="11.5" dx="0" dy="-1.8em">⨳ 2</text><text class="token-value" x="0" y="11.5" dy="0.25em" dx="191"></text></g><g class="tree-node" transform="translate(760, -292.5)" style="opacity: 1;"><rect width="171" height="23" rx="0" ry="0"></rect><text class="node-text" y="11.5" dy=".35em" x="47.295921325683594">asignacion</text><text class="token-range" x="0" y="11.5" dx="0" dy="-1.8em">⨳ 3-5</text><text class="token-value" x="0" y="11.5" dy="0.25em" dx="191"></text></g><g class="tree-node tree-leaf" transform="translate(760, -147)" style="opacity: 1;"><rect width="171" height="23" rx="10" ry="10"></rect><text class="node-text" y="11.5" dy=".35em" x="69.07051086425781">PYC</text><text class="token-range" x="0" y="11.5" dx="0" dy="-1.8em">⨳ 6</text><text class="token-value" x="0" y="11.5" dy="0.25em" dx="191">;</text></g><g class="tree-node" transform="translate(760, -1.5)" style="opacity: 1;"><rect width="171" height="23" rx="0" ry="0"></rect><text class="node-text" y="11.5" dy=".35em" x="70.39315414428711">opal</text><text class="token-range" x="0" y="11.5" dx="0" dy="-1.8em">⨳ 7-9</text><text class="token-value" x="0" y="11.5" dy="0.25em" dx="191"></text></g><g class="tree-node tree-leaf" transform="translate(760, 157.5)" style="opacity: 1;"><rect width="171" height="23" rx="10" ry="10"></rect><text class="node-text" y="11.5" dy=".35em" x="69.07051086425781">PYC</text><text class="token-range" x="0" y="11.5" dx="0" dy="-1.8em">⨳ 10</text><text class="token-value" x="0" y="11.5" dy="0.25em" dx="191">;</text></g><g class="tree-node" transform="translate(760, 316.5)" style="opacity: 1;"><rect width="171" height="23" rx="0" ry="0"></rect><text class="node-text" y="11.5" dy=".35em" x="70.39315414428711">opal</text><text class="token-range" x="0" y="11.5" dx="0" dy="-1.8em">⨳ 11-12</text><text class="token-value" x="0" y="11.5" dy="0.25em" dx="191"></text></g><g class="tree-node" transform="translate(760, 376.5)" style="opacity: 1;"><rect width="171" height="23" rx="0" ry="0"></rect><text class="node-text" y="11.5" dy=".35em" x="81.05611944198608">e</text><text class="token-range" x="0" y="11.5" dx="0" dy="-1.8em">⨳ --</text><text class="token-value" x="0" y="11.5" dy="0.25em" dx="191"></text></g><g class="tree-node tree-leaf" transform="translate(760, 436.5)" style="opacity: 1;"><rect width="171" height="23" rx="10" ry="10"></rect><text class="node-text" y="11.5" dy=".35em" x="63.89314842224121">PARC</text><text class="token-range" x="0" y="11.5" dx="0" dy="-1.8em">⨳ 13</text><text class="token-value" x="0" y="11.5" dy="0.25em" dx="191">)</text></g><g class="tree-node" transform="translate(760, 496.5)" style="opacity: 1;"><rect width="171" height="23" rx="0" ry="0"></rect><text class="node-text" y="11.5" dy=".35em" x="38.86856460571289">instrucciones</text><text class="token-range" x="0" y="11.5" dx="0" dy="-1.8em">⨳ --</text><text class="token-value" x="0" y="11.5" dy="0.25em" dx="191"></text></g><g class="tree-node tree-leaf" transform="translate(950, -436.5)" style="opacity: 1;"><rect width="171" height="23" rx="10" ry="10"></rect><text class="node-text" y="11.5" dy=".35em" x="72.62871551513672">INT</text><text class="token-range" x="0" y="11.5" dx="0" dy="-1.8em">⨳ 2</text><text class="token-value" x="0" y="11.5" dy="0.25em" dx="191">int</text></g><g class="tree-node tree-leaf" transform="translate(950, -352.5)" style="opacity: 1;"><rect width="171" height="23" rx="10" ry="10"></rect><text class="node-text" y="11.5" dy=".35em" x="68.18486022949219">MAS</text><text class="token-range" x="0" y="11.5" dx="0" dy="-1.8em">⨳ 3</text><text class="token-value" x="0" y="11.5" dy="0.25em" dx="191">i</text></g><g class="tree-node tree-leaf" transform="translate(950, -292.5)" style="opacity: 1;"><rect width="171" height="23" rx="10" ry="10"></rect><text class="node-text" y="11.5" dy=".35em" x="60.635311126708984">ASIGN</text><text class="token-range" x="0" y="11.5" dx="0" dy="-1.8em">⨳ 4</text><text class="token-value" x="0" y="11.5" dy="0.25em" dx="191">=</text></g><g class="tree-node" transform="translate(950, -232.5)" style="opacity: 1;"><rect width="171" height="23" rx="0" ry="0"></rect><text class="node-text" y="11.5" dy=".35em" x="70.39315414428711">opal</text><text class="token-range" x="0" y="11.5" dx="0" dy="-1.8em">⨳ 5</text><text class="token-value" x="0" y="11.5" dy="0.25em" dx="191"></text></g><g class="tree-node" transform="translate(950, -1.5)" style="opacity: 1;"><rect width="171" height="23" rx="0" ry="0"></rect><text class="node-text" y="11.5" dy=".35em" x="72.61704444885254">exp</text><text class="token-range" x="0" y="11.5" dx="0" dy="-1.8em">⨳ 7-9</text><text class="token-value" x="0" y="11.5" dy="0.25em" dx="191"></text></g><g class="tree-node" transform="translate(950, 316.5)" style="opacity: 1;"><rect width="171" height="23" rx="0" ry="0"></rect><text class="node-text" y="11.5" dy=".35em" x="72.61704444885254">exp</text><text class="token-range" x="0" y="11.5" dx="0" dy="-1.8em">⨳ 11-12</text><text class="token-value" x="0" y="11.5" dy="0.25em" dx="191"></text></g><g class="tree-node" transform="translate(1140, -232.5)" style="opacity: 1;"><rect width="171" height="23" rx="0" ry="0"></rect><text class="node-text" y="11.5" dy=".35em" x="72.61704444885254">exp</text><text class="token-range" x="0" y="11.5" dx="0" dy="-1.8em">⨳ 5</text><text class="token-value" x="0" y="11.5" dy="0.25em" dx="191"></text></g><g class="tree-node" transform="translate(1140, -88.5)" style="opacity: 1;"><rect width="171" height="23" rx="0" ry="0"></rect><text class="node-text" y="11.5" dy=".35em" x="69.51919841766357">term</text><text class="token-range" x="0" y="11.5" dx="0" dy="-1.8em">⨳ 7</text><text class="token-value" x="0" y="11.5" dy="0.25em" dx="191"></text></g><g class="tree-node" transform="translate(1140, 85.5)" style="opacity: 1;"><rect width="171" height="23" rx="0" ry="0"></rect><text class="node-text" y="11.5" dy=".35em" x="81.05611944198608">e</text><text class="token-range" x="0" y="11.5" dx="0" dy="-1.8em">⨳ 8-9</text><text class="token-value" x="0" y="11.5" dy="0.25em" dx="191"></text></g><g class="tree-node" transform="translate(1140, 259.5)" style="opacity: 1;"><rect width="171" height="23" rx="0" ry="0"></rect><text class="node-text" y="11.5" dy=".35em" x="69.51919841766357">term</text><text class="token-range" x="0" y="11.5" dx="0" dy="-1.8em">⨳ 11</text><text class="token-value" x="0" y="11.5" dy="0.25em" dx="191"></text></g><g class="tree-node" transform="translate(1140, 373.5)" style="opacity: 1;"><rect width="171" height="23" rx="0" ry="0"></rect><text class="node-text" y="11.5" dy=".35em" x="81.05611944198608">e</text><text class="token-range" x="0" y="11.5" dx="0" dy="-1.8em">⨳ 12</text><text class="token-value" x="0" y="11.5" dy="0.25em" dx="191"></text></g><g class="tree-node" transform="translate(1330, -262.5)" style="opacity: 1;"><rect width="171" height="23" rx="0" ry="0"></rect><text class="node-text" y="11.5" dy=".35em" x="69.51919841766357">term</text><text class="token-range" x="0" y="11.5" dx="0" dy="-1.8em">⨳ 5</text><text class="token-value" x="0" y="11.5" dy="0.25em" dx="191"></text></g><g class="tree-node" transform="translate(1330, -202.5)" style="opacity: 1;"><rect width="171" height="23" rx="0" ry="0"></rect><text class="node-text" y="11.5" dy=".35em" x="81.05611944198608">e</text><text class="token-range" x="0" y="11.5" dx="0" dy="-1.8em">⨳ --</text><text class="token-value" x="0" y="11.5" dy="0.25em" dx="191"></text></g><g class="tree-node" transform="translate(1330, -118.5)" style="opacity: 1;"><rect width="171" height="23" rx="0" ry="0"></rect><text class="node-text" y="11.5" dy=".35em" x="65.51620674133301">factor</text><text class="token-range" x="0" y="11.5" dx="0" dy="-1.8em">⨳ 7</text><text class="token-value" x="0" y="11.5" dy="0.25em" dx="191"></text></g><g class="tree-node" transform="translate(1330, -58.5)" style="opacity: 1;"><rect width="171" height="23" rx="0" ry="0"></rect><text class="node-text" y="11.5" dy=".35em" x="83.28000903129578">t</text><text class="token-range" x="0" y="11.5" dx="0" dy="-1.8em">⨳ --</text><text class="token-value" x="0" y="11.5" dy="0.25em" dx="191"></text></g><g class="tree-node tree-leaf" transform="translate(1330, 25.5)" style="opacity: 1;"><rect width="171" height="23" rx="10" ry="10"></rect><text class="node-text" y="11.5" dy=".35em" x="67.74397087097168">MEN</text><text class="token-range" x="0" y="11.5" dx="0" dy="-1.8em">⨳ 8</text><text class="token-value" x="0" y="11.5" dy="0.25em" dx="191">&lt;</text></g><g class="tree-node" transform="translate(1330, 85.5)" style="opacity: 1;"><rect width="171" height="23" rx="0" ry="0"></rect><text class="node-text" y="11.5" dy=".35em" x="69.51919841766357">term</text><text class="token-range" x="0" y="11.5" dx="0" dy="-1.8em">⨳ 9</text><text class="token-value" x="0" y="11.5" dy="0.25em" dx="191"></text></g><g class="tree-node" transform="translate(1330, 145.5)" style="opacity: 1;"><rect width="171" height="23" rx="0" ry="0"></rect><text class="node-text" y="11.5" dy=".35em" x="81.05611944198608">e</text><text class="token-range" x="0" y="11.5" dx="0" dy="-1.8em">⨳ --</text><text class="token-value" x="0" y="11.5" dy="0.25em" dx="191"></text></g><g class="tree-node" transform="translate(1330, 229.5)" style="opacity: 1;"><rect width="171" height="23" rx="0" ry="0"></rect><text class="node-text" y="11.5" dy=".35em" x="65.51620674133301">factor</text><text class="token-range" x="0" y="11.5" dx="0" dy="-1.8em">⨳ 11</text><text class="token-value" x="0" y="11.5" dy="0.25em" dx="191"></text></g><g class="tree-node" transform="translate(1330, 289.5)" style="opacity: 1;"><rect width="171" height="23" rx="0" ry="0"></rect><text class="node-text" y="11.5" dy=".35em" x="83.28000903129578">t</text><text class="token-range" x="0" y="11.5" dx="0" dy="-1.8em">⨳ --</text><text class="token-value" x="0" y="11.5" dy="0.25em" dx="191"></text></g><g class="tree-node tree-leaf" transform="translate(1330, 373.5)" style="opacity: 1;"><rect width="171" height="23" rx="10" ry="10"></rect><text class="node-text" y="11.5" dy=".35em" x="65.96874237060547">INCR</text><text class="token-range" x="0" y="11.5" dx="0" dy="-1.8em">⨳ 12</text><text class="token-value" x="0" y="11.5" dy="0.25em" dx="191">++</text></g><g class="tree-node" transform="translate(1520, -292.5)" style="opacity: 1;"><rect width="171" height="23" rx="0" ry="0"></rect><text class="node-text" y="11.5" dy=".35em" x="65.51620674133301">factor</text><text class="token-range" x="0" y="11.5" dx="0" dy="-1.8em">⨳ 5</text><text class="token-value" x="0" y="11.5" dy="0.25em" dx="191"></text></g><g class="tree-node" transform="translate(1520, -232.5)" style="opacity: 1;"><rect width="171" height="23" rx="0" ry="0"></rect><text class="node-text" y="11.5" dy=".35em" x="83.28000903129578">t</text><text class="token-range" x="0" y="11.5" dx="0" dy="-1.8em">⨳ --</text><text class="token-value" x="0" y="11.5" dy="0.25em" dx="191"></text></g><g class="tree-node tree-leaf" transform="translate(1520, -118.5)" style="opacity: 1;"><rect width="171" height="23" rx="10" ry="10"></rect><text class="node-text" y="11.5" dy=".35em" x="77.50958681106567">ID</text><text class="token-range" x="0" y="11.5" dx="0" dy="-1.8em">⨳ 7</text><text class="token-value" x="0" y="11.5" dy="0.25em" dx="191">i</text></g><g class="tree-node" transform="translate(1520, 55.5)" style="opacity: 1;"><rect width="171" height="23" rx="0" ry="0"></rect><text class="node-text" y="11.5" dy=".35em" x="65.51620674133301">factor</text><text class="token-range" x="0" y="11.5" dx="0" dy="-1.8em">⨳ 9</text><text class="token-value" x="0" y="11.5" dy="0.25em" dx="191"></text></g><g class="tree-node" transform="translate(1520, 115.5)" style="opacity: 1;"><rect width="171" height="23" rx="0" ry="0"></rect><text class="node-text" y="11.5" dy=".35em" x="83.28000903129578">t</text><text class="token-range" x="0" y="11.5" dx="0" dy="-1.8em">⨳ --</text><text class="token-value" x="0" y="11.5" dy="0.25em" dx="191"></text></g><g class="tree-node tree-leaf" transform="translate(1520, 229.5)" style="opacity: 1;"><rect width="171" height="23" rx="10" ry="10"></rect><text class="node-text" y="11.5" dy=".35em" x="77.50958681106567">ID</text><text class="token-range" x="0" y="11.5" dx="0" dy="-1.8em">⨳ 11</text><text class="token-value" x="0" y="11.5" dy="0.25em" dx="191">i</text></g><g class="tree-node tree-leaf" transform="translate(1710, -292.5)" style="opacity: 1;"><rect width="171" height="23" rx="10" ry="10"></rect><text class="node-text" y="11.5" dy=".35em" x="52.20400619506836">ENTERO</text><text class="token-range" x="0" y="11.5" dx="0" dy="-1.8em">⨳ 5</text><text class="token-value" x="0" y="11.5" dy="0.25em" dx="191">0</text></g><g class="tree-node tree-leaf" transform="translate(1710, 55.5)" style="opacity: 1;"><rect width="171" height="23" rx="10" ry="10"></rect><text class="node-text" y="11.5" dy=".35em" x="52.20400619506836">ENTERO</text><text class="token-range" x="0" y="11.5" dx="0" dy="-1.8em">⨳ 9</text><text class="token-value" x="0" y="11.5" dy="0.25em" dx="191">20</text></g></g></svg>