<?xml version="1.0" standalone="no"?>
<?xml-stylesheet href="light.css" type="text/css"?>
<!DOCTYPE svg PUBLIC "-//W3C//DTD SVG 1.1//EN" "http://www.w3.org/Graphics/SVG/1.1/DTD/svg11.dtd">
<svg xmlns="http://www.w3.org/2000/svg" version="1.1" viewBox="0 0 1000 1000"><g transform="translate(412.41992568216597,127.41312389692172) scale(0.24740773326991894)"><path class="tree-link" d="M66.49999999999994,420C66.49999999999994,360 -28.5,371.5 -28.5,371.5" style="stroke-opacity: 1;"></path><path class="tree-link" d="M85.5,60C85.5,0 85.5,11.5 85.5,11.5" style="stroke-opacity: 1;"></path><path class="tree-link" d="M-1007,120C-1007,60 85.5,71.5 85.5,71.5" style="stroke-opacity: 1;"></path><path class="tree-link" d="M1178,120C1178,60 85.5,71.5 85.5,71.5" style="stroke-opacity: 1;"></path><path class="tree-link" d="M-1102,180C-1102,120 -1007,131.5 -1007,131.5" style="stroke-opacity: 1;"></path><path class="tree-link" d="M-912,180C-912,120 -1007,131.5 -1007,131.5" style="stroke-opacity: 1;"></path><path class="tree-link" d="M351.4999999999999,180C351.4999999999999,120 1178,131.5 1178,131.5" style="stroke-opacity: 1;"></path><path class="tree-link" d="M2004.5,180C2004.5,120 1178,131.5 1178,131.5" style="stroke-opacity: 1;"></path><path class="tree-link" d="M-1482,240C-1482,180 -1102,191.5 -1102,191.5" style="stroke-opacity: 1;"></path><path class="tree-link" d="M-1292,240C-1292,180 -1102,191.5 -1102,191.5" style="stroke-opacity: 1;"></path><path class="tree-link" d="M-1102,240C-1102,180 -1102,191.5 -1102,191.5" style="stroke-opacity: 1;"></path><path class="tree-link" d="M-912,240C-912,180 -1102,191.5 -1102,191.5" style="stroke-opacity: 1;"></path><path class="tree-link" d="M-722,240C-722,180 -1102,191.5 -1102,191.5" style="stroke-opacity: 1;"></path><path class="tree-link" d="M351.4999999999999,240C351.4999999999999,180 351.4999999999999,191.5 351.4999999999999,191.5" style="stroke-opacity: 1;"></path><path class="tree-link" d="M1909.5,240C1909.5,180 2004.5,191.5 2004.5,191.5" style="stroke-opacity: 1;"></path><path class="tree-link" d="M2099.5,240C2099.5,180 2004.5,191.5 2004.5,191.5" style="stroke-opacity: 1;"></path><path class="tree-link" d="M-1482,300C-1482,240 -1482,251.5 -1482,251.5" style="stroke-opacity: 1;"></path><path class="tree-link" d="M-1092.5,300C-1092.5,240 -912,251.5 -912,251.5" style="stroke-opacity: 1;"></path><path class="tree-link" d="M-731.5000000000001,300C-731.5000000000001,240 -912,251.5 -912,251.5" style="stroke-opacity: 1;"></path><path class="tree-link" d="M-370.50000000000006,300C-370.50000000000006,240 351.4999999999999,251.5 351.4999999999999,251.5" style="stroke-opacity: 1;"></path><path class="tree-link" d="M-180.50000000000006,300C-180.50000000000006,240 351.4999999999999,251.5 351.4999999999999,251.5" style="stroke-opacity: 1;"></path><path class="tree-link" d="M9.499999999999929,300C9.499999999999929,240 351.4999999999999,251.5 351.4999999999999,251.5" style="stroke-opacity: 1;"></path><path class="tree-link" d="M199.49999999999994,300C199.49999999999994,240 351.4999999999999,251.5 351.4999999999999,251.5" style="stroke-opacity: 1;"></path><path class="tree-link" d="M636.5000000000001,300C636.5000000000001,240 351.4999999999999,251.5 351.4999999999999,251.5" style="stroke-opacity: 1;"></path><path class="tree-link" d="M1073.5,300C1073.5,240 351.4999999999999,251.5 351.4999999999999,251.5" style="stroke-opacity: 1;"></path><path class="tree-link" d="M1814.5,300C1814.5,240 1909.5,251.5 1909.5,251.5" style="stroke-opacity: 1;"></path><path class="tree-link" d="M2004.5,300C2004.5,240 1909.5,251.5 1909.5,251.5" style="stroke-opacity: 1;"></path><path class="tree-link" d="M-1092.5,360C-1092.5,300 -1092.5,311.5 -1092.5,311.5" style="stroke-opacity: 1;"></path><path class="tree-link" d="M-826.5000000000001,360C-826.5000000000001,300 -731.5000000000001,311.5 -731.5000000000001,311.5" style="stroke-opacity: 1;"></path><path class="tree-link" d="M-636.5000000000001,360C-636.5000000000001,300 -731.5000000000001,311.5 -731.5000000000001,311.5" style="stroke-opacity: 1;"></path><path class="tree-link" d="M-370.50000000000006,360C-370.50000000000006,300 -370.50000000000006,311.5 -370.50000000000006,311.5" style="stroke-opacity: 1;"></path><path class="tree-link" d="M-28.500000000000057,360C-28.500000000000057,300 199.49999999999994,311.5 199.49999999999994,311.5" style="stroke-opacity: 1;"></path><path class="tree-link" d="M427.49999999999994,360C427.49999999999994,300 199.49999999999994,311.5 199.49999999999994,311.5" style="stroke-opacity: 1;"></path><path class="tree-link" d="M883.4999999999999,360C883.4999999999999,300 1073.5,311.5 1073.5,311.5" style="stroke-opacity: 1;"></path><path class="tree-link" d="M1073.5,360C1073.5,300 1073.5,311.5 1073.5,311.5" style="stroke-opacity: 1;"></path><path class="tree-link" d="M1263.4999999999998,360C1263.4999999999998,300 1073.5,311.5 1073.5,311.5" style="stroke-opacity: 1;"></path><path class="tree-link" d="M1529.5,360C1529.5,300 1814.5,311.5 1814.5,311.5" style="stroke-opacity: 1;"></path><path class="tree-link" d="M1719.5,360C1719.5,300 1814.5,311.5 1814.5,311.5" style="stroke-opacity: 1;"></path><path class="tree-link" d="M1909.5,360C1909.5,300 1814.5,311.5 1814.5,311.5" style="stroke-opacity: 1;"></path><path class="tree-link" d="M2099.5,360C2099.5,300 1814.5,311.5 1814.5,311.5" style="stroke-opacity: 1;"></path><path class="tree-link" d="M-731.5000000000001,420C-731.5000000000001,360 -636.5000000000001,371.5 -636.5000000000001,371.5" style="stroke-opacity: 1;"></path><path class="tree-link" d="M-541.5000000000001,420C-541.5000000000001,360 -636.5000000000001,371.5 -636.5000000000001,371.5" style="stroke-opacity: 1;"></path><path class="tree-link" d="M-123.50000000000006,420C-123.50000000000006,360 -28.500000000000057,371.5 -28.500000000000057,371.5" style="stroke-opacity: 1;"></path><path class="tree-link" d="M332.4999999999999,420C332.4999999999999,360 427.49999999999994,371.5 427.49999999999994,371.5" style="stroke-opacity: 1;"></path><path class="tree-link" d="M522.5,420C522.5,360 427.49999999999994,371.5 427.49999999999994,371.5" style="stroke-opacity: 1;"></path><path class="tree-link" d="M978.4999999999999,420C978.4999999999999,360 1073.5,371.5 1073.5,371.5" style="stroke-opacity: 1;"></path><path class="tree-link" d="M1168.4999999999998,420C1168.4999999999998,360 1073.5,371.5 1073.5,371.5" style="stroke-opacity: 1;"></path><path class="tree-link" d="M1814.5,420C1814.5,360 1909.5,371.5 1909.5,371.5" style="stroke-opacity: 1;"></path><path class="tree-link" d="M2004.5,420C2004.5,360 1909.5,371.5 1909.5,371.5" style="stroke-opacity: 1;"></path><path class="tree-link" d="M-731.5000000000001,480C-731.5000000000001,420 -731.5000000000001,431.5 -731.5000000000001,431.5" style="stroke-opacity: 1;"></path><path class="tree-link" d="M-123.50000000000006,480C-123.50000000000006,420 -123.50000000000006,431.5 -123.50000000000006,431.5" style="stroke-opacity: 1;"></path><path class="tree-link" d="M427.49999999999994,480C427.49999999999994,420 522.5,431.5 522.5,431.5" style="stroke-opacity: 1;"></path><path class="tree-link" d="M617.5,480C617.5,420 522.5,431.5 522.5,431.5" style="stroke-opacity: 1;"></path><path class="tree-link" d="M883.4999999999999,480C883.4999999999999,420 978.4999999999999,431.5 978.4999999999999,431.5" style="stroke-opacity: 1;"></path><path class="tree-link" d="M1073.5,480C1073.5,420 978.4999999999999,431.5 978.4999999999999,431.5" style="stroke-opacity: 1;"></path><path class="tree-link" d="M1909.5,480C1909.5,420 2004.5,431.5 2004.5,431.5" style="stroke-opacity: 1;"></path><path class="tree-link" d="M2099.5,480C2099.5,420 2004.5,431.5 2004.5,431.5" style="stroke-opacity: 1;"></path><path class="tree-link" d="M332.4999999999999,540C332.4999999999999,480 427.49999999999994,491.5 427.49999999999994,491.5" style="stroke-opacity: 1;"></path><path class="tree-link" d="M522.5,540C522.5,480 427.49999999999994,491.5 427.49999999999994,491.5" style="stroke-opacity: 1;"></path><path class="tree-link" d="M883.4999999999999,540C883.4999999999999,480 883.4999999999999,491.5 883.4999999999999,491.5" style="stroke-opacity: 1;"></path><path class="tree-link" d="M2004.5,540C2004.5,480 2099.5,491.5 2099.5,491.5" style="stroke-opacity: 1;"></path><path class="tree-link" d="M2194.5,540C2194.5,480 2099.5,491.5 2099.5,491.5" style="stroke-opacity: 1;"></path><path class="tree-link" d="M332.4999999999999,600C332.4999999999999,540 332.4999999999999,551.5 332.4999999999999,551.5" style="stroke-opacity: 1;"></path><path class="tree-link" d="M607.9999999999999,600C607.9999999999999,540 883.4999999999999,551.5 883.4999999999999,551.5" style="stroke-opacity: 1;"></path><path class="tree-link" d="M1158.9999999999998,600C1158.9999999999998,540 883.4999999999999,551.5 883.4999999999999,551.5" style="stroke-opacity: 1;"></path><path class="tree-link" d="M512.9999999999998,660C512.9999999999998,600 607.9999999999999,611.5 607.9999999999999,611.5" style="stroke-opacity: 1;"></path><path class="tree-link" d="M702.9999999999999,660C702.9999999999999,600 607.9999999999999,611.5 607.9999999999999,611.5" style="stroke-opacity: 1;"></path><path class="tree-link" d="M968.9999999999998,660C968.9999999999998,600 1158.9999999999998,611.5 1158.9999999999998,611.5" style="stroke-opacity: 1;"></path><path class="tree-link" d="M1158.9999999999998,660C1158.9999999999998,600 1158.9999999999998,611.5 1158.9999999999998,611.5" style="stroke-opacity: 1;"></path><path class="tree-link" d="M1348.9999999999998,660C1348.9999999999998,600 1158.9999999999998,611.5 1158.9999999999998,611.5" style="stroke-opacity: 1;"></path><path class="tree-link" d="M1063.9999999999998,720C1063.9999999999998,660 1158.9999999999998,671.5 1158.9999999999998,671.5" style="stroke-opacity: 1;"></path><path class="tree-link" d="M1253.9999999999998,720C1253.9999999999998,660 1158.9999999999998,671.5 1158.9999999999998,671.5" style="stroke-opacity: 1;"></path><path class="tree-link" d="M1063.9999999999998,780C1063.9999999999998,720 1063.9999999999998,731.5 1063.9999999999998,731.5" style="stroke-opacity: 1;"></path><path class="tree-link" d="M512.9999999999998,720C512.9999999999998,660 512.9999999999998,671.5 512.9999999999998,671.5" style="stroke-opacity: 1;"></path><g class="tree-node tree-root" transform="translate(0,0)" style="opacity: 1;"><rect width="171" height="23" rx="0" ry="0"></rect><text class="node-text" y="11.5" dy=".35em" x="51.40458297729492">programa</text><text class="token-range" x="0" y="11.5" dx="0" dy="-1.8em">⨳ 0-29</text><text class="token-value" x="0" y="11.5" dy="2.5em" dx="85.5"></text></g><g class="tree-node" transform="translate(0,60)" style="opacity: 1;"><rect width="171" height="23" rx="0" ry="0"></rect><text class="node-text" y="11.5" dy=".35em" x="39.0074577331543">instrucciones</text><text class="token-range" x="0" y="11.5" dx="0" dy="-1.8em">⨳ 0-29</text><text class="token-value" x="0" y="11.5" dy="2.5em" dx="85.5"></text></g><g class="tree-node" transform="translate(-1092.5,120)" style="opacity: 1;"><rect width="171" height="23" rx="0" ry="0"></rect><text class="node-text" y="11.5" dy=".35em" x="47.42141342163086">instruccion</text><text class="token-range" x="0" y="11.5" dx="0" dy="-1.8em">⨳ 0-7</text><text class="token-value" x="0" y="11.5" dy="2.5em" dx="85.5"></text></g><g class="tree-node" transform="translate(1092.5,120)" style="opacity: 1;"><rect width="171" height="23" rx="0" ry="0"></rect><text class="node-text" y="11.5" dy=".35em" x="39.0074577331543">instrucciones</text><text class="token-range" x="0" y="11.5" dx="0" dy="-1.8em">⨳ 8-29</text><text class="token-value" x="0" y="11.5" dy="2.5em" dx="85.5"></text></g><g class="tree-node" transform="translate(-1187.5,180)" style="opacity: 1;"><rect width="171" height="23" rx="0" ry="0"></rect><text class="node-text" y="11.5" dy=".35em" x="14.63690185546875">declaracion_funcion</text><text class="token-range" x="0" y="11.5" dx="0" dy="-1.8em">⨳ 0-6</text><text class="token-value" x="0" y="11.5" dy="2.5em" dx="85.5"></text></g><g class="tree-node tree-leaf" transform="translate(-997.5,180)" style="opacity: 1;"><rect width="171" height="23" rx="10" ry="10"></rect><text class="node-text" y="11.5" dy=".35em" x="69.11937713623047">PYC</text><text class="token-range" x="0" y="11.5" dx="0" dy="-1.8em">⨳ 7</text><text class="token-value" x="0" y="11.5" dy="2.5em" dx="81.11992597579956">;</text></g><g class="tree-node" transform="translate(265.9999999999999,180)" style="opacity: 1;"><rect width="171" height="23" rx="0" ry="0"></rect><text class="node-text" y="11.5" dy=".35em" x="47.42141342163086">instruccion</text><text class="token-range" x="0" y="11.5" dx="0" dy="-1.8em">⨳ 8-22</text><text class="token-value" x="0" y="11.5" dy="2.5em" dx="85.5"></text></g><g class="tree-node" transform="translate(1919,180)" style="opacity: 1;"><rect width="171" height="23" rx="0" ry="0"></rect><text class="node-text" y="11.5" dy=".35em" x="39.0074577331543">instrucciones</text><text class="token-range" x="0" y="11.5" dx="0" dy="-1.8em">⨳ 23-29</text><text class="token-value" x="0" y="11.5" dy="2.5em" dx="85.5"></text></g><g class="tree-node" transform="translate(-1567.5,240)" style="opacity: 1;"><rect width="171" height="23" rx="0" ry="0"></rect><text class="node-text" y="11.5" dy=".35em" x="57.1501350402832">tipodato</text><text class="token-range" x="0" y="11.5" dx="0" dy="-1.8em">⨳ 0</text><text class="token-value" x="0" y="11.5" dy="2.5em" dx="85.5"></text></g><g class="tree-node tree-leaf" transform="translate(-1377.5,240)" style="opacity: 1;"><rect width="171" height="23" rx="10" ry="10"></rect><text class="node-text" y="11.5" dy=".35em" x="77.53340148925781">ID</text><text class="token-range" x="0" y="11.5" dx="0" dy="-1.8em">⨳ 1</text><text class="token-value" x="0" y="11.5" dy="2.5em" dx="67.97970390319824">suma</text></g><g class="tree-node tree-leaf" transform="translate(-1187.5,240)" style="opacity: 1;"><rect width="171" height="23" rx="10" ry="10"></rect><text class="node-text" y="11.5" dy=".35em" x="64.39697074890137">PARA</text><text class="token-range" x="0" y="11.5" dx="0" dy="-1.8em">⨳ 2</text><text class="token-value" x="0" y="11.5" dy="2.5em" dx="81.11992597579956">(</text></g><g class="tree-node" transform="translate(-997.5,240)" style="opacity: 1;"><rect width="171" height="23" rx="0" ry="0"></rect><text class="node-text" y="11.5" dy=".35em" x="54.497215270996094">prototipo</text><text class="token-range" x="0" y="11.5" dx="0" dy="-1.8em">⨳ 3-5</text><text class="token-value" x="0" y="11.5" dy="2.5em" dx="85.5"></text></g><g class="tree-node tree-leaf" transform="translate(-807.5,240)" style="opacity: 1;"><rect width="171" height="23" rx="10" ry="10"></rect><text class="node-text" y="11.5" dy=".35em" x="63.957387924194336">PARC</text><text class="token-range" x="0" y="11.5" dx="0" dy="-1.8em">⨳ 6</text><text class="token-value" x="0" y="11.5" dy="2.5em" dx="81.11992597579956">)</text></g><g class="tree-node" transform="translate(265.9999999999999,240)" style="opacity: 1;"><rect width="171" height="23" rx="0" ry="0"></rect><text class="node-text" y="11.5" dy=".35em" x="59.81083106994629">funcion</text><text class="token-range" x="0" y="11.5" dx="0" dy="-1.8em">⨳ 8-22</text><text class="token-value" x="0" y="11.5" dy="2.5em" dx="85.5"></text></g><g class="tree-node" transform="translate(1824,240)" style="opacity: 1;"><rect width="171" height="23" rx="0" ry="0"></rect><text class="node-text" y="11.5" dy=".35em" x="47.42141342163086">instruccion</text><text class="token-range" x="0" y="11.5" dx="0" dy="-1.8em">⨳ 23-29</text><text class="token-value" x="0" y="11.5" dy="2.5em" dx="85.5"></text></g><g class="tree-node" transform="translate(2014,240)" style="opacity: 1;"><rect width="171" height="23" rx="0" ry="0"></rect><text class="node-text" y="11.5" dy=".35em" x="39.0074577331543">instrucciones</text><text class="token-range" x="0" y="11.5" dx="0" dy="-1.8em">⨳ --</text><text class="token-value" x="0" y="11.5" dy="2.5em" dx="85.5"></text></g><g class="tree-node tree-leaf" transform="translate(-1567.5,300)" style="opacity: 1;"><rect width="171" height="23" rx="10" ry="10"></rect><text class="node-text" y="11.5" dy=".35em" x="72.66708087921143">INT</text><text class="token-range" x="0" y="11.5" dx="0" dy="-1.8em">⨳ 0</text><text class="token-value" x="0" y="11.5" dy="2.5em" dx="72.35977840423584">int</text></g><g class="tree-node" transform="translate(-1178,300)" style="opacity: 1;"><rect width="171" height="23" rx="0" ry="0"></rect><text class="node-text" y="11.5" dy=".35em" x="57.1501350402832">tipodato</text><text class="token-range" x="0" y="11.5" dx="0" dy="-1.8em">⨳ 3</text><text class="token-value" x="0" y="11.5" dy="2.5em" dx="85.5"></text></g><g class="tree-node" transform="translate(-817.0000000000001,300)" style="opacity: 1;"><rect width="171" height="23" rx="0" ry="0"></rect><text class="node-text" y="11.5" dy=".35em" x="54.497215270996094">prototipo</text><text class="token-range" x="0" y="11.5" dx="0" dy="-1.8em">⨳ 4-5</text><text class="token-value" x="0" y="11.5" dy="2.5em" dx="85.5"></text></g><g class="tree-node" transform="translate(-456.00000000000006,300)" style="opacity: 1;"><rect width="171" height="23" rx="0" ry="0"></rect><text class="node-text" y="11.5" dy=".35em" x="57.1501350402832">tipodato</text><text class="token-range" x="0" y="11.5" dx="0" dy="-1.8em">⨳ 8</text><text class="token-value" x="0" y="11.5" dy="2.5em" dx="85.5"></text></g><g class="tree-node tree-leaf" transform="translate(-266.00000000000006,300)" style="opacity: 1;"><rect width="171" height="23" rx="10" ry="10"></rect><text class="node-text" y="11.5" dy=".35em" x="77.53340148925781">ID</text><text class="token-range" x="0" y="11.5" dx="0" dy="-1.8em">⨳ 9</text><text class="token-value" x="0" y="11.5" dy="2.5em" dx="67.97970390319824">suma</text></g><g class="tree-node tree-leaf" transform="translate(-76.00000000000007,300)" style="opacity: 1;"><rect width="171" height="23" rx="10" ry="10"></rect><text class="node-text" y="11.5" dy=".35em" x="64.39697074890137">PARA</text><text class="token-range" x="0" y="11.5" dx="0" dy="-1.8em">⨳ 10</text><text class="token-value" x="0" y="11.5" dy="2.5em" dx="81.11992597579956">(</text></g><g class="tree-node" transform="translate(113.99999999999993,300)" style="opacity: 1;"><rect width="171" height="23" rx="0" ry="0"></rect><text class="node-text" y="11.5" dy=".35em" x="45.20794677734375">parametros</text><text class="token-range" x="0" y="11.5" dx="0" dy="-1.8em">⨳ 11-15</text><text class="token-value" x="0" y="11.5" dy="2.5em" dx="85.5"></text></g><g class="tree-node tree-leaf" transform="translate(551.0000000000001,300)" style="opacity: 1;"><rect width="171" height="23" rx="10" ry="10"></rect><text class="node-text" y="11.5" dy=".35em" x="63.957387924194336">PARC</text><text class="token-range" x="0" y="11.5" dx="0" dy="-1.8em">⨳ 16</text><text class="token-value" x="0" y="11.5" dy="2.5em" dx="81.11992597579956">)</text></g><g class="tree-node" transform="translate(987.9999999999999,300)" style="opacity: 1;"><rect width="171" height="23" rx="0" ry="0"></rect><text class="node-text" y="11.5" dy=".35em" x="61.57680702209473">bloque</text><text class="token-range" x="0" y="11.5" dx="0" dy="-1.8em">⨳ 17-22</text><text class="token-value" x="0" y="11.5" dy="2.5em" dx="85.5"></text></g><g class="tree-node" transform="translate(1729,300)" style="opacity: 1;"><rect width="171" height="23" rx="0" ry="0"></rect><text class="node-text" y="11.5" dy=".35em" x="27.481456756591797">llamada_funcion</text><text class="token-range" x="0" y="11.5" dx="0" dy="-1.8em">⨳ 23-28</text><text class="token-value" x="0" y="11.5" dy="2.5em" dx="85.5"></text></g><g class="tree-node tree-leaf" transform="translate(1919,300)" style="opacity: 1;"><rect width="171" height="23" rx="10" ry="10"></rect><text class="node-text" y="11.5" dy=".35em" x="69.11937713623047">PYC</text><text class="token-range" x="0" y="11.5" dx="0" dy="-1.8em">⨳ 29</text><text class="token-value" x="0" y="11.5" dy="2.5em" dx="81.11992597579956">;</text></g><g class="tree-node tree-leaf" transform="translate(-1178,360)" style="opacity: 1;"><rect width="171" height="23" rx="10" ry="10"></rect><text class="node-text" y="11.5" dy=".35em" x="72.66708087921143">INT</text><text class="token-range" x="0" y="11.5" dx="0" dy="-1.8em">⨳ 3</text><text class="token-value" x="0" y="11.5" dy="2.5em" dx="72.35977840423584">int</text></g><g class="tree-node tree-leaf" transform="translate(-912.0000000000001,360)" style="opacity: 1;"><rect width="171" height="23" rx="10" ry="10"></rect><text class="node-text" y="11.5" dy=".35em" x="61.60007286071777">COMA</text><text class="token-range" x="0" y="11.5" dx="0" dy="-1.8em">⨳ 4</text><text class="token-value" x="0" y="11.5" dy="2.5em" dx="81.11992597579956">,</text></g><g class="tree-node" transform="translate(-722.0000000000001,360)" style="opacity: 1;"><rect width="171" height="23" rx="0" ry="0"></rect><text class="node-text" y="11.5" dy=".35em" x="54.497215270996094">prototipo</text><text class="token-range" x="0" y="11.5" dx="0" dy="-1.8em">⨳ 5</text><text class="token-value" x="0" y="11.5" dy="2.5em" dx="85.5"></text></g><g class="tree-node tree-leaf" transform="translate(-456.00000000000006,360)" style="opacity: 1;"><rect width="171" height="23" rx="10" ry="10"></rect><text class="node-text" y="11.5" dy=".35em" x="72.66708087921143">INT</text><text class="token-range" x="0" y="11.5" dx="0" dy="-1.8em">⨳ 8</text><text class="token-value" x="0" y="11.5" dy="2.5em" dx="72.35977840423584">int</text></g><g class="tree-node" transform="translate(-114.00000000000006,360)" style="opacity: 1;"><rect width="171" height="23" rx="0" ry="0"></rect><text class="node-text" y="11.5" dy=".35em" x="44.75673294067383">declaracion</text><text class="token-range" x="0" y="11.5" dx="0" dy="-1.8em">⨳ 11-12</text><text class="token-value" x="0" y="11.5" dy="2.5em" dx="85.5"></text></g><g class="tree-node" transform="translate(341.99999999999994,360)" style="opacity: 1;"><rect width="171" height="23" rx="0" ry="0"></rect><text class="node-text" y="11.5" dy=".35em" x="45.20794677734375">parametros</text><text class="token-range" x="0" y="11.5" dx="0" dy="-1.8em">⨳ 13-15</text><text class="token-value" x="0" y="11.5" dy="2.5em" dx="85.5"></text></g><g class="tree-node tree-leaf" transform="translate(797.9999999999999,360)" style="opacity: 1;"><rect width="171" height="23" rx="10" ry="10"></rect><text class="node-text" y="11.5" dy=".35em" x="55.97523498535156">LLAVEA</text><text class="token-range" x="0" y="11.5" dx="0" dy="-1.8em">⨳ 17</text><text class="token-value" x="0" y="11.5" dy="2.5em" dx="81.11992597579956">{</text></g><g class="tree-node" transform="translate(987.9999999999999,360)" style="opacity: 1;"><rect width="171" height="23" rx="0" ry="0"></rect><text class="node-text" y="11.5" dy=".35em" x="39.0074577331543">instrucciones</text><text class="token-range" x="0" y="11.5" dx="0" dy="-1.8em">⨳ 18-21</text><text class="token-value" x="0" y="11.5" dy="2.5em" dx="85.5"></text></g><g class="tree-node tree-leaf" transform="translate(1177.9999999999998,360)" style="opacity: 1;"><rect width="171" height="23" rx="10" ry="10"></rect><text class="node-text" y="11.5" dy=".35em" x="55.53565216064453">LLAVEC</text><text class="token-range" x="0" y="11.5" dx="0" dy="-1.8em">⨳ 22</text><text class="token-value" x="0" y="11.5" dy="2.5em" dx="81.11992597579956">}</text></g><g class="tree-node tree-leaf" transform="translate(1444,360)" style="opacity: 1;"><rect width="171" height="23" rx="10" ry="10"></rect><text class="node-text" y="11.5" dy=".35em" x="77.53340148925781">ID</text><text class="token-range" x="0" y="11.5" dx="0" dy="-1.8em">⨳ 23</text><text class="token-value" x="0" y="11.5" dy="2.5em" dx="67.97970390319824">suma</text></g><g class="tree-node tree-leaf" transform="translate(1634,360)" style="opacity: 1;"><rect width="171" height="23" rx="10" ry="10"></rect><text class="node-text" y="11.5" dy=".35em" x="64.39697074890137">PARA</text><text class="token-range" x="0" y="11.5" dx="0" dy="-1.8em">⨳ 24</text><text class="token-value" x="0" y="11.5" dy="2.5em" dx="81.11992597579956">(</text></g><g class="tree-node" transform="translate(1824,360)" style="opacity: 1;"><rect width="171" height="23" rx="0" ry="0"></rect><text class="node-text" y="11.5" dy=".35em" x="43.430206298828125">argumentos</text><text class="token-range" x="0" y="11.5" dx="0" dy="-1.8em">⨳ 25-27</text><text class="token-value" x="0" y="11.5" dy="2.5em" dx="85.5"></text></g><g class="tree-node tree-leaf" transform="translate(2014,360)" style="opacity: 1;"><rect width="171" height="23" rx="10" ry="10"></rect><text class="node-text" y="11.5" dy=".35em" x="63.957387924194336">PARC</text><text class="token-range" x="0" y="11.5" dx="0" dy="-1.8em">⨳ 28</text><text class="token-value" x="0" y="11.5" dy="2.5em" dx="81.11992597579956">)</text></g><g class="tree-node" transform="translate(-817.0000000000001,420)" style="opacity: 1;"><rect width="171" height="23" rx="0" ry="0"></rect><text class="node-text" y="11.5" dy=".35em" x="57.1501350402832">tipodato</text><text class="token-range" x="0" y="11.5" dx="0" dy="-1.8em">⨳ 5</text><text class="token-value" x="0" y="11.5" dy="2.5em" dx="85.5"></text></g><g class="tree-node" transform="translate(-627.0000000000001,420)" style="opacity: 1;"><rect width="171" height="23" rx="0" ry="0"></rect><text class="node-text" y="11.5" dy=".35em" x="54.497215270996094">prototipo</text><text class="token-range" x="0" y="11.5" dx="0" dy="-1.8em">⨳ --</text><text class="token-value" x="0" y="11.5" dy="2.5em" dx="85.5"></text></g><g class="tree-node" transform="translate(-209.00000000000006,420)" style="opacity: 1;"><rect width="171" height="23" rx="0" ry="0"></rect><text class="node-text" y="11.5" dy=".35em" x="57.1501350402832">tipodato</text><text class="token-range" x="0" y="11.5" dx="0" dy="-1.8em">⨳ 11</text><text class="token-value" x="0" y="11.5" dy="2.5em" dx="85.5"></text></g><g class="tree-node tree-leaf" transform="translate(-19, 420)" style="opacity: 1;"><rect width="171" height="23" rx="10" ry="10"></rect><text class="node-text" y="11.5" dy=".35em" x="77.53340148925781">ID</text><text class="token-range" x="0" y="11.5" dx="0" dy="-1.8em">⨳ 12</text><text class="token-value" x="0" y="11.5" dy="2.5em" dx="81.11992597579956">a</text></g><g class="tree-node tree-leaf" transform="translate(246.99999999999991,420)" style="opacity: 1;"><rect width="171" height="23" rx="10" ry="10"></rect><text class="node-text" y="11.5" dy=".35em" x="61.60007286071777">COMA</text><text class="token-range" x="0" y="11.5" dx="0" dy="-1.8em">⨳ 13</text><text class="token-value" x="0" y="11.5" dy="2.5em" dx="81.11992597579956">,</text></g><g class="tree-node" transform="translate(436.99999999999994,420)" style="opacity: 1;"><rect width="171" height="23" rx="0" ry="0"></rect><text class="node-text" y="11.5" dy=".35em" x="45.20794677734375">parametros</text><text class="token-range" x="0" y="11.5" dx="0" dy="-1.8em">⨳ 14-15</text><text class="token-value" x="0" y="11.5" dy="2.5em" dx="85.5"></text></g><g class="tree-node" transform="translate(892.9999999999999,420)" style="opacity: 1;"><rect width="171" height="23" rx="0" ry="0"></rect><text class="node-text" y="11.5" dy=".35em" x="47.42141342163086">instruccion</text><text class="token-range" x="0" y="11.5" dx="0" dy="-1.8em">⨳ 18-21</text><text class="token-value" x="0" y="11.5" dy="2.5em" dx="85.5"></text></g><g class="tree-node" transform="translate(1082.9999999999998,420)" style="opacity: 1;"><rect width="171" height="23" rx="0" ry="0"></rect><text class="node-text" y="11.5" dy=".35em" x="39.0074577331543">instrucciones</text><text class="token-range" x="0" y="11.5" dx="0" dy="-1.8em">⨳ --</text><text class="token-value" x="0" y="11.5" dy="2.5em" dx="85.5"></text></g><g class="tree-node tree-leaf" transform="translate(1729,420)" style="opacity: 1;"><rect width="171" height="23" rx="10" ry="10"></rect><text class="node-text" y="11.5" dy=".35em" x="52.30309295654297">ENTERO</text><text class="token-range" x="0" y="11.5" dx="0" dy="-1.8em">⨳ 25</text><text class="token-value" x="0" y="11.5" dy="2.5em" dx="81.11992597579956">1</text></g><g class="tree-node" transform="translate(1919,420)" style="opacity: 1;"><rect width="171" height="23" rx="0" ry="0"></rect><text class="node-text" y="11.5" dy=".35em" x="43.430206298828125">argumentos</text><text class="token-range" x="0" y="11.5" dx="0" dy="-1.8em">⨳ 26-27</text><text class="token-value" x="0" y="11.5" dy="2.5em" dx="85.5"></text></g><g class="tree-node tree-leaf" transform="translate(-817.0000000000001,480)" style="opacity: 1;"><rect width="171" height="23" rx="10" ry="10"></rect><text class="node-text" y="11.5" dy=".35em" x="72.66708087921143">INT</text><text class="token-range" x="0" y="11.5" dx="0" dy="-1.8em">⨳ 5</text><text class="token-value" x="0" y="11.5" dy="2.5em" dx="72.35977840423584">int</text></g><g class="tree-node tree-leaf" transform="translate(-209.00000000000006,480)" style="opacity: 1;"><rect width="171" height="23" rx="10" ry="10"></rect><text class="node-text" y="11.5" dy=".35em" x="72.66708087921143">INT</text><text class="token-range" x="0" y="11.5" dx="0" dy="-1.8em">⨳ 11</text><text class="token-value" x="0" y="11.5" dy="2.5em" dx="72.35977840423584">int</text></g><g class="tree-node" transform="translate(341.99999999999994,480)" style="opacity: 1;"><rect width="171" height="23" rx="0" ry="0"></rect><text class="node-text" y="11.5" dy=".35em" x="44.75673294067383">declaracion</text><text class="token-range" x="0" y="11.5" dx="0" dy="-1.8em">⨳ 14-15</text><text class="token-value" x="0" y="11.5" dy="2.5em" dx="85.5"></text></g><g class="tree-node" transform="translate(532,480)" style="opacity: 1;"><rect width="171" height="23" rx="0" ry="0"></rect><text class="node-text" y="11.5" dy=".35em" x="45.20794677734375">parametros</text><text class="token-range" x="0" y="11.5" dx="0" dy="-1.8em">⨳ --</text><text class="token-value" x="0" y="11.5" dy="2.5em" dx="85.5"></text></g><g class="tree-node" transform="translate(797.9999999999999,480)" style="opacity: 1;"><rect width="171" height="23" rx="0" ry="0"></rect><text class="node-text" y="11.5" dy=".35em" x="70.43812465667725">opal</text><text class="token-range" x="0" y="11.5" dx="0" dy="-1.8em">⨳ 18-20</text><text class="token-value" x="0" y="11.5" dy="2.5em" dx="85.5"></text></g><g class="tree-node tree-leaf" transform="translate(987.9999999999999,480)" style="opacity: 1;"><rect width="171" height="23" rx="10" ry="10"></rect><text class="node-text" y="11.5" dy=".35em" x="69.11937713623047">PYC</text><text class="token-range" x="0" y="11.5" dx="0" dy="-1.8em">⨳ 21</text><text class="token-value" x="0" y="11.5" dy="2.5em" dx="81.11992597579956">;</text></g><g class="tree-node tree-leaf" transform="translate(1824,480)" style="opacity: 1;"><rect width="171" height="23" rx="10" ry="10"></rect><text class="node-text" y="11.5" dy=".35em" x="61.60007286071777">COMA</text><text class="token-range" x="0" y="11.5" dx="0" dy="-1.8em">⨳ 26</text><text class="token-value" x="0" y="11.5" dy="2.5em" dx="81.11992597579956">,</text></g><g class="tree-node" transform="translate(2014,480)" style="opacity: 1;"><rect width="171" height="23" rx="0" ry="0"></rect><text class="node-text" y="11.5" dy=".35em" x="43.430206298828125">argumentos</text><text class="token-range" x="0" y="11.5" dx="0" dy="-1.8em">⨳ 27</text><text class="token-value" x="0" y="11.5" dy="2.5em" dx="85.5"></text></g><g class="tree-node" transform="translate(246.99999999999991,540)" style="opacity: 1;"><rect width="171" height="23" rx="0" ry="0"></rect><text class="node-text" y="11.5" dy=".35em" x="57.1501350402832">tipodato</text><text class="token-range" x="0" y="11.5" dx="0" dy="-1.8em">⨳ 14</text><text class="token-value" x="0" y="11.5" dy="2.5em" dx="85.5"></text></g><g class="tree-node tree-leaf" transform="translate(436.99999999999994,540)" style="opacity: 1;"><rect width="171" height="23" rx="10" ry="10"></rect><text class="node-text" y="11.5" dy=".35em" x="77.53340148925781">ID</text><text class="token-range" x="0" y="11.5" dx="0" dy="-1.8em">⨳ 15</text><text class="token-value" x="0" y="11.5" dy="2.5em" dx="81.11992597579956">b</text></g><g class="tree-node" transform="translate(797.9999999999999,540)" style="opacity: 1;"><rect width="171" height="23" rx="0" ry="0"></rect><text class="node-text" y="11.5" dy=".35em" x="72.65538215637207">exp</text><text class="token-range" x="0" y="11.5" dx="0" dy="-1.8em">⨳ 18-20</text><text class="token-value" x="0" y="11.5" dy="2.5em" dx="85.5"></text></g><g class="tree-node tree-leaf" transform="translate(1919,540)" style="opacity: 1;"><rect width="171" height="23" rx="10" ry="10"></rect><text class="node-text" y="11.5" dy=".35em" x="52.30309295654297">ENTERO</text><text class="token-range" x="0" y="11.5" dx="0" dy="-1.8em">⨳ 27</text><text class="token-value" x="0" y="11.5" dy="2.5em" dx="81.11992597579956">2</text></g><g class="tree-node" transform="translate(2109,540)" style="opacity: 1;"><rect width="171" height="23" rx="0" ry="0"></rect><text class="node-text" y="11.5" dy=".35em" x="43.430206298828125">argumentos</text><text class="token-range" x="0" y="11.5" dx="0" dy="-1.8em">⨳ --</text><text class="token-value" x="0" y="11.5" dy="2.5em" dx="85.5"></text></g><g class="tree-node tree-leaf" transform="translate(246.99999999999991,600)" style="opacity: 1;"><rect width="171" height="23" rx="10" ry="10"></rect><text class="node-text" y="11.5" dy=".35em" x="72.66708087921143">INT</text><text class="token-range" x="0" y="11.5" dx="0" dy="-1.8em">⨳ 14</text><text class="token-value" x="0" y="11.5" dy="2.5em" dx="72.35977840423584">int</text></g><g class="tree-node" transform="translate(522.4999999999999,600)" style="opacity: 1;"><rect width="171" height="23" rx="0" ry="0"></rect><text class="node-text" y="11.5" dy=".35em" x="69.56680297851562">term</text><text class="token-range" x="0" y="11.5" dx="0" dy="-1.8em">⨳ 18</text><text class="token-value" x="0" y="11.5" dy="2.5em" dx="85.5"></text></g><g class="tree-node" transform="translate(1073.4999999999998,600)" style="opacity: 1;"><rect width="171" height="23" rx="0" ry="0"></rect><text class="node-text" y="11.5" dy=".35em" x="81.06934070587158">e</text><text class="token-range" x="0" y="11.5" dx="0" dy="-1.8em">⨳ 19-20</text><text class="token-value" x="0" y="11.5" dy="2.5em" dx="85.5"></text></g><g class="tree-node" transform="translate(427.49999999999983,660)" style="opacity: 1;"><rect width="171" height="23" rx="0" ry="0"></rect><text class="node-text" y="11.5" dy=".35em" x="65.57579231262207">factor</text><text class="token-range" x="0" y="11.5" dx="0" dy="-1.8em">⨳ 18</text><text class="token-value" x="0" y="11.5" dy="2.5em" dx="85.5"></text></g><g class="tree-node" transform="translate(617.4999999999999,660)" style="opacity: 1;"><rect width="171" height="23" rx="0" ry="0"></rect><text class="node-text" y="11.5" dy=".35em" x="83.28666377067566">t</text><text class="token-range" x="0" y="11.5" dx="0" dy="-1.8em">⨳ --</text><text class="token-value" x="0" y="11.5" dy="2.5em" dx="85.5"></text></g><g class="tree-node tree-leaf" transform="translate(883.4999999999998,660)" style="opacity: 1;"><rect width="171" height="23" rx="10" ry="10"></rect><text class="node-text" y="11.5" dy=".35em" x="68.23635673522949">MAS</text><text class="token-range" x="0" y="11.5" dx="0" dy="-1.8em">⨳ 19</text><text class="token-value" x="0" y="11.5" dy="2.5em" dx="81.11992597579956">+</text></g><g class="tree-node" transform="translate(1073.4999999999998,660)" style="opacity: 1;"><rect width="171" height="23" rx="0" ry="0"></rect><text class="node-text" y="11.5" dy=".35em" x="69.56680297851562">term</text><text class="token-range" x="0" y="11.5" dx="0" dy="-1.8em">⨳ 20</text><text class="token-value" x="0" y="11.5" dy="2.5em" dx="85.5"></text></g><g class="tree-node" transform="translate(1263.4999999999998,660)" style="opacity: 1;"><rect width="171" height="23" rx="0" ry="0"></rect><text class="node-text" y="11.5" dy=".35em" x="81.06934070587158">e</text><text class="token-range" x="0" y="11.5" dx="0" dy="-1.8em">⨳ --</text><text class="token-value" x="0" y="11.5" dy="2.5em" dx="85.5"></text></g><g class="tree-node tree-leaf" transform="translate(427.49999999999983,720)" style="opacity: 1;"><rect width="171" height="23" rx="10" ry="10"></rect><text class="node-text" y="11.5" dy=".35em" x="77.53340148925781">ID</text><text class="token-range" x="0" y="11.5" dx="0" dy="-1.8em">⨳ 18</text><text class="token-value" x="0" y="11.5" dy="2.5em" dx="81.11992597579956">a</text></g><g class="tree-node" transform="translate(978.4999999999998,720)" style="opacity: 1;"><rect width="171" height="23" rx="0" ry="0"></rect><text class="node-text" y="11.5" dy=".35em" x="65.57579231262207">factor</text><text class="token-range" x="0" y="11.5" dx="0" dy="-1.8em">⨳ 20</text><text class="token-value" x="0" y="11.5" dy="2.5em" dx="85.5"></text></g><g class="tree-node" transform="translate(1168.4999999999998,720)" style="opacity: 1;"><rect width="171" height="23" rx="0" ry="0"></rect><text class="node-text" y="11.5" dy=".35em" x="83.28666377067566">t</text><text class="token-range" x="0" y="11.5" dx="0" dy="-1.8em">⨳ --</text><text class="token-value" x="0" y="11.5" dy="2.5em" dx="85.5"></text></g><g class="tree-node tree-leaf" transform="translate(978.4999999999998,780)" style="opacity: 1;"><rect width="171" height="23" rx="10" ry="10"></rect><text class="node-text" y="11.5" dy=".35em" x="77.53340148925781">ID</text><text class="token-range" x="0" y="11.5" dx="0" dy="-1.8em">⨳ 20</text><text class="token-value" x="0" y="11.5" dy="2.5em" dx="81.11992597579956">b</text></g></g></svg>