<?xml version="1.0" standalone="no"?>
<?xml-stylesheet href="light.css" type="text/css"?>
<!DOCTYPE svg PUBLIC "-//W3C//DTD SVG 1.1//EN" "http://www.w3.org/Graphics/SVG/1.1/DTD/svg11.dtd">
<svg xmlns="http://www.w3.org/2000/svg" version="1.1" viewBox="0 0 1000 1000"><g transform="translate(467.66068151256934,73.54865839289084) scale(0.43076188312389035)"><path class="tree-link" d="M-931.0000000000001,240C-931.0000000000001,180 -9.5,191.5 -9.5,191.5" style="stroke-opacity: 1;"></path><path class="tree-link" d="M-741.0000000000001,240C-741.0000000000001,180 -9.5,191.5 -9.5,191.5" style="stroke-opacity: 1;"></path><path class="tree-link" d="M0,240C0,180 -9.5,191.5 -9.5,191.5" style="stroke-opacity: 1;"></path><path class="tree-link" d="M-465.5000000000001,420C-465.5000000000001,360 -275.50000000000017,371.5 -275.50000000000017,371.5" style="stroke-opacity: 1;"></path><path class="tree-link" d="M-921.5000000000001,480C-921.5000000000001,420 -921.5000000000001,431.5 -921.5000000000001,431.5" style="stroke-opacity: 1;"></path><path class="tree-link" d="M-370.50000000000017,540C-370.50000000000017,480 -370.50000000000017,491.5 -370.50000000000017,491.5" style="stroke-opacity: 1;"></path><path class="tree-link" d="M85.49999999999983,360C85.49999999999983,300 275.49999999999983,311.5 275.49999999999983,311.5" style="stroke-opacity: 1;"></path><path class="tree-link" d="M465.49999999999983,360C465.49999999999983,300 275.49999999999983,311.5 275.49999999999983,311.5" style="stroke-opacity: 1;"></path><path class="tree-link" d="M275.49999999999983,480C275.49999999999983,420 180.49999999999983,431.5 180.49999999999983,431.5" style="stroke-opacity: 1;"></path><path class="tree-link" d="M265.9999999999998,660C265.9999999999998,600 265.9999999999998,611.5 265.9999999999998,611.5" style="stroke-opacity: 1;"></path><path class="tree-link" d="M-190.0000000000002,720C-190.0000000000002,660 -190.0000000000002,671.5 -190.0000000000002,671.5" style="stroke-opacity: 1;"></path><path class="tree-link" d="M85.5,60C85.5,0 85.5,11.5 85.5,11.5" style="stroke-opacity: 1;"></path><path class="tree-link" d="M-9.5,120C-9.5,60 85.5,71.5 85.5,71.5" style="stroke-opacity: 1;"></path><path class="tree-link" d="M180.5,120C180.5,60 85.5,71.5 85.5,71.5" style="stroke-opacity: 1;"></path><path class="tree-link" d="M-9.5,180C-9.5,120 -9.5,131.5 -9.5,131.5" style="stroke-opacity: 1;"></path><path class="tree-link" d="M-551.0000000000001,240C-551.0000000000001,180 -9.5,191.5 -9.5,191.5" style="stroke-opacity: 1;"></path><path class="tree-link" d="M-275.50000000000006,240C-275.50000000000006,180 -9.5,191.5 -9.5,191.5" style="stroke-opacity: 1;"></path><path class="tree-link" d="M275.49999999999983,240C275.49999999999983,180 -9.5,191.5 -9.5,191.5" style="stroke-opacity: 1;"></path><path class="tree-link" d="M593.75,240C593.75,180 -9.5,191.5 -9.5,191.5" style="stroke-opacity: 1;"></path><path class="tree-link" d="M912.0000000000001,240C912.0000000000001,180 -9.5,191.5 -9.5,191.5" style="stroke-opacity: 1;"></path><path class="tree-link" d="M-551.0000000000001,300C-551.0000000000001,240 -551.0000000000001,251.5 -551.0000000000001,251.5" style="stroke-opacity: 1;"></path><path class="tree-link" d="M275.49999999999983,300C275.49999999999983,240 275.49999999999983,251.5 275.49999999999983,251.5" style="stroke-opacity: 1;"></path><path class="tree-link" d="M816.9999999999999,300C816.9999999999999,240 912.0000000000001,251.5 912.0000000000001,251.5" style="stroke-opacity: 1;"></path><path class="tree-link" d="M1006.9999999999999,300C1006.9999999999999,240 912.0000000000001,251.5 912.0000000000001,251.5" style="stroke-opacity: 1;"></path><path class="tree-link" d="M-826.5000000000001,360C-826.5000000000001,300 -551.0000000000001,311.5 -551.0000000000001,311.5" style="stroke-opacity: 1;"></path><path class="tree-link" d="M-275.50000000000017,360C-275.50000000000017,300 -551.0000000000001,311.5 -551.0000000000001,311.5" style="stroke-opacity: 1;"></path><path class="tree-link" d="M275.49999999999983,360C275.49999999999983,300 275.49999999999983,311.5 275.49999999999983,311.5" style="stroke-opacity: 1;"></path><path class="tree-link" d="M816.9999999999999,360C816.9999999999999,300 816.9999999999999,311.5 816.9999999999999,311.5" style="stroke-opacity: 1;"></path><path class="tree-link" d="M-921.5000000000001,420C-921.5000000000001,360 -826.5000000000001,371.5 -826.5000000000001,371.5" style="stroke-opacity: 1;"></path><path class="tree-link" d="M-731.5000000000001,420C-731.5000000000001,360 -826.5000000000001,371.5 -826.5000000000001,371.5" style="stroke-opacity: 1;"></path><path class="tree-link" d="M-275.50000000000017,420C-275.50000000000017,360 -275.50000000000017,371.5 -275.50000000000017,371.5" style="stroke-opacity: 1;"></path><path class="tree-link" d="M-85.50000000000014,420C-85.50000000000014,360 -275.50000000000017,371.5 -275.50000000000017,371.5" style="stroke-opacity: 1;"></path><path class="tree-link" d="M180.49999999999983,420C180.49999999999983,360 275.49999999999983,371.5 275.49999999999983,371.5" style="stroke-opacity: 1;"></path><path class="tree-link" d="M370.49999999999983,420C370.49999999999983,360 275.49999999999983,371.5 275.49999999999983,371.5" style="stroke-opacity: 1;"></path><path class="tree-link" d="M636.4999999999999,420C636.4999999999999,360 816.9999999999999,371.5 816.9999999999999,371.5" style="stroke-opacity: 1;"></path><path class="tree-link" d="M997.4999999999998,420C997.4999999999998,360 816.9999999999999,371.5 816.9999999999999,371.5" style="stroke-opacity: 1;"></path><path class="tree-link" d="M-370.50000000000017,480C-370.50000000000017,420 -275.50000000000017,431.5 -275.50000000000017,431.5" style="stroke-opacity: 1;"></path><path class="tree-link" d="M-180.50000000000017,480C-180.50000000000017,420 -275.50000000000017,431.5 -275.50000000000017,431.5" style="stroke-opacity: 1;"></path><path class="tree-link" d="M85.49999999999979,480C85.49999999999979,420 180.49999999999983,431.5 180.49999999999983,431.5" style="stroke-opacity: 1;"></path><path class="tree-link" d="M541.4999999999999,480C541.4999999999999,420 636.4999999999999,431.5 636.4999999999999,431.5" style="stroke-opacity: 1;"></path><path class="tree-link" d="M731.4999999999999,480C731.4999999999999,420 636.4999999999999,431.5 636.4999999999999,431.5" style="stroke-opacity: 1;"></path><path class="tree-link" d="M997.4999999999998,480C997.4999999999998,420 997.4999999999998,431.5 997.4999999999998,431.5" style="stroke-opacity: 1;"></path><path class="tree-link" d="M85.49999999999979,540C85.49999999999979,480 85.49999999999979,491.5 85.49999999999979,491.5" style="stroke-opacity: 1;"></path><path class="tree-link" d="M541.4999999999999,540C541.4999999999999,480 541.4999999999999,491.5 541.4999999999999,491.5" style="stroke-opacity: 1;"></path><path class="tree-link" d="M-95.0000000000002,600C-95.0000000000002,540 85.49999999999979,551.5 85.49999999999979,551.5" style="stroke-opacity: 1;"></path><path class="tree-link" d="M265.9999999999998,600C265.9999999999998,540 85.49999999999979,551.5 85.49999999999979,551.5" style="stroke-opacity: 1;"></path><path class="tree-link" d="M-190.00000000000023,660C-190.00000000000023,600 -95.0000000000002,611.5 -95.0000000000002,611.5" style="stroke-opacity: 1;"></path><path class="tree-link" d="M-1.9895196601282805e-13,660C-1.9895196601282805e-13,600 -95.0000000000002,611.5 -95.0000000000002,611.5" style="stroke-opacity: 1;"></path><g class="tree-node tree-root" transform="translate(0,0)" style="opacity: 1;"><rect width="171" height="23" rx="0" ry="0"></rect><text class="node-text" y="11.5" dy=".35em" x="51.266170501708984">programa</text><text class="token-range" x="0" y="11.5" dx="0" dy="-1.8em">⨳ 0-14</text><text class="token-value" x="0" y="11.5" dy="2.5em" dx="85.5"></text></g><g class="tree-node" transform="translate(0,60)" style="opacity: 1;"><rect width="171" height="23" rx="0" ry="0"></rect><text class="node-text" y="11.5" dy=".35em" x="38.818546295166016">instrucciones</text><text class="token-range" x="0" y="11.5" dx="0" dy="-1.8em">⨳ 0-14</text><text class="token-value" x="0" y="11.5" dy="2.5em" dx="85.5"></text></g><g class="tree-node" transform="translate(-95,120)" style="opacity: 1;"><rect width="171" height="23" rx="0" ry="0"></rect><text class="node-text" y="11.5" dy=".35em" x="47.26668167114258">instruccion</text><text class="token-range" x="0" y="11.5" dx="0" dy="-1.8em">⨳ 0-14</text><text class="token-value" x="0" y="11.5" dy="2.5em" dx="85.5"></text></g><g class="tree-node" transform="translate(95,120)" style="opacity: 1;"><rect width="171" height="23" rx="0" ry="0"></rect><text class="node-text" y="11.5" dy=".35em" x="38.818546295166016">instrucciones</text><text class="token-range" x="0" y="11.5" dx="0" dy="-1.8em">⨳ --</text><text class="token-value" x="0" y="11.5" dy="2.5em" dx="85.5"></text></g><g class="tree-node" transform="translate(-95,180)" style="opacity: 1;"><rect width="171" height="23" rx="0" ry="0"></rect><text class="node-text" y="11.5" dy=".35em" x="64.15511322021484">condif</text><text class="token-range" x="0" y="11.5" dx="0" dy="-1.8em">⨳ 0-14</text><text class="token-value" x="0" y="11.5" dy="2.5em" dx="85.5"></text></g><g class="tree-node tree-leaf" transform="translate(-1016.5, 240)" style="opacity: 1;"><rect width="171" height="23" rx="10" ry="10"></rect><text class="node-text" y="11.5" dy=".35em" x="78.39155626296997">IF</text><text class="token-range" x="0" y="11.5" dx="0" dy="-1.8em">⨳ 0</text><text class="token-value" x="0" y="11.5" dy="2.5em" dx="76.7042875289917">if</text></g><g class="tree-node tree-leaf" transform="translate(-826.5, 240)" style="opacity: 1;"><rect width="171" height="23" rx="10" ry="10"></rect><text class="node-text" y="11.5" dy=".35em" x="64.31133270263672">PARA</text><text class="token-range" x="0" y="11.5" dx="0" dy="-1.8em">⨳ 1</text><text class="token-value" x="0" y="11.5" dy="2.5em" dx="81.10214376449585">(</text></g><g class="tree-node" transform="translate(-636.5000000000001,240)" style="opacity: 1;"><rect width="171" height="23" rx="0" ry="0"></rect><text class="node-text" y="11.5" dy=".35em" x="70.37697124481201">opal</text><text class="token-range" x="0" y="11.5" dx="0" dy="-1.8em">⨳ 2-4</text><text class="token-value" x="0" y="11.5" dy="2.5em" dx="85.5"></text></g><g class="tree-node" transform="translate(-361.00000000000006,240)" style="opacity: 1;"><rect width="171" height="23" rx="0" ry="0"></rect><text class="node-text" y="11.5" dy=".35em" x="81.05135679244995">e</text><text class="token-range" x="0" y="11.5" dx="0" dy="-1.8em">⨳ --</text><text class="token-value" x="0" y="11.5" dy="2.5em" dx="85.5"></text></g><g class="tree-node tree-leaf" transform="translate(-85.5, 240)" style="opacity: 1;"><rect width="171" height="23" rx="10" ry="10"></rect><text class="node-text" y="11.5" dy=".35em" x="63.86999320983887">PARC</text><text class="token-range" x="0" y="11.5" dx="0" dy="-1.8em">⨳ 5</text><text class="token-value" x="0" y="11.5" dy="2.5em" dx="81.10214376449585">)</text></g><g class="tree-node" transform="translate(731.4999999999999,360)" style="opacity: 1;"><rect width="171" height="23" rx="0" ry="0"></rect><text class="node-text" y="11.5" dy=".35em" x="72.60322284698486">exp</text><text class="token-range" x="0" y="11.5" dx="0" dy="-1.8em">⨳ 12-13</text><text class="token-value" x="0" y="11.5" dy="2.5em" dx="85.5"></text></g><g class="tree-node" transform="translate(-1007.0000000000001,420)" style="opacity: 1;"><rect width="171" height="23" rx="0" ry="0"></rect><text class="node-text" y="11.5" dy=".35em" x="65.49477958679199">factor</text><text class="token-range" x="0" y="11.5" dx="0" dy="-1.8em">⨳ 2</text><text class="token-value" x="0" y="11.5" dy="2.5em" dx="85.5"></text></g><g class="tree-node" transform="translate(-817.0000000000001,420)" style="opacity: 1;"><rect width="171" height="23" rx="0" ry="0"></rect><text class="node-text" y="11.5" dy=".35em" x="83.27763175964355">t</text><text class="token-range" x="0" y="11.5" dx="0" dy="-1.8em">⨳ --</text><text class="token-value" x="0" y="11.5" dy="2.5em" dx="85.5"></text></g><g class="tree-node tree-leaf" transform="translate(-551, 420)" style="opacity: 1;"><rect width="171" height="23" rx="10" ry="10"></rect><text class="node-text" y="11.5" dy=".35em" x="67.72496032714844">MEN</text><text class="token-range" x="0" y="11.5" dx="0" dy="-1.8em">⨳ 3</text><text class="token-value" x="0" y="11.5" dy="2.5em" dx="81.10214376449585">&lt;</text></g><g class="tree-node" transform="translate(189.99999999999983,240)" style="opacity: 1;"><rect width="171" height="23" rx="0" ry="0"></rect><text class="node-text" y="11.5" dy=".35em" x="47.26668167114258">instruccion</text><text class="token-range" x="0" y="11.5" dx="0" dy="-1.8em">⨳ 6-10</text><text class="token-value" x="0" y="11.5" dy="2.5em" dx="85.5"></text></g><g class="tree-node tree-leaf" transform="translate(508.24999999999994,240)" style="opacity: 1;"><rect width="171" height="23" rx="10" ry="10"></rect><text class="node-text" y="11.5" dy=".35em" x="65.04560470581055">ELSE</text><text class="token-range" x="0" y="11.5" dx="0" dy="-1.8em">⨳ 11</text><text class="token-value" x="0" y="11.5" dy="2.5em" dx="67.9085750579834">else</text></g><g class="tree-node" transform="translate(826.5000000000001,240)" style="opacity: 1;"><rect width="171" height="23" rx="0" ry="0"></rect><text class="node-text" y="11.5" dy=".35em" x="47.26668167114258">instruccion</text><text class="token-range" x="0" y="11.5" dx="0" dy="-1.8em">⨳ 12-14</text><text class="token-value" x="0" y="11.5" dy="2.5em" dx="85.5"></text></g><g class="tree-node" transform="translate(-636.5000000000001,300)" style="opacity: 1;"><rect width="171" height="23" rx="0" ry="0"></rect><text class="node-text" y="11.5" dy=".35em" x="72.60322284698486">exp</text><text class="token-range" x="0" y="11.5" dx="0" dy="-1.8em">⨳ 2-4</text><text class="token-value" x="0" y="11.5" dy="2.5em" dx="85.5"></text></g><g class="tree-node" transform="translate(189.99999999999983,300)" style="opacity: 1;"><rect width="171" height="23" rx="0" ry="0"></rect><text class="node-text" y="11.5" dy=".35em" x="61.479684829711914">bloque</text><text class="token-range" x="0" y="11.5" dx="0" dy="-1.8em">⨳ 6-10</text><text class="token-value" x="0" y="11.5" dy="2.5em" dx="85.5"></text></g><g class="tree-node" transform="translate(731.4999999999999,300)" style="opacity: 1;"><rect width="171" height="23" rx="0" ry="0"></rect><text class="node-text" y="11.5" dy=".35em" x="70.37697124481201">opal</text><text class="token-range" x="0" y="11.5" dx="0" dy="-1.8em">⨳ 12-13</text><text class="token-value" x="0" y="11.5" dy="2.5em" dx="85.5"></text></g><g class="tree-node tree-leaf" transform="translate(921.4999999999999,300)" style="opacity: 1;"><rect width="171" height="23" rx="10" ry="10"></rect><text class="node-text" y="11.5" dy=".35em" x="69.05290794372559">PYC</text><text class="token-range" x="0" y="11.5" dx="0" dy="-1.8em">⨳ 14</text><text class="token-value" x="0" y="11.5" dy="2.5em" dx="81.10214376449585">;</text></g><g class="tree-node" transform="translate(-912.0000000000001,360)" style="opacity: 1;"><rect width="171" height="23" rx="0" ry="0"></rect><text class="node-text" y="11.5" dy=".35em" x="69.50208377838135">term</text><text class="token-range" x="0" y="11.5" dx="0" dy="-1.8em">⨳ 2</text><text class="token-value" x="0" y="11.5" dy="2.5em" dx="85.5"></text></g><g class="tree-node" transform="translate(-361.00000000000017,360)" style="opacity: 1;"><rect width="171" height="23" rx="0" ry="0"></rect><text class="node-text" y="11.5" dy=".35em" x="81.05135679244995">e</text><text class="token-range" x="0" y="11.5" dx="0" dy="-1.8em">⨳ 3-4</text><text class="token-value" x="0" y="11.5" dy="2.5em" dx="85.5"></text></g><g class="tree-node tree-leaf" transform="translate(-1.7053025658242404e-13, 360)" style="opacity: 1;"><rect width="171" height="23" rx="10" ry="10"></rect><text class="node-text" y="11.5" dy=".35em" x="55.85538673400879">LLAVEA</text><text class="token-range" x="0" y="11.5" dx="0" dy="-1.8em">⨳ 6</text><text class="token-value" x="0" y="11.5" dy="2.5em" dx="81.10214376449585">{</text></g><g class="tree-node" transform="translate(189.99999999999983,360)" style="opacity: 1;"><rect width="171" height="23" rx="0" ry="0"></rect><text class="node-text" y="11.5" dy=".35em" x="38.818546295166016">instrucciones</text><text class="token-range" x="0" y="11.5" dx="0" dy="-1.8em">⨳ 7-9</text><text class="token-value" x="0" y="11.5" dy="2.5em" dx="85.5"></text></g><g class="tree-node tree-leaf" transform="translate(380, 360)" style="opacity: 1;"><rect width="171" height="23" rx="10" ry="10"></rect><text class="node-text" y="11.5" dy=".35em" x="55.41404724121094">LLAVEC</text><text class="token-range" x="0" y="11.5" dx="0" dy="-1.8em">⨳ 10</text><text class="token-value" x="0" y="11.5" dy="2.5em" dx="81.10214376449585">}</text></g><g class="tree-node" transform="translate(-361.00000000000017,420)" style="opacity: 1;"><rect width="171" height="23" rx="0" ry="0"></rect><text class="node-text" y="11.5" dy=".35em" x="69.50208377838135">term</text><text class="token-range" x="0" y="11.5" dx="0" dy="-1.8em">⨳ 4</text><text class="token-value" x="0" y="11.5" dy="2.5em" dx="85.5"></text></g><g class="tree-node" transform="translate(-171.00000000000014,420)" style="opacity: 1;"><rect width="171" height="23" rx="0" ry="0"></rect><text class="node-text" y="11.5" dy=".35em" x="81.05135679244995">e</text><text class="token-range" x="0" y="11.5" dx="0" dy="-1.8em">⨳ --</text><text class="token-value" x="0" y="11.5" dy="2.5em" dx="85.5"></text></g><g class="tree-node" transform="translate(94.99999999999983,420)" style="opacity: 1;"><rect width="171" height="23" rx="0" ry="0"></rect><text class="node-text" y="11.5" dy=".35em" x="47.26668167114258">instruccion</text><text class="token-range" x="0" y="11.5" dx="0" dy="-1.8em">⨳ 7-9</text><text class="token-value" x="0" y="11.5" dy="2.5em" dx="85.5"></text></g><g class="tree-node" transform="translate(284.99999999999983,420)" style="opacity: 1;"><rect width="171" height="23" rx="0" ry="0"></rect><text class="node-text" y="11.5" dy=".35em" x="38.818546295166016">instrucciones</text><text class="token-range" x="0" y="11.5" dx="0" dy="-1.8em">⨳ --</text><text class="token-value" x="0" y="11.5" dy="2.5em" dx="85.5"></text></g><g class="tree-node" transform="translate(550.9999999999999,420)" style="opacity: 1;"><rect width="171" height="23" rx="0" ry="0"></rect><text class="node-text" y="11.5" dy=".35em" x="69.50208377838135">term</text><text class="token-range" x="0" y="11.5" dx="0" dy="-1.8em">⨳ 12</text><text class="token-value" x="0" y="11.5" dy="2.5em" dx="85.5"></text></g><g class="tree-node" transform="translate(911.9999999999998,420)" style="opacity: 1;"><rect width="171" height="23" rx="0" ry="0"></rect><text class="node-text" y="11.5" dy=".35em" x="81.05135679244995">e</text><text class="token-range" x="0" y="11.5" dx="0" dy="-1.8em">⨳ 13</text><text class="token-value" x="0" y="11.5" dy="2.5em" dx="85.5"></text></g><g class="tree-node tree-leaf" transform="translate(-1007, 480)" style="opacity: 1;"><rect width="171" height="23" rx="10" ry="10"></rect><text class="node-text" y="11.5" dy=".35em" x="77.50104188919067">ID</text><text class="token-range" x="0" y="11.5" dx="0" dy="-1.8em">⨳ 2</text><text class="token-value" x="0" y="11.5" dy="2.5em" dx="81.10214376449585">i</text></g><g class="tree-node" transform="translate(455.9999999999999,480)" style="opacity: 1;"><rect width="171" height="23" rx="0" ry="0"></rect><text class="node-text" y="11.5" dy=".35em" x="65.49477958679199">factor</text><text class="token-range" x="0" y="11.5" dx="0" dy="-1.8em">⨳ 12</text><text class="token-value" x="0" y="11.5" dy="2.5em" dx="85.5"></text></g><g class="tree-node" transform="translate(645.9999999999999,480)" style="opacity: 1;"><rect width="171" height="23" rx="0" ry="0"></rect><text class="node-text" y="11.5" dy=".35em" x="83.27763175964355">t</text><text class="token-range" x="0" y="11.5" dx="0" dy="-1.8em">⨳ --</text><text class="token-value" x="0" y="11.5" dy="2.5em" dx="85.5"></text></g><g class="tree-node tree-leaf" transform="translate(911.9999999999998,480)" style="opacity: 1;"><rect width="171" height="23" rx="10" ry="10"></rect><text class="node-text" y="11.5" dy=".35em" x="62.834978103637695">DECR</text><text class="token-range" x="0" y="11.5" dx="0" dy="-1.8em">⨳ 13</text><text class="token-value" x="0" y="11.5" dy="2.5em" dx="76.7042875289917">--</text></g><g class="tree-node tree-leaf" transform="translate(-456, 540)" style="opacity: 1;"><rect width="171" height="23" rx="10" ry="10"></rect><text class="node-text" y="11.5" dy=".35em" x="52.16838455200195">ENTERO</text><text class="token-range" x="0" y="11.5" dx="0" dy="-1.8em">⨳ 4</text><text class="token-value" x="0" y="11.5" dy="2.5em" dx="76.7042875289917">10</text></g><g class="tree-node" transform="translate(-456.00000000000017,480)" style="opacity: 1;"><rect width="171" height="23" rx="0" ry="0"></rect><text class="node-text" y="11.5" dy=".35em" x="65.49477958679199">factor</text><text class="token-range" x="0" y="11.5" dx="0" dy="-1.8em">⨳ 4</text><text class="token-value" x="0" y="11.5" dy="2.5em" dx="85.5"></text></g><g class="tree-node" transform="translate(-266.00000000000017,480)" style="opacity: 1;"><rect width="171" height="23" rx="0" ry="0"></rect><text class="node-text" y="11.5" dy=".35em" x="83.27763175964355">t</text><text class="token-range" x="0" y="11.5" dx="0" dy="-1.8em">⨳ --</text><text class="token-value" x="0" y="11.5" dy="2.5em" dx="85.5"></text></g><g class="tree-node" transform="translate(-2.1094237467877974e-13,480)" style="opacity: 1;"><rect width="171" height="23" rx="0" ry="0"></rect><text class="node-text" y="11.5" dy=".35em" x="70.37697124481201">opal</text><text class="token-range" x="0" y="11.5" dx="0" dy="-1.8em">⨳ 7-8</text><text class="token-value" x="0" y="11.5" dy="2.5em" dx="85.5"></text></g><g class="tree-node tree-leaf" transform="translate(190, 480)" style="opacity: 1;"><rect width="171" height="23" rx="10" ry="10"></rect><text class="node-text" y="11.5" dy=".35em" x="69.05290794372559">PYC</text><text class="token-range" x="0" y="11.5" dx="0" dy="-1.8em">⨳ 9</text><text class="token-value" x="0" y="11.5" dy="2.5em" dx="81.10214376449585">;</text></g><g class="tree-node" transform="translate(-2.1094237467877974e-13,540)" style="opacity: 1;"><rect width="171" height="23" rx="0" ry="0"></rect><text class="node-text" y="11.5" dy=".35em" x="72.60322284698486">exp</text><text class="token-range" x="0" y="11.5" dx="0" dy="-1.8em">⨳ 7-8</text><text class="token-value" x="0" y="11.5" dy="2.5em" dx="85.5"></text></g><g class="tree-node tree-leaf" transform="translate(455.9999999999999,540)" style="opacity: 1;"><rect width="171" height="23" rx="10" ry="10"></rect><text class="node-text" y="11.5" dy=".35em" x="77.50104188919067">ID</text><text class="token-range" x="0" y="11.5" dx="0" dy="-1.8em">⨳ 12</text><text class="token-value" x="0" y="11.5" dy="2.5em" dx="81.10214376449585">i</text></g><g class="tree-node" transform="translate(-180.5000000000002,600)" style="opacity: 1;"><rect width="171" height="23" rx="0" ry="0"></rect><text class="node-text" y="11.5" dy=".35em" x="69.50208377838135">term</text><text class="token-range" x="0" y="11.5" dx="0" dy="-1.8em">⨳ 7</text><text class="token-value" x="0" y="11.5" dy="2.5em" dx="85.5"></text></g><g class="tree-node" transform="translate(180.49999999999977,600)" style="opacity: 1;"><rect width="171" height="23" rx="0" ry="0"></rect><text class="node-text" y="11.5" dy=".35em" x="81.05135679244995">e</text><text class="token-range" x="0" y="11.5" dx="0" dy="-1.8em">⨳ 8</text><text class="token-value" x="0" y="11.5" dy="2.5em" dx="85.5"></text></g><g class="tree-node" transform="translate(-275.5000000000002,660)" style="opacity: 1;"><rect width="171" height="23" rx="0" ry="0"></rect><text class="node-text" y="11.5" dy=".35em" x="65.49477958679199">factor</text><text class="token-range" x="0" y="11.5" dx="0" dy="-1.8em">⨳ 7</text><text class="token-value" x="0" y="11.5" dy="2.5em" dx="85.5"></text></g><g class="tree-node" transform="translate(-85.5000000000002,660)" style="opacity: 1;"><rect width="171" height="23" rx="0" ry="0"></rect><text class="node-text" y="11.5" dy=".35em" x="83.27763175964355">t</text><text class="token-range" x="0" y="11.5" dx="0" dy="-1.8em">⨳ --</text><text class="token-value" x="0" y="11.5" dy="2.5em" dx="85.5"></text></g><g class="tree-node tree-leaf" transform="translate(180.5, 660)" style="opacity: 1;"><rect width="171" height="23" rx="10" ry="10"></rect><text class="node-text" y="11.5" dy=".35em" x="65.94786071777344">INCR</text><text class="token-range" x="0" y="11.5" dx="0" dy="-1.8em">⨳ 8</text><text class="token-value" x="0" y="11.5" dy="2.5em" dx="76.7042875289917">++</text></g><g class="tree-node tree-leaf" transform="translate(-275.5, 720)" style="opacity: 1;"><rect width="171" height="23" rx="10" ry="10"></rect><text class="node-text" y="11.5" dy=".35em" x="77.50104188919067">ID</text><text class="token-range" x="0" y="11.5" dx="0" dy="-1.8em">⨳ 7</text><text class="token-value" x="0" y="11.5" dy="2.5em" dx="81.10214376449585">i</text></g></g></svg>