<?xml version="1.0" standalone="no"?>
<?xml-stylesheet href="light.css" type="text/css"?>
<!DOCTYPE svg PUBLIC "-//W3C//DTD SVG 1.1//EN" "http://www.w3.org/Graphics/SVG/1.1/DTD/svg11.dtd">
<svg xmlns="http://www.w3.org/2000/svg" version="1.1" viewBox="0 0 1000 1000"><g transform="translate(463.5923874751694,96.80211539270698) scale(0.4948154665398377)"><path class="tree-link" d="M-707.75,240C-707.75,180 -9.5,191.5 -9.5,191.5" style="stroke-opacity: 1;"></path><path class="tree-link" d="M-517.75,240C-517.75,180 -9.5,191.5 -9.5,191.5" style="stroke-opacity: 1;"></path><path class="tree-link" d="M349.91666666666663,240C349.91666666666663,180 -9.5,191.5 -9.5,191.5" style="stroke-opacity: 1;"></path><path class="tree-link" d="M-242.25,420C-242.25,360 -52.25000000000003,371.5 -52.25000000000003,371.5" style="stroke-opacity: 1;"></path><path class="tree-link" d="M-698.25,480C-698.25,420 -698.25,431.5 -698.25,431.5" style="stroke-opacity: 1;"></path><path class="tree-link" d="M-147.25000000000003,540C-147.25000000000003,480 -147.25000000000003,491.5 -147.25000000000003,491.5" style="stroke-opacity: 1;"></path><path class="tree-link" d="M85.5,60C85.5,0 85.5,11.5 85.5,11.5" style="stroke-opacity: 1;"></path><path class="tree-link" d="M-9.5,120C-9.5,60 85.5,71.5 85.5,71.5" style="stroke-opacity: 1;"></path><path class="tree-link" d="M180.5,120C180.5,60 85.5,71.5 85.5,71.5" style="stroke-opacity: 1;"></path><path class="tree-link" d="M-9.5,180C-9.5,120 -9.5,131.5 -9.5,131.5" style="stroke-opacity: 1;"></path><path class="tree-link" d="M-327.74999999999994,240C-327.74999999999994,180 -9.5,191.5 -9.5,191.5" style="stroke-opacity: 1;"></path><path class="tree-link" d="M11.083333333333428,240C11.083333333333428,180 -9.5,191.5 -9.5,191.5" style="stroke-opacity: 1;"></path><path class="tree-link" d="M688.75,240C688.75,180 -9.5,191.5 -9.5,191.5" style="stroke-opacity: 1;"></path><path class="tree-link" d="M-327.74999999999994,300C-327.74999999999994,240 -327.74999999999994,251.5 -327.74999999999994,251.5" style="stroke-opacity: 1;"></path><path class="tree-link" d="M593.75,300C593.75,240 688.75,251.5 688.75,251.5" style="stroke-opacity: 1;"></path><path class="tree-link" d="M783.75,300C783.75,240 688.75,251.5 688.75,251.5" style="stroke-opacity: 1;"></path><path class="tree-link" d="M-603.25,360C-603.25,300 -327.74999999999994,311.5 -327.74999999999994,311.5" style="stroke-opacity: 1;"></path><path class="tree-link" d="M-52.25000000000003,360C-52.25000000000003,300 -327.74999999999994,311.5 -327.74999999999994,311.5" style="stroke-opacity: 1;"></path><path class="tree-link" d="M593.75,360C593.75,300 593.75,311.5 593.75,311.5" style="stroke-opacity: 1;"></path><path class="tree-link" d="M-698.25,420C-698.25,360 -603.25,371.5 -603.25,371.5" style="stroke-opacity: 1;"></path><path class="tree-link" d="M-508.25,420C-508.25,360 -603.25,371.5 -603.25,371.5" style="stroke-opacity: 1;"></path><path class="tree-link" d="M-52.25000000000003,420C-52.25000000000003,360 -52.25000000000003,371.5 -52.25000000000003,371.5" style="stroke-opacity: 1;"></path><path class="tree-link" d="M137.75,420C137.75,360 -52.25000000000003,371.5 -52.25000000000003,371.5" style="stroke-opacity: 1;"></path><path class="tree-link" d="M403.74999999999994,420C403.74999999999994,360 593.75,371.5 593.75,371.5" style="stroke-opacity: 1;"></path><path class="tree-link" d="M593.75,420C593.75,360 593.75,371.5 593.75,371.5" style="stroke-opacity: 1;"></path><path class="tree-link" d="M783.75,420C783.75,360 593.75,371.5 593.75,371.5" style="stroke-opacity: 1;"></path><path class="tree-link" d="M-147.25000000000003,480C-147.25000000000003,420 -52.25000000000003,431.5 -52.25000000000003,431.5" style="stroke-opacity: 1;"></path><path class="tree-link" d="M42.749999999999986,480C42.749999999999986,420 -52.25000000000003,431.5 -52.25000000000003,431.5" style="stroke-opacity: 1;"></path><path class="tree-link" d="M498.74999999999994,480C498.74999999999994,420 593.75,431.5 593.75,431.5" style="stroke-opacity: 1;"></path><path class="tree-link" d="M688.75,480C688.75,420 593.75,431.5 593.75,431.5" style="stroke-opacity: 1;"></path><path class="tree-link" d="M403.74999999999994,540C403.74999999999994,480 498.74999999999994,491.5 498.74999999999994,491.5" style="stroke-opacity: 1;"></path><path class="tree-link" d="M593.75,540C593.75,480 498.74999999999994,491.5 498.74999999999994,491.5" style="stroke-opacity: 1;"></path><path class="tree-link" d="M403.74999999999994,600C403.74999999999994,540 403.74999999999994,551.5 403.74999999999994,551.5" style="stroke-opacity: 1;"></path><path class="tree-link" d="M223.24999999999994,660C223.24999999999994,600 403.74999999999994,611.5 403.74999999999994,611.5" style="stroke-opacity: 1;"></path><path class="tree-link" d="M584.25,660C584.25,600 403.74999999999994,611.5 403.74999999999994,611.5" style="stroke-opacity: 1;"></path><path class="tree-link" d="M128.24999999999994,720C128.24999999999994,660 223.24999999999994,671.5 223.24999999999994,671.5" style="stroke-opacity: 1;"></path><path class="tree-link" d="M318.24999999999994,720C318.24999999999994,660 223.24999999999994,671.5 223.24999999999994,671.5" style="stroke-opacity: 1;"></path><path class="tree-link" d="M584.25,720C584.25,660 584.25,671.5 584.25,671.5" style="stroke-opacity: 1;"></path><path class="tree-link" d="M128.24999999999994,780C128.24999999999994,720 128.24999999999994,731.5 128.24999999999994,731.5" style="stroke-opacity: 1;"></path><g class="tree-node tree-root" transform="translate(0,0)" style="opacity: 1;"><rect width="171" height="23" rx="0" ry="0"></rect><text class="node-text" y="11.5" dy=".35em" x="51.27222442626953">programa</text><text class="token-range" x="0" y="11.5" dx="0" dy="-1.8em">⨳ 0-10</text><text class="token-value" x="0" y="11.5" dy="2.5em" dx="85.5"></text></g><g class="tree-node" transform="translate(0,60)" style="opacity: 1;"><rect width="171" height="23" rx="0" ry="0"></rect><text class="node-text" y="11.5" dy=".35em" x="38.82683181762695">instrucciones</text><text class="token-range" x="0" y="11.5" dx="0" dy="-1.8em">⨳ 0-10</text><text class="token-value" x="0" y="11.5" dy="2.5em" dx="85.5"></text></g><g class="tree-node" transform="translate(-95,120)" style="opacity: 1;"><rect width="171" height="23" rx="0" ry="0"></rect><text class="node-text" y="11.5" dy=".35em" x="47.27345275878906">instruccion</text><text class="token-range" x="0" y="11.5" dx="0" dy="-1.8em">⨳ 0-10</text><text class="token-value" x="0" y="11.5" dy="2.5em" dx="85.5"></text></g><g class="tree-node" transform="translate(95,120)" style="opacity: 1;"><rect width="171" height="23" rx="0" ry="0"></rect><text class="node-text" y="11.5" dy=".35em" x="38.82683181762695">instrucciones</text><text class="token-range" x="0" y="11.5" dx="0" dy="-1.8em">⨳ --</text><text class="token-value" x="0" y="11.5" dy="2.5em" dx="85.5"></text></g><g class="tree-node" transform="translate(-95,180)" style="opacity: 1;"><rect width="171" height="23" rx="0" ry="0"></rect><text class="node-text" y="11.5" dy=".35em" x="64.15889739990234">condif</text><text class="token-range" x="0" y="11.5" dx="0" dy="-1.8em">⨳ 0-10</text><text class="token-value" x="0" y="11.5" dy="2.5em" dx="85.5"></text></g><g class="tree-node tree-leaf" transform="translate(-793.25, 240)" style="opacity: 1;"><rect width="171" height="23" rx="10" ry="10"></rect><text class="node-text" y="11.5" dy=".35em" x="78.39281368255615">IF</text><text class="token-range" x="0" y="11.5" dx="0" dy="-1.8em">⨳ 0</text><text class="token-value" x="0" y="11.5" dy="2.5em" dx="76.70583248138428">if</text></g><g class="tree-node tree-leaf" transform="translate(-603.25, 240)" style="opacity: 1;"><rect width="171" height="23" rx="10" ry="10"></rect><text class="node-text" y="11.5" dy=".35em" x="64.31511878967285">PARA</text><text class="token-range" x="0" y="11.5" dx="0" dy="-1.8em">⨳ 1</text><text class="token-value" x="0" y="11.5" dy="2.5em" dx="81.10291624069214">(</text></g><g class="tree-node" transform="translate(-413.24999999999994,240)" style="opacity: 1;"><rect width="171" height="23" rx="0" ry="0"></rect><text class="node-text" y="11.5" dy=".35em" x="70.37963962554932">opal</text><text class="token-range" x="0" y="11.5" dx="0" dy="-1.8em">⨳ 2-4</text><text class="token-value" x="0" y="11.5" dy="2.5em" dx="85.5"></text></g><g class="tree-node" transform="translate(-74.41666666666657,240)" style="opacity: 1;"><rect width="171" height="23" rx="0" ry="0"></rect><text class="node-text" y="11.5" dy=".35em" x="81.0521469116211">e</text><text class="token-range" x="0" y="11.5" dx="0" dy="-1.8em">⨳ --</text><text class="token-value" x="0" y="11.5" dy="2.5em" dx="85.5"></text></g><g class="tree-node tree-leaf" transform="translate(264.4166564941406, 240)" style="opacity: 1;"><rect width="171" height="23" rx="10" ry="10"></rect><text class="node-text" y="11.5" dy=".35em" x="63.873844146728516">PARC</text><text class="token-range" x="0" y="11.5" dx="0" dy="-1.8em">⨳ 5</text><text class="token-value" x="0" y="11.5" dy="2.5em" dx="81.10291624069214">)</text></g><g class="tree-node" transform="translate(603.25,240)" style="opacity: 1;"><rect width="171" height="23" rx="0" ry="0"></rect><text class="node-text" y="11.5" dy=".35em" x="38.82683181762695">instrucciones</text><text class="token-range" x="0" y="11.5" dx="0" dy="-1.8em">⨳ 6-10</text><text class="token-value" x="0" y="11.5" dy="2.5em" dx="85.5"></text></g><g class="tree-node" transform="translate(-413.24999999999994,300)" style="opacity: 1;"><rect width="171" height="23" rx="0" ry="0"></rect><text class="node-text" y="11.5" dy=".35em" x="72.60552215576172">exp</text><text class="token-range" x="0" y="11.5" dx="0" dy="-1.8em">⨳ 2-4</text><text class="token-value" x="0" y="11.5" dy="2.5em" dx="85.5"></text></g><g class="tree-node" transform="translate(508.24999999999994,300)" style="opacity: 1;"><rect width="171" height="23" rx="0" ry="0"></rect><text class="node-text" y="11.5" dy=".35em" x="47.27345275878906">instruccion</text><text class="token-range" x="0" y="11.5" dx="0" dy="-1.8em">⨳ 6-10</text><text class="token-value" x="0" y="11.5" dy="2.5em" dx="85.5"></text></g><g class="tree-node" transform="translate(698.25,300)" style="opacity: 1;"><rect width="171" height="23" rx="0" ry="0"></rect><text class="node-text" y="11.5" dy=".35em" x="38.82683181762695">instrucciones</text><text class="token-range" x="0" y="11.5" dx="0" dy="-1.8em">⨳ --</text><text class="token-value" x="0" y="11.5" dy="2.5em" dx="85.5"></text></g><g class="tree-node" transform="translate(-688.75,360)" style="opacity: 1;"><rect width="171" height="23" rx="0" ry="0"></rect><text class="node-text" y="11.5" dy=".35em" x="69.50491428375244">term</text><text class="token-range" x="0" y="11.5" dx="0" dy="-1.8em">⨳ 2</text><text class="token-value" x="0" y="11.5" dy="2.5em" dx="85.5"></text></g><g class="tree-node" transform="translate(-137.75000000000003,360)" style="opacity: 1;"><rect width="171" height="23" rx="0" ry="0"></rect><text class="node-text" y="11.5" dy=".35em" x="81.0521469116211">e</text><text class="token-range" x="0" y="11.5" dx="0" dy="-1.8em">⨳ 3-4</text><text class="token-value" x="0" y="11.5" dy="2.5em" dx="85.5"></text></g><g class="tree-node" transform="translate(508.24999999999994,360)" style="opacity: 1;"><rect width="171" height="23" rx="0" ry="0"></rect><text class="node-text" y="11.5" dy=".35em" x="61.48393249511719">bloque</text><text class="token-range" x="0" y="11.5" dx="0" dy="-1.8em">⨳ 6-10</text><text class="token-value" x="0" y="11.5" dy="2.5em" dx="85.5"></text></g><g class="tree-node" transform="translate(-783.75,420)" style="opacity: 1;"><rect width="171" height="23" rx="0" ry="0"></rect><text class="node-text" y="11.5" dy=".35em" x="65.49833679199219">factor</text><text class="token-range" x="0" y="11.5" dx="0" dy="-1.8em">⨳ 2</text><text class="token-value" x="0" y="11.5" dy="2.5em" dx="85.5"></text></g><g class="tree-node" transform="translate(-593.75,420)" style="opacity: 1;"><rect width="171" height="23" rx="0" ry="0"></rect><text class="node-text" y="11.5" dy=".35em" x="83.27802968025208">t</text><text class="token-range" x="0" y="11.5" dx="0" dy="-1.8em">⨳ --</text><text class="token-value" x="0" y="11.5" dy="2.5em" dx="85.5"></text></g><g class="tree-node tree-leaf" transform="translate(-327.75, 420)" style="opacity: 1;"><rect width="171" height="23" rx="10" ry="10"></rect><text class="node-text" y="11.5" dy=".35em" x="67.72811317443848">MEN</text><text class="token-range" x="0" y="11.5" dx="0" dy="-1.8em">⨳ 3</text><text class="token-value" x="0" y="11.5" dy="2.5em" dx="81.10291624069214">&lt;</text></g><g class="tree-node" transform="translate(-137.75000000000003,420)" style="opacity: 1;"><rect width="171" height="23" rx="0" ry="0"></rect><text class="node-text" y="11.5" dy=".35em" x="69.50491428375244">term</text><text class="token-range" x="0" y="11.5" dx="0" dy="-1.8em">⨳ 4</text><text class="token-value" x="0" y="11.5" dy="2.5em" dx="85.5"></text></g><g class="tree-node" transform="translate(52.249999999999986,420)" style="opacity: 1;"><rect width="171" height="23" rx="0" ry="0"></rect><text class="node-text" y="11.5" dy=".35em" x="81.0521469116211">e</text><text class="token-range" x="0" y="11.5" dx="0" dy="-1.8em">⨳ --</text><text class="token-value" x="0" y="11.5" dy="2.5em" dx="85.5"></text></g><g class="tree-node tree-leaf" transform="translate(318.24999999999994,420)" style="opacity: 1;"><rect width="171" height="23" rx="10" ry="10"></rect><text class="node-text" y="11.5" dy=".35em" x="55.860687255859375">LLAVEA</text><text class="token-range" x="0" y="11.5" dx="0" dy="-1.8em">⨳ 6</text><text class="token-value" x="0" y="11.5" dy="2.5em" dx="81.10291624069214">{</text></g><g class="tree-node" transform="translate(508.24999999999994,420)" style="opacity: 1;"><rect width="171" height="23" rx="0" ry="0"></rect><text class="node-text" y="11.5" dy=".35em" x="38.82683181762695">instrucciones</text><text class="token-range" x="0" y="11.5" dx="0" dy="-1.8em">⨳ 7-9</text><text class="token-value" x="0" y="11.5" dy="2.5em" dx="85.5"></text></g><g class="tree-node tree-leaf" transform="translate(698.25,420)" style="opacity: 1;"><rect width="171" height="23" rx="10" ry="10"></rect><text class="node-text" y="11.5" dy=".35em" x="55.41941261291504">LLAVEC</text><text class="token-range" x="0" y="11.5" dx="0" dy="-1.8em">⨳ 10</text><text class="token-value" x="0" y="11.5" dy="2.5em" dx="81.10291624069214">}</text></g><g class="tree-node tree-leaf" transform="translate(-783.75, 480)" style="opacity: 1;"><rect width="171" height="23" rx="10" ry="10"></rect><text class="node-text" y="11.5" dy=".35em" x="77.50245714187622">ID</text><text class="token-range" x="0" y="11.5" dx="0" dy="-1.8em">⨳ 2</text><text class="token-value" x="0" y="11.5" dy="2.5em" dx="81.10291624069214">i</text></g><g class="tree-node" transform="translate(-232.75000000000003,480)" style="opacity: 1;"><rect width="171" height="23" rx="0" ry="0"></rect><text class="node-text" y="11.5" dy=".35em" x="65.49833679199219">factor</text><text class="token-range" x="0" y="11.5" dx="0" dy="-1.8em">⨳ 4</text><text class="token-value" x="0" y="11.5" dy="2.5em" dx="85.5"></text></g><g class="tree-node" transform="translate(-42.750000000000014,480)" style="opacity: 1;"><rect width="171" height="23" rx="0" ry="0"></rect><text class="node-text" y="11.5" dy=".35em" x="83.27802968025208">t</text><text class="token-range" x="0" y="11.5" dx="0" dy="-1.8em">⨳ --</text><text class="token-value" x="0" y="11.5" dy="2.5em" dx="85.5"></text></g><g class="tree-node" transform="translate(413.24999999999994,480)" style="opacity: 1;"><rect width="171" height="23" rx="0" ry="0"></rect><text class="node-text" y="11.5" dy=".35em" x="47.27345275878906">instruccion</text><text class="token-range" x="0" y="11.5" dx="0" dy="-1.8em">⨳ 7-9</text><text class="token-value" x="0" y="11.5" dy="2.5em" dx="85.5"></text></g><g class="tree-node" transform="translate(603.25,480)" style="opacity: 1;"><rect width="171" height="23" rx="0" ry="0"></rect><text class="node-text" y="11.5" dy=".35em" x="38.82683181762695">instrucciones</text><text class="token-range" x="0" y="11.5" dx="0" dy="-1.8em">⨳ --</text><text class="token-value" x="0" y="11.5" dy="2.5em" dx="85.5"></text></g><g class="tree-node tree-leaf" transform="translate(-232.75, 540)" style="opacity: 1;"><rect width="171" height="23" rx="10" ry="10"></rect><text class="node-text" y="11.5" dy=".35em" x="52.17430114746094">ENTERO</text><text class="token-range" x="0" y="11.5" dx="0" dy="-1.8em">⨳ 4</text><text class="token-value" x="0" y="11.5" dy="2.5em" dx="76.70583248138428">10</text></g><g class="tree-node" transform="translate(318.24999999999994,540)" style="opacity: 1;"><rect width="171" height="23" rx="0" ry="0"></rect><text class="node-text" y="11.5" dy=".35em" x="70.37963962554932">opal</text><text class="token-range" x="0" y="11.5" dx="0" dy="-1.8em">⨳ 7-8</text><text class="token-value" x="0" y="11.5" dy="2.5em" dx="85.5"></text></g><g class="tree-node tree-leaf" transform="translate(508.24999999999994,540)" style="opacity: 1;"><rect width="171" height="23" rx="10" ry="10"></rect><text class="node-text" y="11.5" dy=".35em" x="69.05583190917969">PYC</text><text class="token-range" x="0" y="11.5" dx="0" dy="-1.8em">⨳ 9</text><text class="token-value" x="0" y="11.5" dy="2.5em" dx="81.10291624069214">;</text></g><g class="tree-node" transform="translate(318.24999999999994,600)" style="opacity: 1;"><rect width="171" height="23" rx="0" ry="0"></rect><text class="node-text" y="11.5" dy=".35em" x="72.60552215576172">exp</text><text class="token-range" x="0" y="11.5" dx="0" dy="-1.8em">⨳ 7-8</text><text class="token-value" x="0" y="11.5" dy="2.5em" dx="85.5"></text></g><g class="tree-node" transform="translate(137.74999999999994,660)" style="opacity: 1;"><rect width="171" height="23" rx="0" ry="0"></rect><text class="node-text" y="11.5" dy=".35em" x="69.50491428375244">term</text><text class="token-range" x="0" y="11.5" dx="0" dy="-1.8em">⨳ 7</text><text class="token-value" x="0" y="11.5" dy="2.5em" dx="85.5"></text></g><g class="tree-node" transform="translate(498.74999999999994,660)" style="opacity: 1;"><rect width="171" height="23" rx="0" ry="0"></rect><text class="node-text" y="11.5" dy=".35em" x="81.0521469116211">e</text><text class="token-range" x="0" y="11.5" dx="0" dy="-1.8em">⨳ 8</text><text class="token-value" x="0" y="11.5" dy="2.5em" dx="85.5"></text></g><g class="tree-node" transform="translate(42.74999999999993,720)" style="opacity: 1;"><rect width="171" height="23" rx="0" ry="0"></rect><text class="node-text" y="11.5" dy=".35em" x="65.49833679199219">factor</text><text class="token-range" x="0" y="11.5" dx="0" dy="-1.8em">⨳ 7</text><text class="token-value" x="0" y="11.5" dy="2.5em" dx="85.5"></text></g><g class="tree-node" transform="translate(232.74999999999994,720)" style="opacity: 1;"><rect width="171" height="23" rx="0" ry="0"></rect><text class="node-text" y="11.5" dy=".35em" x="83.27802968025208">t</text><text class="token-range" x="0" y="11.5" dx="0" dy="-1.8em">⨳ --</text><text class="token-value" x="0" y="11.5" dy="2.5em" dx="85.5"></text></g><g class="tree-node tree-leaf" transform="translate(498.74999999999994,720)" style="opacity: 1;"><rect width="171" height="23" rx="10" ry="10"></rect><text class="node-text" y="11.5" dy=".35em" x="65.9513111114502">INCR</text><text class="token-range" x="0" y="11.5" dx="0" dy="-1.8em">⨳ 8</text><text class="token-value" x="0" y="11.5" dy="2.5em" dx="76.70583248138428">++</text></g><g class="tree-node tree-leaf" transform="translate(42.74999999999993,780)" style="opacity: 1;"><rect width="171" height="23" rx="10" ry="10"></rect><text class="node-text" y="11.5" dy=".35em" x="77.50245714187622">ID</text><text class="token-range" x="0" y="11.5" dx="0" dy="-1.8em">⨳ 7</text><text class="token-value" x="0" y="11.5" dy="2.5em" dx="81.10291624069214">i</text></g></g></svg>