<?xml version="1.0" standalone="no"?>
<?xml-stylesheet href="light.css" type="text/css"?>
<!DOCTYPE svg PUBLIC "-//W3C//DTD SVG 1.1//EN" "http://www.w3.org/Graphics/SVG/1.1/DTD/svg11.dtd">
<svg xmlns="http://www.w3.org/2000/svg" version="1.1" viewBox="0 0 1000 1000"><g transform="translate(34.03109483498304,287.1575613654072) scale(0.3264564612360469)"><path class="tree-link" d="M190,11.5C85.5,11.5 85.5,11.5 85.5,11.5" style="stroke-opacity: 1;"></path><path class="tree-link" d="M380,-18.5C275.5,-18.5 275.5,11.5 275.5,11.5" style="stroke-opacity: 1;"></path><path class="tree-link" d="M380,41.5C275.5,41.5 275.5,11.5 275.5,11.5" style="stroke-opacity: 1;"></path><path class="tree-link" d="M570,-18.5C465.5,-18.5 465.5,-18.5 465.5,-18.5" style="stroke-opacity: 1;"></path><path class="tree-link" d="M760,-273.5C655.5,-273.5 655.5,-18.5 655.5,-18.5" style="stroke-opacity: 1;"></path><path class="tree-link" d="M760,-213.49999999999997C655.5,-213.49999999999997 655.5,-18.5 655.5,-18.5" style="stroke-opacity: 1;"></path><path class="tree-link" d="M760,-153.49999999999997C655.5,-153.49999999999997 655.5,-18.5 655.5,-18.5" style="stroke-opacity: 1;"></path><path class="tree-link" d="M760,-23.5C655.5,-23.5 655.5,-18.5 655.5,-18.5" style="stroke-opacity: 1;"></path><path class="tree-link" d="M760,106.50000000000003C655.5,106.50000000000003 655.5,-18.5 655.5,-18.5" style="stroke-opacity: 1;"></path><path class="tree-link" d="M760,236.5C655.5,236.5 655.5,-18.5 655.5,-18.5" style="stroke-opacity: 1;"></path><path class="tree-link" d="M950,-153.49999999999994C845.5,-153.49999999999994 845.5,-153.49999999999997 845.5,-153.49999999999997" style="stroke-opacity: 1;"></path><path class="tree-link" d="M950,206.5C845.5,206.5 845.5,236.5 845.5,236.5" style="stroke-opacity: 1;"></path><path class="tree-link" d="M950,266.5C845.5,266.5 845.5,236.5 845.5,236.5" style="stroke-opacity: 1;"></path><path class="tree-link" d="M1140,-240.49999999999994C1035.5,-240.49999999999994 1035.5,-153.49999999999994 1035.5,-153.49999999999994" style="stroke-opacity: 1;"></path><path class="tree-link" d="M1140,-66.49999999999994C1035.5,-66.49999999999994 1035.5,-153.49999999999994 1035.5,-153.49999999999994" style="stroke-opacity: 1;"></path><path class="tree-link" d="M1140,206.5C1035.5,206.5 1035.5,206.5 1035.5,206.5" style="stroke-opacity: 1;"></path><path class="tree-link" d="M1330,-270.49999999999994C1225.5,-270.49999999999994 1225.5,-240.49999999999994 1225.5,-240.49999999999994" style="stroke-opacity: 1;"></path><path class="tree-link" d="M1330,-210.49999999999994C1225.5,-210.49999999999994 1225.5,-240.49999999999994 1225.5,-240.49999999999994" style="stroke-opacity: 1;"></path><path class="tree-link" d="M1330,-126.5C1225.5,-126.5 1225.5,-66.49999999999994 1225.5,-66.49999999999994" style="stroke-opacity: 1;"></path><path class="tree-link" d="M1330,-66.49999999999994C1225.5,-66.49999999999994 1225.5,-66.49999999999994 1225.5,-66.49999999999994" style="stroke-opacity: 1;"></path><path class="tree-link" d="M1330,-6.499999999999943C1225.5,-6.499999999999943 1225.5,-66.49999999999994 1225.5,-66.49999999999994" style="stroke-opacity: 1;"></path><path class="tree-link" d="M1330,146.5C1225.5,146.5 1225.5,206.5 1225.5,206.5" style="stroke-opacity: 1;"></path><path class="tree-link" d="M1330,206.5C1225.5,206.5 1225.5,206.5 1225.5,206.5" style="stroke-opacity: 1;"></path><path class="tree-link" d="M1330,266.5C1225.5,266.5 1225.5,206.5 1225.5,206.5" style="stroke-opacity: 1;"></path><path class="tree-link" d="M1520,-270.49999999999994C1415.5,-270.49999999999994 1415.5,-270.49999999999994 1415.5,-270.49999999999994" style="stroke-opacity: 1;"></path><path class="tree-link" d="M1520,-96.49999999999994C1415.5,-96.49999999999994 1415.5,-66.49999999999994 1415.5,-66.49999999999994" style="stroke-opacity: 1;"></path><path class="tree-link" d="M1520,-36.49999999999994C1415.5,-36.49999999999994 1415.5,-66.49999999999994 1415.5,-66.49999999999994" style="stroke-opacity: 1;"></path><path class="tree-link" d="M1520,47.5C1415.5,47.5 1415.5,206.5 1415.5,206.5" style="stroke-opacity: 1;"></path><path class="tree-link" d="M1520,365.5C1415.5,365.5 1415.5,206.5 1415.5,206.5" style="stroke-opacity: 1;"></path><path class="tree-link" d="M1710,-96.5C1605.5,-96.49999999999994 1605.5,-96.49999999999994 1605.5,-96.49999999999994" style="stroke-opacity: 1;"></path><path class="tree-link" d="M1710,17.5C1605.5,17.5 1605.5,47.5 1605.5,47.5" style="stroke-opacity: 1;"></path><path class="tree-link" d="M1710,77.5C1605.5,77.5 1605.5,47.5 1605.5,47.5" style="stroke-opacity: 1;"></path><path class="tree-link" d="M1710,335.50000000000006C1605.5,335.50000000000006 1605.5,365.5 1605.5,365.5" style="stroke-opacity: 1;"></path><path class="tree-link" d="M1710,395.50000000000006C1605.5,395.50000000000006 1605.5,365.5 1605.5,365.5" style="stroke-opacity: 1;"></path><path class="tree-link" d="M1900,17.5C1795.5,17.5 1795.5,17.5 1795.5,17.5" style="stroke-opacity: 1;"></path><path class="tree-link" d="M1900,305.50000000000006C1795.5,305.50000000000006 1795.5,335.50000000000006 1795.5,335.50000000000006" style="stroke-opacity: 1;"></path><path class="tree-link" d="M1900,365.50000000000006C1795.5,365.50000000000006 1795.5,335.50000000000006 1795.5,335.50000000000006" style="stroke-opacity: 1;"></path><path class="tree-link" d="M2090,-69.5C1985.5,-69.5 1985.5,17.5 1985.5,17.5" style="stroke-opacity: 1;"></path><path class="tree-link" d="M2090,104.5C1985.5,104.5 1985.5,17.5 1985.5,17.5" style="stroke-opacity: 1;"></path><path class="tree-link" d="M2090,305.50000000000006C1985.5,305.50000000000006 1985.5,305.50000000000006 1985.5,305.50000000000006" style="stroke-opacity: 1;"></path><path class="tree-link" d="M2280,-99.5C2175.5,-99.5 2175.5,-69.5 2175.5,-69.5" style="stroke-opacity: 1;"></path><path class="tree-link" d="M2280,-39.5C2175.5,-39.5 2175.5,-69.5 2175.5,-69.5" style="stroke-opacity: 1;"></path><path class="tree-link" d="M2280,44.5C2175.5,44.5 2175.5,104.5 2175.5,104.5" style="stroke-opacity: 1;"></path><path class="tree-link" d="M2280,104.5C2175.5,104.5 2175.5,104.5 2175.5,104.5" style="stroke-opacity: 1;"></path><path class="tree-link" d="M2280,164.5C2175.5,164.5 2175.5,104.5 2175.5,104.5" style="stroke-opacity: 1;"></path><path class="tree-link" d="M2280,248.50000000000006C2175.5,248.50000000000006 2175.5,305.50000000000006 2175.5,305.50000000000006" style="stroke-opacity: 1;"></path><path class="tree-link" d="M2280,362.5000000000001C2175.5,362.5000000000001 2175.5,305.50000000000006 2175.5,305.50000000000006" style="stroke-opacity: 1;"></path><path class="tree-link" d="M2470,74.5C2365.5,74.5 2365.5,104.5 2365.5,104.5" style="stroke-opacity: 1;"></path><path class="tree-link" d="M2470,134.5C2365.5,134.5 2365.5,104.5 2365.5,104.5" style="stroke-opacity: 1;"></path><path class="tree-link" d="M2470,218.5C2365.5,218.50000000000006 2365.5,248.50000000000006 2365.5,248.50000000000006" style="stroke-opacity: 1;"></path><path class="tree-link" d="M2470,278.50000000000006C2365.5,278.50000000000006 2365.5,248.50000000000006 2365.5,248.50000000000006" style="stroke-opacity: 1;"></path><path class="tree-link" d="M2470,362.5000000000001C2365.5,362.5000000000001 2365.5,362.5000000000001 2365.5,362.5000000000001" style="stroke-opacity: 1;"></path><path class="tree-link" d="M2660,74.5C2555.5,74.5 2555.5,74.5 2555.5,74.5" style="stroke-opacity: 1;"></path><path class="tree-link" d="M2660,218.5C2555.5,218.5 2555.5,218.5 2555.5,218.5" style="stroke-opacity: 1;"></path><path class="tree-link" d="M2470,-99.5C2365.5,-99.5 2365.5,-99.5 2365.5,-99.5" style="stroke-opacity: 1;"></path><g class="tree-node tree-root" transform="translate(0,0)" style="opacity: 1;"><rect width="171" height="23" rx="0" ry="0"></rect><text class="node-text" y="11.5" dy=".35em" x="51.27306365966797">programa</text><text class="token-range" x="0" y="11.5" dx="0" dy="-1.8em">⨳ 0-14</text><text class="token-value" x="0" y="11.5" dy="0.25em" dx="191"></text></g><g class="tree-node" transform="translate(190, 0)" style="opacity: 1;"><rect width="171" height="23" rx="0" ry="0"></rect><text class="node-text" y="11.5" dy=".35em" x="38.82805633544922">instrucciones</text><text class="token-range" x="0" y="11.5" dx="0" dy="-1.8em">⨳ 0-14</text><text class="token-value" x="0" y="11.5" dy="0.25em" dx="191"></text></g><g class="tree-node" transform="translate(380, -30)" style="opacity: 1;"><rect width="171" height="23" rx="0" ry="0"></rect><text class="node-text" y="11.5" dy=".35em" x="47.27446365356445">instruccion</text><text class="token-range" x="0" y="11.5" dx="0" dy="-1.8em">⨳ 0-14</text><text class="token-value" x="0" y="11.5" dy="0.25em" dx="191"></text></g><g class="tree-node" transform="translate(380, 30)" style="opacity: 1;"><rect width="171" height="23" rx="0" ry="0"></rect><text class="node-text" y="11.5" dy=".35em" x="38.82805633544922">instrucciones</text><text class="token-range" x="0" y="11.5" dx="0" dy="-1.8em">⨳ --</text><text class="token-value" x="0" y="11.5" dy="0.25em" dx="191"></text></g><g class="tree-node" transform="translate(570, -30)" style="opacity: 1;"><rect width="171" height="23" rx="0" ry="0"></rect><text class="node-text" y="11.5" dy=".35em" x="51.27702331542969">ciclowhile</text><text class="token-range" x="0" y="11.5" dx="0" dy="-1.8em">⨳ 0-14</text><text class="token-value" x="0" y="11.5" dy="0.25em" dx="191"></text></g><g class="tree-node tree-leaf" transform="translate(760, -285)" style="opacity: 1;"><rect width="171" height="23" rx="10" ry="10"></rect><text class="node-text" y="11.5" dy=".35em" x="60.17246437072754">WHILE</text><text class="token-range" x="0" y="11.5" dx="0" dy="-1.8em">⨳ 0</text><text class="token-value" x="0" y="11.5" dy="0.25em" dx="191">while</text></g><g class="tree-node tree-leaf" transform="translate(760, -225)" style="opacity: 1;"><rect width="171" height="23" rx="10" ry="10"></rect><text class="node-text" y="11.5" dy=".35em" x="64.31563377380371">PARA</text><text class="token-range" x="0" y="11.5" dx="0" dy="-1.8em">⨳ 1</text><text class="token-value" x="0" y="11.5" dy="0.25em" dx="191">(</text></g><g class="tree-node" transform="translate(760, -165)" style="opacity: 1;"><rect width="171" height="23" rx="0" ry="0"></rect><text class="node-text" y="11.5" dy=".35em" x="70.38000583648682">opal</text><text class="token-range" x="0" y="11.5" dx="0" dy="-1.8em">⨳ 2-4</text><text class="token-value" x="0" y="11.5" dy="0.25em" dx="191"></text></g><g class="tree-node" transform="translate(760, -35)" style="opacity: 1;"><rect width="171" height="23" rx="0" ry="0"></rect><text class="node-text" y="11.5" dy=".35em" x="81.05225086212158">e</text><text class="token-range" x="0" y="11.5" dx="0" dy="-1.8em">⨳ --</text><text class="token-value" x="0" y="11.5" dy="0.25em" dx="191"></text></g><g class="tree-node tree-leaf" transform="translate(760, 95)" style="opacity: 1;"><rect width="171" height="23" rx="10" ry="10"></rect><text class="node-text" y="11.5" dy=".35em" x="63.87437438964844">PARC</text><text class="token-range" x="0" y="11.5" dx="0" dy="-1.8em">⨳ 5</text><text class="token-value" x="0" y="11.5" dy="0.25em" dx="191">)</text></g><g class="tree-node" transform="translate(760, 225)" style="opacity: 1;"><rect width="171" height="23" rx="0" ry="0"></rect><text class="node-text" y="11.5" dy=".35em" x="38.82805633544922">instrucciones</text><text class="token-range" x="0" y="11.5" dx="0" dy="-1.8em">⨳ 6-14</text><text class="token-value" x="0" y="11.5" dy="0.25em" dx="191"></text></g><g class="tree-node" transform="translate(950, -165)" style="opacity: 1;"><rect width="171" height="23" rx="0" ry="0"></rect><text class="node-text" y="11.5" dy=".35em" x="72.60584545135498">exp</text><text class="token-range" x="0" y="11.5" dx="0" dy="-1.8em">⨳ 2-4</text><text class="token-value" x="0" y="11.5" dy="0.25em" dx="191"></text></g><g class="tree-node" transform="translate(950, 195)" style="opacity: 1;"><rect width="171" height="23" rx="0" ry="0"></rect><text class="node-text" y="11.5" dy=".35em" x="47.27446365356445">instruccion</text><text class="token-range" x="0" y="11.5" dx="0" dy="-1.8em">⨳ 6-14</text><text class="token-value" x="0" y="11.5" dy="0.25em" dx="191"></text></g><g class="tree-node" transform="translate(950, 255)" style="opacity: 1;"><rect width="171" height="23" rx="0" ry="0"></rect><text class="node-text" y="11.5" dy=".35em" x="38.82805633544922">instrucciones</text><text class="token-range" x="0" y="11.5" dx="0" dy="-1.8em">⨳ --</text><text class="token-value" x="0" y="11.5" dy="0.25em" dx="191"></text></g><g class="tree-node" transform="translate(1140, -252)" style="opacity: 1;"><rect width="171" height="23" rx="0" ry="0"></rect><text class="node-text" y="11.5" dy=".35em" x="69.50531959533691">term</text><text class="token-range" x="0" y="11.5" dx="0" dy="-1.8em">⨳ 2</text><text class="token-value" x="0" y="11.5" dy="0.25em" dx="191"></text></g><g class="tree-node" transform="translate(1140, -78)" style="opacity: 1;"><rect width="171" height="23" rx="0" ry="0"></rect><text class="node-text" y="11.5" dy=".35em" x="81.05225086212158">e</text><text class="token-range" x="0" y="11.5" dx="0" dy="-1.8em">⨳ 3-4</text><text class="token-value" x="0" y="11.5" dy="0.25em" dx="191"></text></g><g class="tree-node" transform="translate(1140, 195)" style="opacity: 1;"><rect width="171" height="23" rx="0" ry="0"></rect><text class="node-text" y="11.5" dy=".35em" x="61.4845085144043">bloque</text><text class="token-range" x="0" y="11.5" dx="0" dy="-1.8em">⨳ 6-14</text><text class="token-value" x="0" y="11.5" dy="0.25em" dx="191"></text></g><g class="tree-node" transform="translate(1330, -282)" style="opacity: 1;"><rect width="171" height="23" rx="0" ry="0"></rect><text class="node-text" y="11.5" dy=".35em" x="65.49885749816895">factor</text><text class="token-range" x="0" y="11.5" dx="0" dy="-1.8em">⨳ 2</text><text class="token-value" x="0" y="11.5" dy="0.25em" dx="191"></text></g><g class="tree-node" transform="translate(1330, -222)" style="opacity: 1;"><rect width="171" height="23" rx="0" ry="0"></rect><text class="node-text" y="11.5" dy=".35em" x="83.27809071540833">t</text><text class="token-range" x="0" y="11.5" dx="0" dy="-1.8em">⨳ --</text><text class="token-value" x="0" y="11.5" dy="0.25em" dx="191"></text></g><g class="tree-node tree-leaf" transform="translate(1330, -138)" style="opacity: 1;"><rect width="171" height="23" rx="10" ry="10"></rect><text class="node-text" y="11.5" dy=".35em" x="67.72854614257812">MEN</text><text class="token-range" x="0" y="11.5" dx="0" dy="-1.8em">⨳ 3</text><text class="token-value" x="0" y="11.5" dy="0.25em" dx="191">&lt;</text></g><g class="tree-node" transform="translate(1330, -78)" style="opacity: 1;"><rect width="171" height="23" rx="0" ry="0"></rect><text class="node-text" y="11.5" dy=".35em" x="69.50531959533691">term</text><text class="token-range" x="0" y="11.5" dx="0" dy="-1.8em">⨳ 4</text><text class="token-value" x="0" y="11.5" dy="0.25em" dx="191"></text></g><g class="tree-node" transform="translate(1330, -18)" style="opacity: 1;"><rect width="171" height="23" rx="0" ry="0"></rect><text class="node-text" y="11.5" dy=".35em" x="81.05225086212158">e</text><text class="token-range" x="0" y="11.5" dx="0" dy="-1.8em">⨳ --</text><text class="token-value" x="0" y="11.5" dy="0.25em" dx="191"></text></g><g class="tree-node tree-leaf" transform="translate(1330, 135)" style="opacity: 1;"><rect width="171" height="23" rx="10" ry="10"></rect><text class="node-text" y="11.5" dy=".35em" x="55.86139488220215">LLAVEA</text><text class="token-range" x="0" y="11.5" dx="0" dy="-1.8em">⨳ 6</text><text class="token-value" x="0" y="11.5" dy="0.25em" dx="191">{</text></g><g class="tree-node" transform="translate(1330, 195)" style="opacity: 1;"><rect width="171" height="23" rx="0" ry="0"></rect><text class="node-text" y="11.5" dy=".35em" x="38.82805633544922">instrucciones</text><text class="token-range" x="0" y="11.5" dx="0" dy="-1.8em">⨳ 7-13</text><text class="token-value" x="0" y="11.5" dy="0.25em" dx="191"></text></g><g class="tree-node tree-leaf" transform="translate(1330, 255)" style="opacity: 1;"><rect width="171" height="23" rx="10" ry="10"></rect><text class="node-text" y="11.5" dy=".35em" x="55.420135498046875">LLAVEC</text><text class="token-range" x="0" y="11.5" dx="0" dy="-1.8em">⨳ 14</text><text class="token-value" x="0" y="11.5" dy="0.25em" dx="191">}</text></g><g class="tree-node tree-leaf" transform="translate(1520, -282)" style="opacity: 1;"><rect width="171" height="23" rx="10" ry="10"></rect><text class="node-text" y="11.5" dy=".35em" x="77.50265979766846">ID</text><text class="token-range" x="0" y="11.5" dx="0" dy="-1.8em">⨳ 2</text><text class="token-value" x="0" y="11.5" dy="0.25em" dx="191">i</text></g><g class="tree-node" transform="translate(1520, -108)" style="opacity: 1;"><rect width="171" height="23" rx="0" ry="0"></rect><text class="node-text" y="11.5" dy=".35em" x="65.49885749816895">factor</text><text class="token-range" x="0" y="11.5" dx="0" dy="-1.8em">⨳ 4</text><text class="token-value" x="0" y="11.5" dy="0.25em" dx="191"></text></g><g class="tree-node" transform="translate(1520, -48)" style="opacity: 1;"><rect width="171" height="23" rx="0" ry="0"></rect><text class="node-text" y="11.5" dy=".35em" x="83.27809071540833">t</text><text class="token-range" x="0" y="11.5" dx="0" dy="-1.8em">⨳ --</text><text class="token-value" x="0" y="11.5" dy="0.25em" dx="191"></text></g><g class="tree-node" transform="translate(1520, 36)" style="opacity: 1;"><rect width="171" height="23" rx="0" ry="0"></rect><text class="node-text" y="11.5" dy=".35em" x="47.27446365356445">instruccion</text><text class="token-range" x="0" y="11.5" dx="0" dy="-1.8em">⨳ 7-10</text><text class="token-value" x="0" y="11.5" dy="0.25em" dx="191"></text></g><g class="tree-node" transform="translate(1520, 354)" style="opacity: 1;"><rect width="171" height="23" rx="0" ry="0"></rect><text class="node-text" y="11.5" dy=".35em" x="38.82805633544922">instrucciones</text><text class="token-range" x="0" y="11.5" dx="0" dy="-1.8em">⨳ 11-13</text><text class="token-value" x="0" y="11.5" dy="0.25em" dx="191"></text></g><g class="tree-node tree-leaf" transform="translate(1710, -108)" style="opacity: 1;"><rect width="171" height="23" rx="10" ry="10"></rect><text class="node-text" y="11.5" dy=".35em" x="52.17509841918945">ENTERO</text><text class="token-range" x="0" y="11.5" dx="0" dy="-1.8em">⨳ 4</text><text class="token-value" x="0" y="11.5" dy="0.25em" dx="191">10</text></g><g class="tree-node" transform="translate(1710, 6)" style="opacity: 1;"><rect width="171" height="23" rx="0" ry="0"></rect><text class="node-text" y="11.5" dy=".35em" x="70.38000583648682">opal</text><text class="token-range" x="0" y="11.5" dx="0" dy="-1.8em">⨳ 7-9</text><text class="token-value" x="0" y="11.5" dy="0.25em" dx="191"></text></g><g class="tree-node tree-leaf" transform="translate(1710, 66)" style="opacity: 1;"><rect width="171" height="23" rx="10" ry="10"></rect><text class="node-text" y="11.5" dy=".35em" x="69.05622673034668">PYC</text><text class="token-range" x="0" y="11.5" dx="0" dy="-1.8em">⨳ 10</text><text class="token-value" x="0" y="11.5" dy="0.25em" dx="191">;</text></g><g class="tree-node" transform="translate(1710, 324)" style="opacity: 1;"><rect width="171" height="23" rx="0" ry="0"></rect><text class="node-text" y="11.5" dy=".35em" x="47.27446365356445">instruccion</text><text class="token-range" x="0" y="11.5" dx="0" dy="-1.8em">⨳ 11-13</text><text class="token-value" x="0" y="11.5" dy="0.25em" dx="191"></text></g><g class="tree-node" transform="translate(1710, 384)" style="opacity: 1;"><rect width="171" height="23" rx="0" ry="0"></rect><text class="node-text" y="11.5" dy=".35em" x="38.82805633544922">instrucciones</text><text class="token-range" x="0" y="11.5" dx="0" dy="-1.8em">⨳ --</text><text class="token-value" x="0" y="11.5" dy="0.25em" dx="191"></text></g><g class="tree-node" transform="translate(1900, 6)" style="opacity: 1;"><rect width="171" height="23" rx="0" ry="0"></rect><text class="node-text" y="11.5" dy=".35em" x="72.60584545135498">exp</text><text class="token-range" x="0" y="11.5" dx="0" dy="-1.8em">⨳ 7-9</text><text class="token-value" x="0" y="11.5" dy="0.25em" dx="191"></text></g><g class="tree-node" transform="translate(1900, 294)" style="opacity: 1;"><rect width="171" height="23" rx="0" ry="0"></rect><text class="node-text" y="11.5" dy=".35em" x="70.38000583648682">opal</text><text class="token-range" x="0" y="11.5" dx="0" dy="-1.8em">⨳ 11-12</text><text class="token-value" x="0" y="11.5" dy="0.25em" dx="191"></text></g><g class="tree-node tree-leaf" transform="translate(1900, 354)" style="opacity: 1;"><rect width="171" height="23" rx="10" ry="10"></rect><text class="node-text" y="11.5" dy=".35em" x="69.05622673034668">PYC</text><text class="token-range" x="0" y="11.5" dx="0" dy="-1.8em">⨳ 13</text><text class="token-value" x="0" y="11.5" dy="0.25em" dx="191">;</text></g><g class="tree-node" transform="translate(2090, -81)" style="opacity: 1;"><rect width="171" height="23" rx="0" ry="0"></rect><text class="node-text" y="11.5" dy=".35em" x="69.50531959533691">term</text><text class="token-range" x="0" y="11.5" dx="0" dy="-1.8em">⨳ 7</text><text class="token-value" x="0" y="11.5" dy="0.25em" dx="191"></text></g><g class="tree-node" transform="translate(2090, 93)" style="opacity: 1;"><rect width="171" height="23" rx="0" ry="0"></rect><text class="node-text" y="11.5" dy=".35em" x="81.05225086212158">e</text><text class="token-range" x="0" y="11.5" dx="0" dy="-1.8em">⨳ 8-9</text><text class="token-value" x="0" y="11.5" dy="0.25em" dx="191"></text></g><g class="tree-node" transform="translate(2090, 294)" style="opacity: 1;"><rect width="171" height="23" rx="0" ry="0"></rect><text class="node-text" y="11.5" dy=".35em" x="72.60584545135498">exp</text><text class="token-range" x="0" y="11.5" dx="0" dy="-1.8em">⨳ 11-12</text><text class="token-value" x="0" y="11.5" dy="0.25em" dx="191"></text></g><g class="tree-node" transform="translate(2280, -111)" style="opacity: 1;"><rect width="171" height="23" rx="0" ry="0"></rect><text class="node-text" y="11.5" dy=".35em" x="65.49885749816895">factor</text><text class="token-range" x="0" y="11.5" dx="0" dy="-1.8em">⨳ 7</text><text class="token-value" x="0" y="11.5" dy="0.25em" dx="191"></text></g><g class="tree-node" transform="translate(2280, -51)" style="opacity: 1;"><rect width="171" height="23" rx="0" ry="0"></rect><text class="node-text" y="11.5" dy=".35em" x="83.27809071540833">t</text><text class="token-range" x="0" y="11.5" dx="0" dy="-1.8em">⨳ --</text><text class="token-value" x="0" y="11.5" dy="0.25em" dx="191"></text></g><g class="tree-node tree-leaf" transform="translate(2280, 33)" style="opacity: 1;"><rect width="171" height="23" rx="10" ry="10"></rect><text class="node-text" y="11.5" dy=".35em" x="68.1698055267334">MAS</text><text class="token-range" x="0" y="11.5" dx="0" dy="-1.8em">⨳ 8</text><text class="token-value" x="0" y="11.5" dy="0.25em" dx="191">+</text></g><g class="tree-node" transform="translate(2280, 93)" style="opacity: 1;"><rect width="171" height="23" rx="0" ry="0"></rect><text class="node-text" y="11.5" dy=".35em" x="69.50531959533691">term</text><text class="token-range" x="0" y="11.5" dx="0" dy="-1.8em">⨳ 9</text><text class="token-value" x="0" y="11.5" dy="0.25em" dx="191"></text></g><g class="tree-node" transform="translate(2280, 153)" style="opacity: 1;"><rect width="171" height="23" rx="0" ry="0"></rect><text class="node-text" y="11.5" dy=".35em" x="81.05225086212158">e</text><text class="token-range" x="0" y="11.5" dx="0" dy="-1.8em">⨳ --</text><text class="token-value" x="0" y="11.5" dy="0.25em" dx="191"></text></g><g class="tree-node" transform="translate(2280, 237)" style="opacity: 1;"><rect width="171" height="23" rx="0" ry="0"></rect><text class="node-text" y="11.5" dy=".35em" x="69.50531959533691">term</text><text class="token-range" x="0" y="11.5" dx="0" dy="-1.8em">⨳ 11</text><text class="token-value" x="0" y="11.5" dy="0.25em" dx="191"></text></g><g class="tree-node" transform="translate(2280, 351)" style="opacity: 1;"><rect width="171" height="23" rx="0" ry="0"></rect><text class="node-text" y="11.5" dy=".35em" x="81.05225086212158">e</text><text class="token-range" x="0" y="11.5" dx="0" dy="-1.8em">⨳ 12</text><text class="token-value" x="0" y="11.5" dy="0.25em" dx="191"></text></g><g class="tree-node tree-leaf" transform="translate(2470, -111)" style="opacity: 1;"><rect width="171" height="23" rx="10" ry="10"></rect><text class="node-text" y="11.5" dy=".35em" x="77.50265979766846">ID</text><text class="token-range" x="0" y="11.5" dx="0" dy="-1.8em">⨳ 7</text><text class="token-value" x="0" y="11.5" dy="0.25em" dx="191">a</text></g><g class="tree-node" transform="translate(2470, 63)" style="opacity: 1;"><rect width="171" height="23" rx="0" ry="0"></rect><text class="node-text" y="11.5" dy=".35em" x="65.49885749816895">factor</text><text class="token-range" x="0" y="11.5" dx="0" dy="-1.8em">⨳ 9</text><text class="token-value" x="0" y="11.5" dy="0.25em" dx="191"></text></g><g class="tree-node" transform="translate(2470, 123)" style="opacity: 1;"><rect width="171" height="23" rx="0" ry="0"></rect><text class="node-text" y="11.5" dy=".35em" x="83.27809071540833">t</text><text class="token-range" x="0" y="11.5" dx="0" dy="-1.8em">⨳ --</text><text class="token-value" x="0" y="11.5" dy="0.25em" dx="191"></text></g><g class="tree-node" transform="translate(2470, 207)" style="opacity: 1;"><rect width="171" height="23" rx="0" ry="0"></rect><text class="node-text" y="11.5" dy=".35em" x="65.49885749816895">factor</text><text class="token-range" x="0" y="11.5" dx="0" dy="-1.8em">⨳ 11</text><text class="token-value" x="0" y="11.5" dy="0.25em" dx="191"></text></g><g class="tree-node" transform="translate(2470, 267)" style="opacity: 1;"><rect width="171" height="23" rx="0" ry="0"></rect><text class="node-text" y="11.5" dy=".35em" x="83.27809071540833">t</text><text class="token-range" x="0" y="11.5" dx="0" dy="-1.8em">⨳ --</text><text class="token-value" x="0" y="11.5" dy="0.25em" dx="191"></text></g><g class="tree-node tree-leaf" transform="translate(2470, 351)" style="opacity: 1;"><rect width="171" height="23" rx="10" ry="10"></rect><text class="node-text" y="11.5" dy=".35em" x="65.9517993927002">INCR</text><text class="token-range" x="0" y="11.5" dx="0" dy="-1.8em">⨳ 12</text><text class="token-value" x="0" y="11.5" dy="0.25em" dx="191">++</text></g><g class="tree-node tree-leaf" transform="translate(2660, 63)" style="opacity: 1;"><rect width="171" height="23" rx="10" ry="10"></rect><text class="node-text" y="11.5" dy=".35em" x="77.50265979766846">ID</text><text class="token-range" x="0" y="11.5" dx="0" dy="-1.8em">⨳ 9</text><text class="token-value" x="0" y="11.5" dy="0.25em" dx="191">b</text></g><g class="tree-node tree-leaf" transform="translate(2660, 207)" style="opacity: 1;"><rect width="171" height="23" rx="10" ry="10"></rect><text class="node-text" y="11.5" dy=".35em" x="77.50265979766846">ID</text><text class="token-range" x="0" y="11.5" dx="0" dy="-1.8em">⨳ 11</text><text class="token-value" x="0" y="11.5" dy="0.25em" dx="191">i</text></g></g></svg>