<?xml version="1.0" standalone="no"?>
<?xml-stylesheet href="light.css" type="text/css"?>
<!DOCTYPE svg PUBLIC "-//W3C//DTD SVG 1.1//EN" "http://www.w3.org/Graphics/SVG/1.1/DTD/svg11.dtd">
<svg xmlns="http://www.w3.org/2000/svg" version="1.1" viewBox="0 0 1000 1000"><g transform="translate(248.78483167830075,61.45812358146844) scale(0.4948154665398356)"><path class="tree-link" d="M85.5,60C85.5,0 85.5,11.5 85.5,11.5" style="stroke-opacity: 1;"></path><path class="tree-link" d="M-9.5,120C-9.5,60 85.5,71.5 85.5,71.5" style="stroke-opacity: 1;"></path><path class="tree-link" d="M180.5,120C180.5,60 85.5,71.5 85.5,71.5" style="stroke-opacity: 1;"></path><path class="tree-link" d="M-9.5,180C-9.5,120 -9.5,131.5 -9.5,131.5" style="stroke-opacity: 1;"></path><path class="tree-link" d="M-817,240C-817,180 -9.5,191.5 -9.5,191.5" style="stroke-opacity: 1;"></path><path class="tree-link" d="M-627,240.00000000000003C-627,180.00000000000003 -9.5,191.5 -9.5,191.5" style="stroke-opacity: 1;"></path><path class="tree-link" d="M-437,240.00000000000003C-437,180.00000000000003 -9.5,191.5 -9.5,191.5" style="stroke-opacity: 1;"></path><path class="tree-link" d="M-25.333333333333258,240C-25.333333333333258,180 -9.5,191.5 -9.5,191.5" style="stroke-opacity: 1;"></path><path class="tree-link" d="M386.3333333333334,240C386.3333333333334,180 -9.5,191.5 -9.5,191.5" style="stroke-opacity: 1;"></path><path class="tree-link" d="M798,240C798,180 -9.5,191.5 -9.5,191.5" style="stroke-opacity: 1;"></path><path class="tree-link" d="M-437,300C-437,240 -437,251.50000000000003 -437,251.50000000000003" style="stroke-opacity: 1;"></path><path class="tree-link" d="M703,300C703,240 798,251.5 798,251.5" style="stroke-opacity: 1;"></path><path class="tree-link" d="M893,300C893,240 798,251.5 798,251.5" style="stroke-opacity: 1;"></path><path class="tree-link" d="M-712.5,360.00000000000006C-712.5,300.00000000000006 -437,311.5 -437,311.5" style="stroke-opacity: 1;"></path><path class="tree-link" d="M-161.5,360C-161.5,300 -437,311.5 -437,311.5" style="stroke-opacity: 1;"></path><path class="tree-link" d="M703,360C703,300 703,311.5 703,311.5" style="stroke-opacity: 1;"></path><path class="tree-link" d="M-807.5,420.00000000000006C-807.5,360.00000000000006 -712.5,371.50000000000006 -712.5,371.50000000000006" style="stroke-opacity: 1;"></path><path class="tree-link" d="M-617.5,420.00000000000006C-617.5,360.00000000000006 -712.5,371.50000000000006 -712.5,371.50000000000006" style="stroke-opacity: 1;"></path><path class="tree-link" d="M-351.5,420C-351.5,360 -161.5,371.5 -161.5,371.5" style="stroke-opacity: 1;"></path><path class="tree-link" d="M-161.5,420C-161.5,360 -161.5,371.5 -161.5,371.5" style="stroke-opacity: 1;"></path><path class="tree-link" d="M28.500000000000227,420C28.500000000000227,360 -161.5,371.5 -161.5,371.5" style="stroke-opacity: 1;"></path><path class="tree-link" d="M513,420C513,360 703,371.5 703,371.5" style="stroke-opacity: 1;"></path><path class="tree-link" d="M703,420C703,360 703,371.5 703,371.5" style="stroke-opacity: 1;"></path><path class="tree-link" d="M893,420C893,360 703,371.5 703,371.5" style="stroke-opacity: 1;"></path><path class="tree-link" d="M-807.5,480.00000000000006C-807.5,420.00000000000006 -807.5,431.50000000000006 -807.5,431.50000000000006" style="stroke-opacity: 1;"></path><path class="tree-link" d="M-256.5,480.00000000000006C-256.5,420.00000000000006 -161.5,431.5 -161.5,431.5" style="stroke-opacity: 1;"></path><path class="tree-link" d="M-66.5,480.00000000000006C-66.5,420 -161.5,431.5 -161.5,431.5" style="stroke-opacity: 1;"></path><path class="tree-link" d="M199.5,480C199.5,420 703,431.5 703,431.5" style="stroke-opacity: 1;"></path><path class="tree-link" d="M1206.5,480C1206.5,420 703,431.5 703,431.5" style="stroke-opacity: 1;"></path><path class="tree-link" d="M-256.5,540C-256.5,480.00000000000006 -256.5,491.50000000000006 -256.5,491.50000000000006" style="stroke-opacity: 1;"></path><path class="tree-link" d="M104.5,540C104.5,480 199.5,491.5 199.5,491.5" style="stroke-opacity: 1;"></path><path class="tree-link" d="M294.5,540C294.5,480 199.5,491.5 199.5,491.5" style="stroke-opacity: 1;"></path><path class="tree-link" d="M1111.5000000000002,540C1111.5000000000002,480 1206.5,491.5 1206.5,491.5" style="stroke-opacity: 1;"></path><path class="tree-link" d="M1301.5000000000002,540C1301.5000000000002,480 1206.5,491.5 1206.5,491.5" style="stroke-opacity: 1;"></path><path class="tree-link" d="M104.5,600C104.5,540 104.5,551.5 104.5,551.5" style="stroke-opacity: 1;"></path><path class="tree-link" d="M1016.5000000000002,600C1016.5000000000002,540 1111.5000000000002,551.5 1111.5000000000002,551.5" style="stroke-opacity: 1;"></path><path class="tree-link" d="M1206.5000000000002,600C1206.5000000000002,540 1111.5000000000002,551.5 1111.5000000000002,551.5" style="stroke-opacity: 1;"></path><path class="tree-link" d="M-171,660C-171,600 104.5,611.5 104.5,611.5" style="stroke-opacity: 1;"></path><path class="tree-link" d="M380,660C380,600 104.5,611.5 104.5,611.5" style="stroke-opacity: 1;"></path><path class="tree-link" d="M1016.5000000000002,660C1016.5000000000002,600 1016.5000000000002,611.5 1016.5000000000002,611.5" style="stroke-opacity: 1;"></path><path class="tree-link" d="M-266,720C-266,660 -171,671.5 -171,671.5" style="stroke-opacity: 1;"></path><path class="tree-link" d="M-76,720C-76,660 -171,671.5 -171,671.5" style="stroke-opacity: 1;"></path><path class="tree-link" d="M190,720C190,660 380,671.5 380,671.5" style="stroke-opacity: 1;"></path><path class="tree-link" d="M380,720C380,660 380,671.5 380,671.5" style="stroke-opacity: 1;"></path><path class="tree-link" d="M570,720C570,660 380,671.5 380,671.5" style="stroke-opacity: 1;"></path><path class="tree-link" d="M836.0000000000002,720C836.0000000000002,660 1016.5000000000002,671.5 1016.5000000000002,671.5" style="stroke-opacity: 1;"></path><path class="tree-link" d="M1197.0000000000002,720C1197.0000000000002,660 1016.5000000000002,671.5 1016.5000000000002,671.5" style="stroke-opacity: 1;"></path><path class="tree-link" d="M285,780C285,720 380,731.5 380,731.5" style="stroke-opacity: 1;"></path><path class="tree-link" d="M475,780C475,720 380,731.5 380,731.5" style="stroke-opacity: 1;"></path><path class="tree-link" d="M741.0000000000002,780C741.0000000000002,720 836.0000000000002,731.5 836.0000000000002,731.5" style="stroke-opacity: 1;"></path><path class="tree-link" d="M931.0000000000002,780C931.0000000000002,720 836.0000000000002,731.5 836.0000000000002,731.5" style="stroke-opacity: 1;"></path><path class="tree-link" d="M1197.0000000000002,780C1197.0000000000002,720 1197.0000000000002,731.5 1197.0000000000002,731.5" style="stroke-opacity: 1;"></path><path class="tree-link" d="M285,840C285,780 285,791.5 285,791.5" style="stroke-opacity: 1;"></path><path class="tree-link" d="M741.0000000000002,840C741.0000000000002,780 741.0000000000002,791.5 741.0000000000002,791.5" style="stroke-opacity: 1;"></path><path class="tree-link" d="M-266,780C-266,720 -266,731.5 -266,731.5" style="stroke-opacity: 1;"></path><g class="tree-node tree-root" transform="translate(0,0)" style="opacity: 1;"><rect width="171" height="23" rx="0" ry="0"></rect><text class="node-text" y="11.5" dy=".35em" x="51.271915435791016">programa</text><text class="token-range" x="0" y="11.5" dx="0" dy="-1.8em">⨳ 0-14</text><text class="token-value" x="0" y="11.5" dy="2.5em" dx="85.5"></text></g><g class="tree-node" transform="translate(0, 60)" style="opacity: 1;"><rect width="171" height="23" rx="0" ry="0"></rect><text class="node-text" y="11.5" dy=".35em" x="38.826473236083984">instrucciones</text><text class="token-range" x="0" y="11.5" dx="0" dy="-1.8em">⨳ 0-14</text><text class="token-value" x="0" y="11.5" dy="2.5em" dx="85.5"></text></g><g class="tree-node" transform="translate(-95, 120)" style="opacity: 1;"><rect width="171" height="23" rx="0" ry="0"></rect><text class="node-text" y="11.5" dy=".35em" x="47.273170471191406">instruccion</text><text class="token-range" x="0" y="11.5" dx="0" dy="-1.8em">⨳ 0-14</text><text class="token-value" x="0" y="11.5" dy="2.5em" dx="85.5"></text></g><g class="tree-node" transform="translate(95, 120)" style="opacity: 1;"><rect width="171" height="23" rx="0" ry="0"></rect><text class="node-text" y="11.5" dy=".35em" x="38.826473236083984">instrucciones</text><text class="token-range" x="0" y="11.5" dx="0" dy="-1.8em">⨳ --</text><text class="token-value" x="0" y="11.5" dy="2.5em" dx="85.5"></text></g><g class="tree-node" transform="translate(-95, 180)" style="opacity: 1;"><rect width="171" height="23" rx="0" ry="0"></rect><text class="node-text" y="11.5" dy=".35em" x="51.27588653564453">ciclowhile</text><text class="token-range" x="0" y="11.5" dx="0" dy="-1.8em">⨳ 0-14</text><text class="token-value" x="0" y="11.5" dy="2.5em" dx="85.5"></text></g><g class="tree-node tree-leaf" transform="translate(-902.5, 240)" style="opacity: 1;"><rect width="171" height="23" rx="10" ry="10"></rect><text class="node-text" y="11.5" dy=".35em" x="60.1716423034668">WHILE</text><text class="token-range" x="0" y="11.5" dx="0" dy="-1.8em">⨳ 0</text><text class="token-value" x="0" y="11.5" dy="2.5em" dx="63.51437759399414">while</text></g><g class="tree-node tree-leaf" transform="translate(-712.5, 240)" style="opacity: 1;"><rect width="171" height="23" rx="10" ry="10"></rect><text class="node-text" y="11.5" dy=".35em" x="64.31494331359863">PARA</text><text class="token-range" x="0" y="11.5" dx="0" dy="-1.8em">⨳ 1</text><text class="token-value" x="0" y="11.5" dy="2.5em" dx="81.10287570953369">(</text></g><g class="tree-node" transform="translate(-522.5, 240)" style="opacity: 1;"><rect width="171" height="23" rx="0" ry="0"></rect><text class="node-text" y="11.5" dy=".35em" x="70.37950992584229">opal</text><text class="token-range" x="0" y="11.5" dx="0" dy="-1.8em">⨳ 2-4</text><text class="token-value" x="0" y="11.5" dy="2.5em" dx="85.5"></text></g><g class="tree-node" transform="translate(-110.83333587646484, 240)" style="opacity: 1;"><rect width="171" height="23" rx="0" ry="0"></rect><text class="node-text" y="11.5" dy=".35em" x="81.0521035194397">e</text><text class="token-range" x="0" y="11.5" dx="0" dy="-1.8em">⨳ --</text><text class="token-value" x="0" y="11.5" dy="2.5em" dx="85.5"></text></g><g class="tree-node tree-leaf" transform="translate(300.8333435058594, 240)" style="opacity: 1;"><rect width="171" height="23" rx="10" ry="10"></rect><text class="node-text" y="11.5" dy=".35em" x="63.8736629486084">PARC</text><text class="token-range" x="0" y="11.5" dx="0" dy="-1.8em">⨳ 5</text><text class="token-value" x="0" y="11.5" dy="2.5em" dx="81.10287570953369">)</text></g><g class="tree-node" transform="translate(712.5, 240)" style="opacity: 1;"><rect width="171" height="23" rx="0" ry="0"></rect><text class="node-text" y="11.5" dy=".35em" x="38.826473236083984">instrucciones</text><text class="token-range" x="0" y="11.5" dx="0" dy="-1.8em">⨳ 6-14</text><text class="token-value" x="0" y="11.5" dy="2.5em" dx="85.5"></text></g><g class="tree-node" transform="translate(-522.5, 300)" style="opacity: 1;"><rect width="171" height="23" rx="0" ry="0"></rect><text class="node-text" y="11.5" dy=".35em" x="72.60540771484375">exp</text><text class="token-range" x="0" y="11.5" dx="0" dy="-1.8em">⨳ 2-4</text><text class="token-value" x="0" y="11.5" dy="2.5em" dx="85.5"></text></g><g class="tree-node" transform="translate(617.5, 300)" style="opacity: 1;"><rect width="171" height="23" rx="0" ry="0"></rect><text class="node-text" y="11.5" dy=".35em" x="47.273170471191406">instruccion</text><text class="token-range" x="0" y="11.5" dx="0" dy="-1.8em">⨳ 6-14</text><text class="token-value" x="0" y="11.5" dy="2.5em" dx="85.5"></text></g><g class="tree-node" transform="translate(807.5, 300)" style="opacity: 1;"><rect width="171" height="23" rx="0" ry="0"></rect><text class="node-text" y="11.5" dy=".35em" x="38.826473236083984">instrucciones</text><text class="token-range" x="0" y="11.5" dx="0" dy="-1.8em">⨳ --</text><text class="token-value" x="0" y="11.5" dy="2.5em" dx="85.5"></text></g><g class="tree-node" transform="translate(-798, 360)" style="opacity: 1;"><rect width="171" height="23" rx="0" ry="0"></rect><text class="node-text" y="11.5" dy=".35em" x="69.50478172302246">term</text><text class="token-range" x="0" y="11.5" dx="0" dy="-1.8em">⨳ 2</text><text class="token-value" x="0" y="11.5" dy="2.5em" dx="85.5"></text></g><g class="tree-node" transform="translate(-247, 360)" style="opacity: 1;"><rect width="171" height="23" rx="0" ry="0"></rect><text class="node-text" y="11.5" dy=".35em" x="81.0521035194397">e</text><text class="token-range" x="0" y="11.5" dx="0" dy="-1.8em">⨳ 3-4</text><text class="token-value" x="0" y="11.5" dy="2.5em" dx="85.5"></text></g><g class="tree-node" transform="translate(617.5, 360)" style="opacity: 1;"><rect width="171" height="23" rx="0" ry="0"></rect><text class="node-text" y="11.5" dy=".35em" x="61.48371696472168">bloque</text><text class="token-range" x="0" y="11.5" dx="0" dy="-1.8em">⨳ 6-14</text><text class="token-value" x="0" y="11.5" dy="2.5em" dx="85.5"></text></g><g class="tree-node" transform="translate(-893, 420)" style="opacity: 1;"><rect width="171" height="23" rx="0" ry="0"></rect><text class="node-text" y="11.5" dy=".35em" x="65.49818420410156">factor</text><text class="token-range" x="0" y="11.5" dx="0" dy="-1.8em">⨳ 2</text><text class="token-value" x="0" y="11.5" dy="2.5em" dx="85.5"></text></g><g class="tree-node" transform="translate(-703, 420)" style="opacity: 1;"><rect width="171" height="23" rx="0" ry="0"></rect><text class="node-text" y="11.5" dy=".35em" x="83.2780191898346">t</text><text class="token-range" x="0" y="11.5" dx="0" dy="-1.8em">⨳ --</text><text class="token-value" x="0" y="11.5" dy="2.5em" dx="85.5"></text></g><g class="tree-node tree-leaf" transform="translate(-437, 420)" style="opacity: 1;"><rect width="171" height="23" rx="10" ry="10"></rect><text class="node-text" y="11.5" dy=".35em" x="67.72796249389648">MEN</text><text class="token-range" x="0" y="11.5" dx="0" dy="-1.8em">⨳ 3</text><text class="token-value" x="0" y="11.5" dy="2.5em" dx="81.10287570953369">&lt;</text></g><g class="tree-node" transform="translate(-247, 420)" style="opacity: 1;"><rect width="171" height="23" rx="0" ry="0"></rect><text class="node-text" y="11.5" dy=".35em" x="69.50478172302246">term</text><text class="token-range" x="0" y="11.5" dx="0" dy="-1.8em">⨳ 4</text><text class="token-value" x="0" y="11.5" dy="2.5em" dx="85.5"></text></g><g class="tree-node" transform="translate(-57, 420)" style="opacity: 1;"><rect width="171" height="23" rx="0" ry="0"></rect><text class="node-text" y="11.5" dy=".35em" x="81.0521035194397">e</text><text class="token-range" x="0" y="11.5" dx="0" dy="-1.8em">⨳ --</text><text class="token-value" x="0" y="11.5" dy="2.5em" dx="85.5"></text></g><g class="tree-node tree-leaf" transform="translate(427.5, 420)" style="opacity: 1;"><rect width="171" height="23" rx="10" ry="10"></rect><text class="node-text" y="11.5" dy=".35em" x="55.86043167114258">LLAVEA</text><text class="token-range" x="0" y="11.5" dx="0" dy="-1.8em">⨳ 6</text><text class="token-value" x="0" y="11.5" dy="2.5em" dx="81.10287570953369">{</text></g><g class="tree-node" transform="translate(617.5, 420)" style="opacity: 1;"><rect width="171" height="23" rx="0" ry="0"></rect><text class="node-text" y="11.5" dy=".35em" x="38.826473236083984">instrucciones</text><text class="token-range" x="0" y="11.5" dx="0" dy="-1.8em">⨳ 7-13</text><text class="token-value" x="0" y="11.5" dy="2.5em" dx="85.5"></text></g><g class="tree-node tree-leaf" transform="translate(807.5, 420)" style="opacity: 1;"><rect width="171" height="23" rx="10" ry="10"></rect><text class="node-text" y="11.5" dy=".35em" x="55.419151306152344">LLAVEC</text><text class="token-range" x="0" y="11.5" dx="0" dy="-1.8em">⨳ 14</text><text class="token-value" x="0" y="11.5" dy="2.5em" dx="81.10287570953369">}</text></g><g class="tree-node tree-leaf" transform="translate(-893, 480)" style="opacity: 1;"><rect width="171" height="23" rx="10" ry="10"></rect><text class="node-text" y="11.5" dy=".35em" x="77.50239992141724">ID</text><text class="token-range" x="0" y="11.5" dx="0" dy="-1.8em">⨳ 2</text><text class="token-value" x="0" y="11.5" dy="2.5em" dx="81.10287570953369">i</text></g><g class="tree-node" transform="translate(-342, 480)" style="opacity: 1;"><rect width="171" height="23" rx="0" ry="0"></rect><text class="node-text" y="11.5" dy=".35em" x="65.49818420410156">factor</text><text class="token-range" x="0" y="11.5" dx="0" dy="-1.8em">⨳ 4</text><text class="token-value" x="0" y="11.5" dy="2.5em" dx="85.5"></text></g><g class="tree-node" transform="translate(-152, 480)" style="opacity: 1;"><rect width="171" height="23" rx="0" ry="0"></rect><text class="node-text" y="11.5" dy=".35em" x="83.2780191898346">t</text><text class="token-range" x="0" y="11.5" dx="0" dy="-1.8em">⨳ --</text><text class="token-value" x="0" y="11.5" dy="2.5em" dx="85.5"></text></g><g class="tree-node" transform="translate(114, 480)" style="opacity: 1;"><rect width="171" height="23" rx="0" ry="0"></rect><text class="node-text" y="11.5" dy=".35em" x="47.273170471191406">instruccion</text><text class="token-range" x="0" y="11.5" dx="0" dy="-1.8em">⨳ 7-10</text><text class="token-value" x="0" y="11.5" dy="2.5em" dx="85.5"></text></g><g class="tree-node" transform="translate(1121, 480)" style="opacity: 1;"><rect width="171" height="23" rx="0" ry="0"></rect><text class="node-text" y="11.5" dy=".35em" x="38.826473236083984">instrucciones</text><text class="token-range" x="0" y="11.5" dx="0" dy="-1.8em">⨳ 11-13</text><text class="token-value" x="0" y="11.5" dy="2.5em" dx="85.5"></text></g><g class="tree-node tree-leaf" transform="translate(-342, 540)" style="opacity: 1;"><rect width="171" height="23" rx="10" ry="10"></rect><text class="node-text" y="11.5" dy=".35em" x="52.17402267456055">ENTERO</text><text class="token-range" x="0" y="11.5" dx="0" dy="-1.8em">⨳ 4</text><text class="token-value" x="0" y="11.5" dy="2.5em" dx="76.70575141906738">10</text></g><g class="tree-node" transform="translate(19, 540)" style="opacity: 1;"><rect width="171" height="23" rx="0" ry="0"></rect><text class="node-text" y="11.5" dy=".35em" x="70.37950992584229">opal</text><text class="token-range" x="0" y="11.5" dx="0" dy="-1.8em">⨳ 7-9</text><text class="token-value" x="0" y="11.5" dy="2.5em" dx="85.5"></text></g><g class="tree-node tree-leaf" transform="translate(209, 540)" style="opacity: 1;"><rect width="171" height="23" rx="10" ry="10"></rect><text class="node-text" y="11.5" dy=".35em" x="69.05570411682129">PYC</text><text class="token-range" x="0" y="11.5" dx="0" dy="-1.8em">⨳ 10</text><text class="token-value" x="0" y="11.5" dy="2.5em" dx="81.10287570953369">;</text></g><g class="tree-node" transform="translate(1026, 540)" style="opacity: 1;"><rect width="171" height="23" rx="0" ry="0"></rect><text class="node-text" y="11.5" dy=".35em" x="47.273170471191406">instruccion</text><text class="token-range" x="0" y="11.5" dx="0" dy="-1.8em">⨳ 11-13</text><text class="token-value" x="0" y="11.5" dy="2.5em" dx="85.5"></text></g><g class="tree-node" transform="translate(1216, 540)" style="opacity: 1;"><rect width="171" height="23" rx="0" ry="0"></rect><text class="node-text" y="11.5" dy=".35em" x="38.826473236083984">instrucciones</text><text class="token-range" x="0" y="11.5" dx="0" dy="-1.8em">⨳ --</text><text class="token-value" x="0" y="11.5" dy="2.5em" dx="85.5"></text></g><g class="tree-node" transform="translate(19, 600)" style="opacity: 1;"><rect width="171" height="23" rx="0" ry="0"></rect><text class="node-text" y="11.5" dy=".35em" x="72.60540771484375">exp</text><text class="token-range" x="0" y="11.5" dx="0" dy="-1.8em">⨳ 7-9</text><text class="token-value" x="0" y="11.5" dy="2.5em" dx="85.5"></text></g><g class="tree-node" transform="translate(931, 600)" style="opacity: 1;"><rect width="171" height="23" rx="0" ry="0"></rect><text class="node-text" y="11.5" dy=".35em" x="70.37950992584229">opal</text><text class="token-range" x="0" y="11.5" dx="0" dy="-1.8em">⨳ 11-12</text><text class="token-value" x="0" y="11.5" dy="2.5em" dx="85.5"></text></g><g class="tree-node tree-leaf" transform="translate(1121, 600)" style="opacity: 1;"><rect width="171" height="23" rx="10" ry="10"></rect><text class="node-text" y="11.5" dy=".35em" x="69.05570411682129">PYC</text><text class="token-range" x="0" y="11.5" dx="0" dy="-1.8em">⨳ 13</text><text class="token-value" x="0" y="11.5" dy="2.5em" dx="81.10287570953369">;</text></g><g class="tree-node" transform="translate(-256.5, 660)" style="opacity: 1;"><rect width="171" height="23" rx="0" ry="0"></rect><text class="node-text" y="11.5" dy=".35em" x="69.50478172302246">term</text><text class="token-range" x="0" y="11.5" dx="0" dy="-1.8em">⨳ 7</text><text class="token-value" x="0" y="11.5" dy="2.5em" dx="85.5"></text></g><g class="tree-node" transform="translate(294.5, 660)" style="opacity: 1;"><rect width="171" height="23" rx="0" ry="0"></rect><text class="node-text" y="11.5" dy=".35em" x="81.0521035194397">e</text><text class="token-range" x="0" y="11.5" dx="0" dy="-1.8em">⨳ 8-9</text><text class="token-value" x="0" y="11.5" dy="2.5em" dx="85.5"></text></g><g class="tree-node" transform="translate(931, 660)" style="opacity: 1;"><rect width="171" height="23" rx="0" ry="0"></rect><text class="node-text" y="11.5" dy=".35em" x="72.60540771484375">exp</text><text class="token-range" x="0" y="11.5" dx="0" dy="-1.8em">⨳ 11-12</text><text class="token-value" x="0" y="11.5" dy="2.5em" dx="85.5"></text></g><g class="tree-node" transform="translate(-351.5, 720)" style="opacity: 1;"><rect width="171" height="23" rx="0" ry="0"></rect><text class="node-text" y="11.5" dy=".35em" x="65.49818420410156">factor</text><text class="token-range" x="0" y="11.5" dx="0" dy="-1.8em">⨳ 7</text><text class="token-value" x="0" y="11.5" dy="2.5em" dx="85.5"></text></g><g class="tree-node" transform="translate(-161.5, 720)" style="opacity: 1;"><rect width="171" height="23" rx="0" ry="0"></rect><text class="node-text" y="11.5" dy=".35em" x="83.2780191898346">t</text><text class="token-range" x="0" y="11.5" dx="0" dy="-1.8em">⨳ --</text><text class="token-value" x="0" y="11.5" dy="2.5em" dx="85.5"></text></g><g class="tree-node tree-leaf" transform="translate(104.5, 720)" style="opacity: 1;"><rect width="171" height="23" rx="10" ry="10"></rect><text class="node-text" y="11.5" dy=".35em" x="68.16924285888672">MAS</text><text class="token-range" x="0" y="11.5" dx="0" dy="-1.8em">⨳ 8</text><text class="token-value" x="0" y="11.5" dy="2.5em" dx="81.10287570953369">+</text></g><g class="tree-node" transform="translate(294.5, 720)" style="opacity: 1;"><rect width="171" height="23" rx="0" ry="0"></rect><text class="node-text" y="11.5" dy=".35em" x="69.50478172302246">term</text><text class="token-range" x="0" y="11.5" dx="0" dy="-1.8em">⨳ 9</text><text class="token-value" x="0" y="11.5" dy="2.5em" dx="85.5"></text></g><g class="tree-node" transform="translate(484.5, 720)" style="opacity: 1;"><rect width="171" height="23" rx="0" ry="0"></rect><text class="node-text" y="11.5" dy=".35em" x="81.0521035194397">e</text><text class="token-range" x="0" y="11.5" dx="0" dy="-1.8em">⨳ --</text><text class="token-value" x="0" y="11.5" dy="2.5em" dx="85.5"></text></g><g class="tree-node" transform="translate(750.5, 720)" style="opacity: 1;"><rect width="171" height="23" rx="0" ry="0"></rect><text class="node-text" y="11.5" dy=".35em" x="69.50478172302246">term</text><text class="token-range" x="0" y="11.5" dx="0" dy="-1.8em">⨳ 11</text><text class="token-value" x="0" y="11.5" dy="2.5em" dx="85.5"></text></g><g class="tree-node" transform="translate(1111.5, 720)" style="opacity: 1;"><rect width="171" height="23" rx="0" ry="0"></rect><text class="node-text" y="11.5" dy=".35em" x="81.0521035194397">e</text><text class="token-range" x="0" y="11.5" dx="0" dy="-1.8em">⨳ 12</text><text class="token-value" x="0" y="11.5" dy="2.5em" dx="85.5"></text></g><g class="tree-node tree-leaf" transform="translate(-351.5, 780)" style="opacity: 1;"><rect width="171" height="23" rx="10" ry="10"></rect><text class="node-text" y="11.5" dy=".35em" x="77.50239992141724">ID</text><text class="token-range" x="0" y="11.5" dx="0" dy="-1.8em">⨳ 7</text><text class="token-value" x="0" y="11.5" dy="2.5em" dx="81.10287570953369">a</text></g><g class="tree-node" transform="translate(199.5, 780)" style="opacity: 1;"><rect width="171" height="23" rx="0" ry="0"></rect><text class="node-text" y="11.5" dy=".35em" x="65.49818420410156">factor</text><text class="token-range" x="0" y="11.5" dx="0" dy="-1.8em">⨳ 9</text><text class="token-value" x="0" y="11.5" dy="2.5em" dx="85.5"></text></g><g class="tree-node" transform="translate(389.5, 780)" style="opacity: 1;"><rect width="171" height="23" rx="0" ry="0"></rect><text class="node-text" y="11.5" dy=".35em" x="83.2780191898346">t</text><text class="token-range" x="0" y="11.5" dx="0" dy="-1.8em">⨳ --</text><text class="token-value" x="0" y="11.5" dy="2.5em" dx="85.5"></text></g><g class="tree-node" transform="translate(655.5, 780)" style="opacity: 1;"><rect width="171" height="23" rx="0" ry="0"></rect><text class="node-text" y="11.5" dy=".35em" x="65.49818420410156">factor</text><text class="token-range" x="0" y="11.5" dx="0" dy="-1.8em">⨳ 11</text><text class="token-value" x="0" y="11.5" dy="2.5em" dx="85.5"></text></g><g class="tree-node" transform="translate(845.5, 780)" style="opacity: 1;"><rect width="171" height="23" rx="0" ry="0"></rect><text class="node-text" y="11.5" dy=".35em" x="83.2780191898346">t</text><text class="token-range" x="0" y="11.5" dx="0" dy="-1.8em">⨳ --</text><text class="token-value" x="0" y="11.5" dy="2.5em" dx="85.5"></text></g><g class="tree-node tree-leaf" transform="translate(1111.5, 780)" style="opacity: 1;"><rect width="171" height="23" rx="10" ry="10"></rect><text class="node-text" y="11.5" dy=".35em" x="65.9511604309082">INCR</text><text class="token-range" x="0" y="11.5" dx="0" dy="-1.8em">⨳ 12</text><text class="token-value" x="0" y="11.5" dy="2.5em" dx="76.70575141906738">++</text></g><g class="tree-node tree-leaf" transform="translate(199.5, 840)" style="opacity: 1;"><rect width="171" height="23" rx="10" ry="10"></rect><text class="node-text" y="11.5" dy=".35em" x="77.50239992141724">ID</text><text class="token-range" x="0" y="11.5" dx="0" dy="-1.8em">⨳ 9</text><text class="token-value" x="0" y="11.5" dy="2.5em" dx="81.10287570953369">b</text></g><g class="tree-node tree-leaf" transform="translate(655.5, 840)" style="opacity: 1;"><rect width="171" height="23" rx="10" ry="10"></rect><text class="node-text" y="11.5" dy=".35em" x="77.50239992141724">ID</text><text class="token-range" x="0" y="11.5" dx="0" dy="-1.8em">⨳ 11</text><text class="token-value" x="0" y="11.5" dy="2.5em" dx="81.10287570953369">i</text></g></g></svg>